<?xml version="1.0" encoding="UTF-8"?>
<svg enable-background="new 0 0 145.2 158.5" version="1.1" viewBox="0 0 145.2 158.5" xml:space="preserve" xmlns="http://www.w3.org/2000/svg">
<path d="m81.3 158.5c-36.4 0-68-24-78.2-59.4-9.7-33.8 3.8-70.1 33.1-88.6 8.9-5.6 18.4-9.5 28.9-10.4 2.7-0.2 5.7 0.1 8.3 1 5 1.7 5.4 5.5 1.2 8.8-0.8 0.6-1.7 1.1-2.5 1.7-23 15-31.2 40.7-21.1 66.4 12.7 32.5 49.2 50.8 82.9 41.5 3.5-1 7.8-3.3 10.4 1 2.6 4.2-1 7.2-3.4 10-14.7 17.7-36.9 28.1-59.6 28zm42.3-25.9h-7.2c-33 0.2-64.1-21.2-75.2-52.2-8.9-24.9-4.9-47.5 13.2-67.3 0.4-0.4 0.7-0.9 1.3-1.7-22.9 5.5-43.4 32.1-45.8 58.7-2.8 30.6 14.4 59.9 42.4 72.3 23.8 10.6 56.3 6.4 71.3-9.8z"/>
<path d="m75.307 158.2c-28.891-2.3791-53.562-19.025-66.496-44.866-8.2299-16.442-10.68-34.391-7.1124-52.107 2.8404-14.105 9.2355-26.762 18.982-37.568 9.8638-10.936 24.58-19.679 37.779-22.447 3.6617-0.76782 7.4162-1.1848 9.4025-1.0443 3.5347 0.25008 6.5413 1.1595 8.0211 2.4262 1.0282 0.8801 1.3955 1.589 1.3955 2.6936 0 2.0416-1.2176 3.4677-5.3823 6.3038-9.033 6.1514-15.172 12.807-19.471 21.112-3.9115 7.5553-5.7036 14.995-5.703 23.676 9.86e-4 13.821 5.0697 27.585 14.557 39.528 1.9166 2.4127 7.8696 8.3656 10.282 10.282 11.32 8.9924 24.381 14.28 38.419 15.553 3.748 0.33998 11.923 0.13921 15.4-0.3782 3.1953-0.47544 6.5566-1.193 8.9698-1.9148 3.8608-1.1548 4.3798-1.2752 5.5516-1.2872 2.0784-0.0213 3.5339 0.9295 4.6433 3.0334 0.33272 0.63097 0.43892 1.1662 0.43892 2.2123 0 2.1349-0.28629 2.5895-5.0282 7.9842-7.2168 8.2101-14.816 14.105-24.235 18.8-8.309 4.1415-16.372 6.5711-25.628 7.7223-2.9078 0.36165-11.782 0.53325-14.785 0.28591zm14.095-10.337c11.882-1.3644 22.162-5.1797 29.669-11.011 1.5862-1.2321 4.5342-3.8813 4.5342-4.0746 0-0.0786-2.861-0.19716-6.3577-0.2634-10.577-0.20037-16.701-1.1317-25.009-3.803-24.081-7.7436-43.243-26.167-51.213-49.241-5.3308-15.432-5.6584-29.303-1.0103-42.773 2.6255-7.609 7.1847-15.192 13.418-22.316 0.91643-1.0474 1.8368-2.172 2.0452-2.4991l0.379-0.59466-0.67471 0.13954c-3.5327 0.73059-10.384 3.8476-14.474 6.5848-13.161 8.8076-23.705 23.469-28.489 39.615-5.4153 18.277-2.5653 39.231 7.6376 56.154 7.5785 12.571 18.492 22.331 31.792 28.435 6.9558 3.1921 15.305 5.2561 23.952 5.921 3.1383 0.24131 10.601 0.0929 13.8-0.27435z" fill="#fc0" stroke-width=".19714"/></svg>
