<?xml version="1.0" encoding="UTF-8"?>
<svg enable-background="new 0 0 269 206" version="1.1" viewBox="0 0 269 206" xml:space="preserve" xmlns="http://www.w3.org/2000/svg">
<path d="m35 74.6c-4.2-13.8-2.1-25.8 10.6-33.8 10.2-6.4 19-5.6 31 2.1 0.6-2 1.2-3.8 1.8-5.7 8.6-25.4 38.5-42.3 64.5-35.8 20.7 5.2 31.7 19.7 35.6 40.1 1.5 7.7 2.1 15.5 3.1 23.3 0.2 1.4 0.5 2.9 0.8 4.3 5.6-1 10.7-2.3 15.9-2.9 10-1.1 18.8 2.1 26.3 8.6 1.8 1.5 2.9 4.9 2.7 7.2-0.3 3.3-4.3 4.3-6.9 1.9-10.8-9.7-22.6-9.9-35.4-4.7-7.5 3.1-11 1-12.2-7-1.4-8.9-2.2-17.8-3.4-26.8-2.8-21.5-17.3-35.6-37.1-36.4-23.3-0.9-45.2 17.8-48 40.9-0.4 3-0.7 6-1.4 8.8-0.3 1.2-1.6 2.2-2.5 3.4-1.1-0.9-2.3-1.6-3.2-2.7-2-2.6-3.6-5.5-5.7-8.1-5-6.3-9.9-7.5-18.2-4.7-6.9 2.3-12.1 8.4-11.7 15.1 0.2 4.2 1.6 8.4 3.1 12.4 2.2 5.6 1.1 8.1-4.9 9-3.3 0.5-6.6 1.1-9.8 1.7-11.3 2.4-18 9.6-20.5 20.7-2.4 10.7 1.1 19.8 9 27.1 6.1 5.7 13.2 8.9 22.1 8.8 24.8-0.3 49.6-0.1 74.5 0 3.3 0 7.6-1.2 8.5 3.7 0.6 3.4-2.8 5.4-8.4 5.4-26 0-52 0-78-0.2-16.2 0-34.5-15.5-36.7-30.8-2.9-19.4 7.9-37.1 25.9-42.5 2.6-0.9 5.4-1.5 8.6-2.4z"/>
<path d="m151.6 87.6c0.5-2 0.9-3.4 1.2-5 1.3-8.5 3.2-17 3.7-25.5 0.6-10.3-2.4-19.7-10.1-27.2-1.3-1.2-1.5-3.5-2.2-5.3 2 0.3 4.4-0.1 6 0.9 7.9 5.1 13.7 12.2 14.5 21.6 1.1 13.5-1.7 26.4-9.4 37.9-0.5 0.7-1 1.4-1.6 1.9-0.3 0.4-0.9 0.4-2.1 0.7z"/>
<path d="m36.8 133.8c-7.1 3.4-16-2.6-20.9-13.6-5.7-12.9 0.3-22.5 19.2-30-3.6 3.4-7.3 5.9-9.6 9.4-2.4 3.8-4.7 8.5-4.6 12.7 0.1 4.1 2.6 8.6 5.1 12.1 2.9 3.6 7 6.1 10.8 9.4z"/>
<path d="m153.1 128.4c-14.6-0.3-29.3-0.5-43.9-0.8-2.6 0-6.7 0.1-8.8-1.7-1.6-1.3-1.3-4.2 0.2-5.4 2.1-1.7 6.8-1.2 9.3-1.1 29.8 0.7 59.7 1.4 89.5 2 9.9 0.2 16.5-8.8 13.5-18-1.9-5.9-7.3-7.5-11.7-3-2.1 2.2-3.4 5.1-4.9 7.8-1 1.9-2.1 4.3-4.4 3-1.3-0.7-2.3-3.3-2.2-5 0.5-7 6.8-14.1 13.5-16 8.2-2.3 16.4 3.3 18.1 12.6 2.6 13.8-6.8 27.9-22.7 27.2-15.2-0.9-30.4-1.3-45.5-1.6z"/>
<path d="m200.4 150.3c-14.6-0.3-29.3-0.5-43.9-0.8-2.6 0-6.7 0.1-8.8-1.7-1.6-1.3-1.3-4.2 0.2-5.4 2.1-1.7 6.8-1.2 9.3-1.1 29.8 0.7 59.7 1.4 89.5 2 9.9 0.2 16.5-8.8 13.5-18-1.9-5.9-7.3-7.5-11.7-3-2.1 2.2-3.4 5.1-4.9 7.8-1 1.9-2.1 4.3-4.4 3-1.3-0.7-2.3-3.3-2.2-5 0.5-7 6.8-14.1 13.5-16 8.2-2.3 16.4 3.3 18.1 12.6 2.6 13.8-6.8 27.9-22.7 27.2-15.1-0.8-30.3-1.3-45.5-1.6z"/>
<path d="m181.3 165.7c-14.6 0.3-29.3 0.5-43.9 0.8-2.6 0-6.7-0.1-8.8 1.6-1.6 1.3-1.3 4 0.2 5.1 2.1 1.6 6.8 1.1 9.3 1.1 29.8-0.7 59.7-1.3 89.5-1.9 9.9-0.2 16.5 8.4 13.5 17.3-1.9 5.7-7.3 7.2-11.7 2.9-2.1-2.1-3.4-4.9-4.9-7.5-1-1.8-2.1-4.1-4.4-2.9-1.3 0.7-2.3 3.2-2.2 4.8 0.5 6.7 6.8 13.6 13.5 15.3 8.2 2.2 16.4-3.2 18.1-12.1 2.6-13.3-6.8-26.8-22.7-26.1-15.1 0.8-30.3 1.2-45.5 1.6z"/>
<path d="m34.489 150c-4.4345-0.51455-7.7498-1.5751-12.454-3.9841-10.168-5.2067-18.45-14.762-20.88-24.092-1.16-4.4534-1.1801-12.455-0.043333-17.259 1.729-7.3075 5.0096-13.298 10.033-18.321 5.314-5.314 10.7-8.1217 20.59-10.734 2.7434-0.72452 3.234-0.92948 3.2018-1.3374-0.02093-0.26498-0.3341-1.7501-0.6959-3.3002-1.6787-7.1925-1.2105-14.205 1.2799-19.167 2.5966-5.1736 7.6014-9.8738 13.546-12.721 7.9883-3.8266 15.617-3.0663 25.069 2.4985 1.2463 0.7337 2.3416 1.3333 2.4341 1.3324 0.09244-1e-3 0.716-1.7016 1.3857-3.7792 2.113-6.5556 4.301-10.81 8.2678-16.076 10.924-14.503 29.556-23.582 46.883-22.845 6.523 0.27717 12.168 1.5905 18.33 4.2646 10.182 4.4187 18.402 12.905 22.901 23.643 3.0803 7.3522 4.4413 13.646 6.1632 28.503 0.49 4.2276 1.0838 8.8086 1.3196 10.18 0.39611 2.3038 0.46962 2.4842 0.96688 2.3729 2.2593-0.50595 11.523-2.2625 13.54-2.5673 5.333-0.80611 11.301-0.36874 15.874 1.1633 5.92 1.9834 12.562 6.4976 13.962 9.4888 1.331 2.8442 1.3004 5.7985-0.0713 6.8775-1.7953 1.4122-3.6452 1.2161-5.8106-0.61594-10.042-8.4962-20.437-9.9481-34.394-4.8036-6.1781 2.2773-9.0435 2.1362-10.851-0.53456-1.7753-2.6238-2.0023-3.8654-4.5116-24.676-1.2915-10.711-1.8002-13.529-3.2114-17.792-3.4255-10.349-10.11-18.346-19.091-22.838-12.209-6.1076-27.767-5.1683-40.677 2.4558-9.4941 5.607-17.2 14.63-20.822 24.379-1.3618 3.6662-2.0625 6.7038-2.9255 12.683-0.41697 2.8889-0.88011 5.656-1.0292 6.1493-0.14909 0.49322-0.76018 1.4471-1.358 2.1197l-1.0869 1.2229-1.4322-1.147c-1.0013-0.80194-2.146-2.1963-3.805-4.6347-4.3819-6.4405-6.3902-8.5402-9.554-9.9887-2.0723-0.94874-4.1991-1.2341-6.8141-0.91422-10.113 1.237-17.196 7.7983-17.209 15.94-0.0051 3.2708 0.89638 7.1358 2.9498 12.647 0.74798 2.0075 0.96154 2.9604 0.98659 4.4015 0.02974 1.7115-0.02147 1.8964-0.73669 2.6596-1.2127 1.294-2.4189 1.6725-8.8396 2.7735-3.3116 0.56787-7.0473 1.3303-8.3016 1.6942-8.6856 2.5203-14.324 8.0352-17.289 16.912-1.2242 3.6644-1.6548 6.7988-1.4921 10.864 0.16966 4.2398 0.73864 6.5662 2.4904 10.183 3.5281 7.2836 11.225 14.074 18.858 16.636 4.4301 1.4871 2.2298 1.4187 48.041 1.4934 41.56 0.0678 42.193 0.0763 43.163 0.57942 2.6835 1.3926 2.8395 5.3953 0.27209 6.982-2.1859 1.351-0.61638 1.3063-44.608 1.2699-22.412-0.0185-41.544-0.12586-42.515-0.23854z" fill="#4d4d4d" stroke-width=".25622"/><path d="m30.874 134.49c-1.653-0.40151-3.7988-1.3322-5.2525-2.278-1.9682-1.2806-5.1034-4.4681-6.6457-6.7563-1.5956-2.3674-3.7717-7.0419-4.3746-9.3972-0.64332-2.5132-0.69992-6.2596-0.12723-8.4222 1.4965-5.6514 6.9682-10.884 15.845-15.153 1.9461-0.93585 3.5806-1.6594 3.6322-1.6078 0.05156 0.05156-1.2875 1.3001-2.9758 2.7746-1.6882 1.4745-3.5474 3.2476-4.1315 3.9403-3.2326 3.8337-6.083 10.575-6.0889 14.401-0.0062 4.0255 3.1343 10.661 6.7637 14.29 0.7897 0.7897 3.1334 2.7851 5.2083 4.4342l3.7725 2.9984-0.89128 0.37009c-0.91389 0.37947-3.8184 0.62853-4.7346 0.40599z" fill="#4d4d4d" stroke-width=".25622"/><path d="m151.95 87.05c5e-3 -0.10569 0.17782-0.88396 0.38399-1.7295 0.61356-2.5162 3.3759-19.177 3.8444-23.188 1.5841-13.559-0.81114-22.383-8.4298-31.056-1.9178-2.1831-2.2516-2.7109-2.7297-4.3162-0.29958-1.0059-0.49993-1.8738-0.44521-1.9285 0.0547-0.05472 1.1542-0.0022 2.4434 0.11679 2.1408 0.19754 2.4834 0.30772 3.9541 1.2717 4.0208 2.6353 8.1347 6.849 10.184 10.431 2.736 4.7819 3.5964 8.5557 3.5964 15.775 0 6.8847-0.92883 12.807-2.9691 18.93-2.5048 7.5174-7.3961 15.886-9.2855 15.886-0.306 0-0.55225-0.08647-0.54723-0.19216z" fill="#4d4d4d" stroke-width=".25622"/><path d="m194.09 129.62c-0.7365-0.11578-12.469-0.58322-22.035-0.87789-7.3468-0.22632-31.969-0.72682-57.393-1.1666-9.9799-0.17265-12.064-0.40192-13.741-1.5119-2.5663-1.6983-1.6042-5.3942 1.6463-6.3244 1.3234-0.37871 1.875-0.37347 29.518 0.2805 59.943 1.4181 68.809 1.5642 70.716 1.165 3.9229-0.821 7.5553-3.4496 9.2971-6.7278 2.5869-4.8687 1.9453-11.748-1.3962-14.972-3.3593-3.2409-8.2191-1.8908-11.448 3.1804-0.47446 0.74526-1.5816 2.681-2.4604 4.3015-1.9211 3.543-2.6202 4.3557-3.7468 4.3557-1.5749 0-3.1852-2.4979-3.1852-4.9409 0-1.4352 0.6779-3.8597 1.5858-5.6717 3.6879-7.3601 11.21-11.886 17.759-10.685 2.2202 0.4071 5.4123 2.0647 7.1013 3.6875 2.6741 2.5694 4.2163 5.6702 4.9728 9.9984 1.363 7.7982-1.9047 16.621-7.9644 21.502-2.1599 1.74-5.1521 3.2125-7.9926 3.933-2.1476 0.54477-2.9852 0.61965-6.5909 0.58919-2.2719-0.0192-4.3613-0.0711-4.6431-0.11544z" fill="#4d4d4d" stroke-width=".25622"/><path d="m240.46 151.54c-11.516-0.62155-28.721-1.1585-48.938-1.5273-37.351-0.6814-39.683-0.74466-41.032-1.1129-0.72519-0.19792-1.6608-0.56202-2.0791-0.80912-2.0487-1.2102-2.1416-4.1791-0.17901-5.7229 1.419-1.1162 1.8488-1.1222 31.282-0.43779 72.757 1.6917 69.792 1.667 72.641 0.60525 6.336-2.361 9.9753-8.9722 8.5721-15.572-1.3996-6.5835-6.1702-9.2186-10.852-5.9943-1.7508 1.2058-3.2009 3.1625-5.5929 7.5463-1.9026 3.487-3.0114 4.8474-3.9511 4.8474-0.26021 0-0.84427-0.3123-1.2979-0.694-3.7657-3.1686-1.2194-11.669 5.0425-16.835 3.2677-2.6954 6.6169-4.0343 10.091-4.0343 5.397 0 10.125 3.1002 12.666 8.306 1.4158 2.9004 1.9388 5.3703 1.9388 9.1573 0 11.303-7.2471 20.314-17.819 22.158-2.3538 0.41047-4.6167 0.43613-10.493 0.11899z" fill="#4d4d4d" stroke-width=".25622"/><path d="m231.86 202.27c-4.1403-0.98114-8.6452-4.3142-11.264-8.3344-1.25-1.9186-2.5406-5.425-2.5455-6.916-5e-3 -1.5867 0.69545-3.3262 1.6924-4.2015 1.8381-1.6139 2.7944-0.91285 5.6064 4.11 1.5185 2.7124 2.4814 4.1014 3.7152 5.3597 2.0498 2.0904 3.1612 2.6461 5.5087 2.7544 1.5731 0.0725 1.9498-5e-3 3.0645-0.62985 2.4961-1.3994 3.953-4.2473 4.1721-8.1557 0.15514-2.7666-0.17012-4.4866-1.2715-6.7237-1.6768-3.406-5.6118-6.2619-9.6134-6.977-1.8126-0.32394-17.66-0.0625-76.808 1.2672-11.502 0.25856-20.985 0.366-21.959 0.24878-2.4714-0.29753-3.6352-0.96519-4.1831-2.3999-0.39431-1.0325-0.40296-1.265-0.0788-2.1167 0.39556-1.0393 1.5313-1.9447 3.0061-2.3965 1.1485-0.35183 9.9057-0.62942 31.289-0.99181 24.662-0.41795 48.9-1.1298 61.638-1.8103 6.7545-0.36083 10.227 0.18034 14.33 2.2332 8.2753 4.1405 12.925 13.541 11.299 22.846-0.4939 2.827-1.1142 4.4118-2.6426 6.7515-1.8866 2.8882-4.9386 5.1222-8.1346 5.9547-1.6282 0.42408-5.2828 0.49273-6.8214 0.12813z" fill="#4d4d4d" stroke-width=".25622"/></svg>
