<?xml version="1.0" encoding="UTF-8"?>
<svg enable-background="new 0 0 238.6 208.5" version="1.1" viewBox="0 0 238.6 208.5" xml:space="preserve" xmlns="http://www.w3.org/2000/svg">
<path d="m182.2 69.3c4.6-1.1 8.5-2.3 12.4-2.8 22.9-3.1 40.9 11.2 43.6 34.9 0.6 5.6 0.6 11.4-0.1 16.9-2.2 16-11.7 25.6-27.3 29.3-3.4 0.8-6.9 1.3-10.3 2-3.5 0.7-7 0.1-7.6-3.6-0.6-3.6 2.7-4.6 5.8-5.5 5.4-1.5 10.9-3.1 16.1-5.2 9.1-3.7 12.8-11.4 13.4-20.6 0.4-5.3 0.1-10.7-0.9-15.9-3.2-16.8-16.9-25.6-33.6-22.2-3.2 0.7-6.4 1.9-9.5 2.9-6.9 2.3-10.2 0.7-11.4-6.6-1.5-9.2-2.3-18.5-3.6-27.7-2.9-21.5-17.6-35.9-37.4-36.2-18.4-0.2-44.5 12.2-47.8 41.2-0.4 3.1-0.9 6.3-1.7 9.3-0.3 1-1.6 2.5-2.4 2.5-0.9 0-2.1-1.3-2.8-2.2-1.7-2.2-3-4.7-4.7-7-6.2-8.1-12.6-9.6-21.8-5.1-7.4 3.6-10.9 11.6-8.6 20.3 0.6 2.4 1.9 4.6 2.8 6.9 2 4.7 0.6 7.3-4.4 8.2-3.3 0.6-6.6 1-9.8 1.7-12.6 2.4-19.8 10.3-21.6 22.5-1.8 11.7 3.1 21 12.5 28.1 6.6 5 14 6.5 22.1 6 3.7-0.3 8.8-0.8 8.6 4.8-0.2 4.9-5.1 4.1-8.7 4.3-13.3 0.8-23.9-4.1-33.7-13.1-18.8-17.3-8.5-53.7 13.8-59.7 3.5-0.9 7-2 11.1-3.1-4.2-13.9-2.2-26.2 11.1-33.9 10-5.7 20.6-6.9 30.4 2.7 0.8-2.5 1.4-4.3 2-6.1 8.5-25.5 38.4-42.4 64.4-35.9 20.7 5.2 31.7 19.7 35.6 40 1.5 7.7 2.1 15.5 3.1 23.3 0.2 1.5 0.6 2.9 0.9 4.6z"/>
<path d="m152.9 185.3c-0.3 8.1-4.3 13.9-11.3 16.1-8.5 2.6-19.3-0.3-23.1-6.3-3.5-5.6-2.4-11.2 1-16.4 4-5.9 9.8-9.5 16.6-11.2 7.5-2 11.7 0.6 14.9 9.1 1 2.7 1.3 5.8 1.9 8.7zm-19.1 8.1c4.6-0.9 8.5-2.1 8.7-6.5 0.2-4.6-1.2-9.2-2-13.9-3 1.4-6.1 2.8-9.1 4.3-1 0.5-2.1 1.4-2.6 2.3-1.3 3-3.7 6.6-2.9 9.2 0.6 2.2 5.1 3.2 7.9 4.6z"/>
<path d="m114.9 158.3c-0.3 8.1-4.3 13.9-11.3 16.1-8.5 2.6-19.3-0.2-23.1-6.3-3.5-5.6-2.4-11.2 1-16.4 4-5.9 9.8-9.5 16.6-11.2 7.5-2 11.7 0.6 14.9 9.1 1 2.7 1.3 5.8 1.9 8.7zm-19.2 8.1c4.6-0.9 8.5-2 8.8-6.4 0.2-4.6-1.2-9.3-1.9-13.9-3 1.4-6.1 2.7-9.1 4.2-1 0.5-2.1 1.3-2.6 2.3-1.3 3-3.7 6.5-3 9.2 0.6 2.1 5 3.1 7.8 4.6z"/>
<path d="m166.9 139.3c-0.3 8.1-4.3 13.9-11.3 16.1-8.5 2.6-19.2-0.3-23.1-6.3-3.1-4.8-2.7-11.4 1.3-16.8 4.1-5.6 9.7-9.1 16.3-10.8 7.5-1.9 11.7 0.6 14.9 9.1 1 2.7 1.3 5.8 1.9 8.7zm-19.3 8.2c4.6-0.9 8.6-2 8.8-6.4 0.3-4.6-1.2-9.3-1.8-13.9-3 1.4-6.1 2.7-9.1 4.1-1 0.5-2.1 1.3-2.6 2.3-1.3 3-3.7 6.5-3 9.1 0.5 2.2 5 3.2 7.7 4.8z"/>
<path d="m151.3 87.6c0.5-2.1 1.1-3.8 1.4-5.4 1.3-8.7 3.2-17.3 3.6-26 0.5-9.9-2.7-19-10.1-26.2-1.3-1.2-1.5-3.5-2.2-5.3 2 0.3 4.4 0 6 0.9 7.9 5.1 13.7 12.2 14.5 21.6 1.1 13.5-1.7 26.4-9.4 37.9-0.5 0.7-1 1.4-1.6 1.9-0.4 0.3-1 0.3-2.2 0.6z"/>
<path d="m37.7 133.4c-6.5 3.8-10.4 1.2-13.8-2.2-6.2-6.2-11.6-12.9-9.5-22.7 2.3-11.2 11.2-14.6 20.4-17.8-7.7 5.4-14.9 11.7-14.1 21.8 0.7 9.6 7.1 16.4 17 20.9z"/>
<path d="m171.6 179.5c-3.9 0.1-6.7-3.9-4.3-6.9 4.1-5.2 9-9.7 13.9-14.1 0.9-0.8 4.2-0.4 5.3 0.7 1.2 1 2.1 4.4 1.4 5.1-4.8 5.2-10 10-15.1 14.9-0.2 0.3-0.9 0.2-1.2 0.3z"/>
<path d="m68.4 187.3c-0.2 0.6-0.4 1.9-1.1 2.7-4.2 4.2-8.3 8.6-13 12.3-1.3 1-4.9 0.7-6.1-0.4s-1.5-4.9-0.5-6.1c3.9-4.7 8.1-9.3 12.9-13.1 3.3-2.7 7.8 0 7.8 4.6z"/>
<path d="m91.7 208.5c-3.9 0.2-6.8-3.8-4.4-6.8 4-5.2 8.9-9.8 13.8-14.1 1-0.9 4.4-0.2 5.7 0.9 1.1 0.9 1.8 4.4 1 5.2-4.7 5.1-9.8 9.7-14.8 14.5-0.4 0.3-1 0.2-1.3 0.3z"/>
<path d="m36.695 150.26c-8.5089-0.92071-16.065-4.2106-23.599-10.275-6.7448-5.4291-10.037-10.425-12.007-18.218-0.64478-2.5513-0.69176-3.12-0.68679-8.3142 0.0045632-4.7738 0.087801-5.954 0.57882-8.2072 2.6197-12.021 9.8487-21.982 18.9-26.044 0.96042-0.43091 4.6695-1.6071 8.2423-2.6139 3.5729-1.0067 6.5385-1.8701 6.5903-1.9186 0.05178-0.04852-0.20473-1.2906-0.57003-2.7602-1.478-5.9459-1.5984-12.047-0.32308-16.364 2.3834-8.0663 8.7839-14.177 18.482-17.646 7.9669-2.8495 15.858-1.3521 22.204 4.2135 0.82843 0.72653 1.587 1.3205 1.6856 1.3199 0.09867-5.19e-4 0.80316-1.9193 1.5655-4.2638 2.8604-8.7967 7.0857-15.754 13.349-21.98 9.4522-9.3962 21.971-15.406 34.981-16.794 6.7846-0.72383 13.657 0.065021 20.546 2.3583 16.9 5.6258 27.514 18.661 31.364 38.516 0.86584 4.4658 1.2818 7.3752 2.3488 16.428 0.8027 6.8109 1.508 11.303 1.8244 11.619 0.0597 0.05972 2.303-0.42461 4.9851-1.0763 6.7573-1.6419 7.4407-1.7493 12.138-1.9088 8.557-0.29049 15.595 1.6263 22.258 6.0616 7.3784 4.912 12.761 12.803 15.23 22.33 2.3382 9.0211 2.2763 21.346-0.14927 29.755-0.8463 2.934-2.8049 7.0674-4.5345 9.5693-1.6448 2.3793-5.4708 6.1072-7.9584 7.7544-2.2748 1.5063-5.766 3.2515-8.3778 4.1881-4.317 1.548-16.669 3.9764-18.68 3.6726-2.1466-0.32419-3.6598-1.7204-4.0389-3.7267-0.21082-1.1155 0.0195-1.9374 0.80407-2.8698 0.90898-1.0803 2.1621-1.6034 7.7816-3.2484 5.5561-1.6265 11.043-3.4688 13.707-4.6025 4.9799-2.1191 8.963-6.1618 10.972-11.136 2.9765-7.3691 2.8896-20.958-0.19313-30.183-2.4487-7.3275-7.7315-13.189-14.381-15.958-3.945-1.6423-5.4557-1.911-10.883-1.9356-5.8326-0.02646-6.8264 0.1488-14.004 2.4695-5.9761 1.9323-8.1729 2.208-10.112 1.2692-2.1007-1.0169-3.2-3.3066-4.0202-8.3732-0.28201-1.7422-1.1003-7.9405-1.8184-13.774-1.6109-13.086-1.9225-15.184-2.73-18.387-3.089-12.253-10.587-21.937-20.709-26.744-4.9358-2.3441-8.7906-3.2389-14.81-3.4376-8.0742-0.2666-15.318 1.3345-23.08 5.1012-12.544 6.0875-21.174 16.515-24.523 29.632-0.29541 1.157-0.81978 4.0371-1.1653 6.4002-1.0672 7.2992-1.5938 9.4297-2.6303 10.641-0.49284 0.57577-1.0938 1.0468-1.3354 1.0468-0.92568 0-2.493-1.7608-5.1153-5.747-4.7549-7.2279-8.2516-10.079-13.328-10.866-3.2048-0.49724-7.179 0.41963-11.45 2.6415-5.4709 2.8463-8.7861 8.4315-8.7861 14.802 0 3.2593 0.58621 5.712 2.3425 9.8008 1.8313 4.2635 2.1805 5.6151 1.8083 6.9974-0.32127 1.1931-1.5812 2.3731-3.151 2.951-0.62117 0.22869-3.5874 0.82909-6.5917 1.3342-6.9846 1.1744-9.7274 1.9134-12.986 3.4986-8.6088 4.1883-13.472 12.205-14.01 23.098-0.42252 8.5416 2.4355 15.54 8.8989 21.791 3.9428 3.8133 7.8162 6.275 12.167 7.7326 4.0293 1.3499 6.3133 1.6351 12.904 1.611 6.2971-0.023 7.1069 0.10363 8.3939 1.3128 0.81883 0.76925 1.2876 3.0264 0.89838 4.3256-0.47136 1.5733-1.2144 2.3215-2.7164 2.7353-1.6605 0.45753-9.5964 0.70782-12.496 0.39411z" fill="#4d4d4d" stroke-width=".25933"/><path d="m30.14 134.96c-2.0481-0.40362-3.7107-1.5526-6.9299-4.789-4.6989-4.724-7.48-8.9659-8.5814-13.088-0.64977-2.4322-0.59663-6.7721 0.11591-9.4655 1.7962-6.7894 6.2015-11.248 14.473-14.649 1.7796-0.73171 3.3534-1.2911 3.4972-1.2432 0.14387 0.04796-0.65211 0.80291-1.7688 1.6777-8.0833 6.3318-11.252 12.638-10.226 20.351 0.47495 3.569 1.7646 6.8881 3.7624 9.6829 2.3175 3.242 7.0812 7.1469 11.111 9.1073 0.82013 0.39903 1.4911 0.80353 1.4911 0.89889 0 0.28856-2.5013 1.2705-3.9233 1.5402-1.4878 0.28216-1.4749 0.28226-3.0209-0.0224z" fill="#4d4d4d" stroke-width=".25933"/><path d="m151.56 87.044c1.1827-3.9584 3.6422-18.163 4.4523-25.713 0.64542-6.0159 0.41576-11.842-0.62593-15.878-1.3413-5.1972-4.0884-10.224-7.7624-14.204-0.98745-1.0697-1.9382-2.2138-2.1128-2.5425-0.36417-0.6855-1.0552-2.8754-1.0594-3.3573-4e-3 -0.41404 2.811-0.43846 4.2761-0.0371 2.5096 0.6875 8.7274 6.1438 11.198 9.8267 2.9434 4.3874 4.0291 7.6108 4.5122 13.398 0.61904 7.4141-0.49903 16.089-3.0334 23.536-1.1432 3.3591-4.6354 10.346-6.4408 12.886-1.2069 1.6982-1.5514 2.0114-2.4674 2.244-0.94173 0.23903-1.0499 0.22074-0.93664-0.15841z" fill="#4d4d4d" stroke-width=".25933"/><path d="m49.123 202.17c-1.3263-0.60239-1.7933-1.6272-1.7946-3.9381l-9.43e-4 -1.7066 1.9447-2.313c4.7781-5.6828 11.29-11.765 13.144-12.277 1.9905-0.5496 4.0737 0.53432 5.1402 2.6745 0.70636 1.4175 0.80339 2.4585 0.35558 3.8151-0.48615 1.4727-12.002 12.819-14.15 13.941-0.87652 0.45796-3.4388 0.34997-4.6399-0.19554z" fill="#2ad4ff" stroke-width=".25933"/><path d="m89.47 207.96c-1.8062-0.78325-2.8545-2.2354-2.8545-3.9541 0-0.79776 0.2459-1.3547 1.122-2.5413 2.4609-3.333 7.2605-8.2476 12.854-13.162 1.0974-0.96417 1.1929-0.99586 2.6121-0.86718 3.0912 0.28031 4.6588 1.8682 4.6714 4.7318l6e-3 1.2991-4.9921 4.9318c-10.194 10.071-10.086 9.9759-11.374 9.9645-0.62616-6e-3 -1.5461-0.18692-2.0443-0.40296z" fill="#2ad4ff" stroke-width=".25933"/><path d="m169.13 178.77c-1.9721-0.97615-3.0175-3.2173-2.3008-4.9326 0.78565-1.8803 8.4603-10.023 13.525-14.35l1.4362-1.227 1.6842 0.10725c1.1634 0.0741 1.9057 0.27145 2.4002 0.63817 0.94346 0.69964 1.8268 2.2892 2.0346 3.6611 0.16096 1.063 0.11222 1.167-1.3023 2.7782-0.80826 0.92062-4.3182 4.4206-7.7998 7.7777-6.2566 6.0328-6.3432 6.1038-7.4422 6.1036-0.61437-1.2e-4 -1.6147-0.24904-2.2353-0.55625z" fill="#b3b3b3" stroke-width=".25933"/><path d="m92.751 174.92c-13.257-2.391-18.138-13.248-10.671-23.732 1.2952-1.8184 4.6439-5.1143 6.4316-6.3302 3.1749-2.1592 8.9802-4.3496 12.755-4.8127 1.5451-0.18953 3.7222 0.19044 5.2055 0.90852 2.1679 1.0494 4.4411 4.0078 6.0381 7.8579 0.97039 2.3394 2.1547 8.0624 2.1321 10.303-0.0411 4.0712-1.8775 8.3936-4.7889 11.272-3.3018 3.2639-6.6396 4.5267-12.347 4.6714-1.9255 0.0488-4.0658-0.0131-4.7561-0.13766zm5.6638-8.9991c2.3078-0.56918 4.4779-1.8156 5.2827-3.0342 0.66142-1.0016 0.68115-1.146 0.65715-4.8096-0.0205-3.1338-0.16489-4.4809-0.8477-7.9096-0.45263-2.2729-0.84994-4.1558-0.88291-4.1842-0.15557-0.13419-9.2673 4.1922-10.243 4.8636-0.8953 0.61598-1.3655 1.2733-2.4358 3.4049-1.6654 3.3169-2.2924 5.1254-2.2924 6.6122 0 1.017 0.1286 1.2889 1.0031 2.1208 0.62105 0.59079 1.9792 1.3676 3.5658 2.0394 1.4095 0.59685 2.7367 1.1948 2.9495 1.3288 0.39688 0.2499 0.57456 0.22624 3.2438-0.43207z" fill="#b3b3b3" stroke-width=".25933"/><path d="m145.22 155.94c-2.1692-0.30927-5.9579-1.58-7.7247-2.5909-1.8062-1.0334-4.3149-3.3713-5.154-4.8032-1.6108-2.7485-2.1077-6.8969-1.2323-10.287 2.0447-7.9196 11.283-15.382 21.07-17.019 5.0694-0.84795 8.8011 1.2989 11.39 6.5529 1.3062 2.6505 1.9076 4.6154 2.6641 8.7041 0.53306 2.8809 0.56141 3.4068 0.28203 5.2318-0.79507 5.1938-3.2029 9.1469-7.1242 11.696-3.6199 2.3536-8.8249 3.2773-14.171 2.5151zm4.5382-8.781c5.5172-1.3817 7.1881-3.4892 6.7728-8.5424-0.24404-2.9691-1.779-11.417-2.0744-11.417-0.48461 0-9.099 3.9791-10.156 4.6914-0.85321 0.57471-1.3074 1.2327-2.4285 3.5185-1.8201 3.7109-2.0976 4.5437-2.0976 6.2942 0 1.322 0.0865 1.5563 0.84609 2.2926 0.46535 0.45104 1.9532 1.3227 3.3064 1.937 1.3532 0.61434 2.6937 1.2566 2.979 1.4272 0.6533 0.39076 0.42249 0.40707 2.8526-0.20154z" fill="#b3b3b3" stroke-width=".25933"/><path d="m130.18 201.77c-4.5721-0.96675-8.6499-3.1257-10.754-5.6936-1.3576-1.6568-2.4383-4.1998-2.7745-6.5291-0.54539-3.778 0.7802-7.8131 3.9476-12.017 4.0885-5.4258 11.007-9.3846 18.178-10.402 6.7456-0.95671 11.297 4.0603 13.329 14.693 0.51546 2.6974 0.64448 3.9834 0.51677 5.1509-0.49806 4.5534-2.4269 8.5416-5.3807 11.126-1.5498 1.3557-4.2835 2.7735-6.5588 3.4017-2.1305 0.58815-8.2528 0.74528-10.503 0.26955zm6.335-8.8784c3.2207-0.79818 5.2869-2.4 5.8733-4.5535 0.4488-1.6482 0.14372-5.6905-0.78801-10.441-1.0528-5.3683-0.95429-5.0797-1.6444-4.8154-2.3307 0.89277-9.5549 4.6097-10.265 5.2814-1.0078 0.9535-3.2404 5.478-3.8205 7.7423-0.50709 1.9794-0.17393 3.3099 1.0654 4.2552 1.3292 1.0138 6.6164 3.1854 7.3932 3.0366 0.35658-0.0684 1.3402-0.29572 2.1858-0.50528z" fill="#b3b3b3" stroke-width=".25933"/><path d="m168.98 178.45c-1.1959-0.72393-2.2296-2.3112-2.2315-3.4266-7.6e-4 -0.45643 0.3346-1.3055 0.78302-1.9825 1.6107-2.4317 9.0614-10.172 12.989-13.495l1.4557-1.2313 1.5662 0.21419c0.86138 0.1178 1.8684 0.41219 2.2377 0.65421 0.89374 0.5856 1.9722 2.7662 1.9723 3.9878 4e-5 0.93877-0.28245 1.2598-6.548 7.4422-7.9518 7.8462-8.6771 8.4507-10.137 8.4489-0.67261-8.3e-4 -1.4587-0.23127-2.0877-0.61198z" fill="#2ad4ff" stroke-width=".25933"/></svg>
