<?xml version="1.0" encoding="UTF-8"?>
<svg enable-background="new 0 0 238.9 150.4" version="1.1" viewBox="0 0 238.9 150.4" xml:space="preserve" xmlns="http://www.w3.org/2000/svg">
<path d="m151.6 87.1c1.4-6.8 3.3-13.5 3.9-20.3 0.6-6.6 0.2-13.3-0.5-19.8-0.8-7.2-5-12.9-10-18-0.9-1-1-2.8-1.4-4.3 1.6 0 3.4-0.6 4.6 0.1 8.8 4.8 14.9 12.3 15.9 22.3 1.3 13.7-1.6 26.8-9.5 38.4-0.6 0.9-0.9 2.1-1.4 3.2-0.5-0.6-1-1.1-1.6-1.6z"/>
<path d="m34.2 90.1c-7.5 6-14.6 12.4-13.7 22.6 0.9 9.4 7 16.3 16.2 20.2-0.2 0.6-0.3 1.1-0.5 1.7-2.4 0.2-5 1.1-7 0.4-10.3-3.5-18-19.1-13.9-29.1 1.7-4.1 5.4-7.7 8.9-10.7 2.7-2.4 6.6-3.5 10-5.1z"/>
<path d="m35 74.6c-4.4-14.1-2.2-26.2 10.8-33.8 9.8-5.7 19.5-7.2 30.7 2.3 0.7-2.2 1.3-4.2 2-6.1 8.5-25.2 38.3-41.8 64.1-35.7 18.8 4.4 32.6 19.8 35.9 40.4 1.5 9 2.4 18.1 3.7 27.8 2.1-0.6 3.8-1 5.5-1.5 25.6-7.4 47.5 6.8 50.6 33.2 0.7 5.7 0.7 11.7-0.2 17.4-2.6 16.7-11.8 25.9-29 29.4-5.7 1.2-11.5 2.1-17.3 2.1-51.8 0.2-103.6 0.3-155.5 0.2-15.9 0-33.9-16-36-31.1-2.6-19.2 8.1-36.8 25.8-42.2 2.6-0.8 5.4-1.5 8.9-2.4zm145.9 66.7c11.8 1.4 21-1 30-4.1 9.9-3.4 16.9-10.1 17.3-20.9 0.3-7.8-0.6-15.9-2.5-23.6-0.9-4-4.5-7.8-7.8-10.6-9.5-8.2-20.4-7.7-31.5-3.5-9.7 3.6-12.5 1.9-13.9-8.5-1.1-8.2-2-16.5-3.1-24.8-2.7-20.2-15.5-33.8-33.7-36.1-24.3-3-48.4 16.1-51.4 40.6-0.3 2.8-0.5 5.7-1.2 8.4-0.4 1.4-1.7 2.6-2.7 3.8-1.1-1-2.5-1.9-3.4-3.1-2.6-3.2-4.6-7-7.5-9.8-2.1-2-5.4-3.6-8.3-3.8-15.2-0.5-23.9 12.8-17.7 26.6 4.1 9 3.3 10.1-6.6 11.6-3.9 0.6-7.8 1.7-11.6 2.9-6 1.9-10.1 6-13.1 11.6-12 22.7 9.8 43.6 26.8 43.5 48-0.5 96-0.2 141.9-0.2z"/>
<path d="m182.61 141.35c-0.80052-0.0873-34.16-0.14953-74.133-0.1383-67.979 0.0191-72.776-1e-3 -74.213-0.31252-12.436-2.6949-23.094-13.538-25.059-25.493-0.39671-2.4137-0.30156-7.3159 0.18346-9.4515 0.85281-3.7551 2.8112-8.1778 4.9365-11.148 2.3049-3.2216 5.5119-5.9682 8.6079-7.3719 2.7473-1.2457 9.2099-3.0034 14.279-3.8837 5.3562-0.93013 6.7325-1.3484 7.7679-2.3607 1.4971-1.4637 1.2514-3.3111-1.1841-8.9054-2.7976-6.4258-2.9411-11.801-0.45341-16.981 2.3437-4.88 6.8867-8.3192 12.444-9.4204 4.4485-0.88153 6.8499-0.64577 10.179 0.9993 2.8018 1.3846 4.5288 3.1243 7.9744 8.0329 2.491 3.5486 4.8444 6.2133 6.0641 6.8661 0.46009 0.24623 0.53212 0.22047 1.091-0.39025 2.0233-2.211 2.4179-3.4463 3.1226-9.7749 0.49294-4.4267 0.92487-6.518 2.0677-10.011 2.1648-6.6171 6.1482-13.035 11.323-18.243 12.666-12.748 30.336-17.482 45.802-12.271 5.3032 1.7868 9.5362 4.3892 13.655 8.3949 5.9636 5.7996 10.008 13.691 11.743 22.912 0.35873 1.9064 0.74427 4.8659 2.743 21.056 0.43484 3.5223 0.92152 7.1901 1.0815 8.1507 0.87981 5.283 2.2802 7.7909 4.7618 8.5279 2.0771 0.61684 3.8194 0.3118 9.9624-1.7442 2.3528-0.78744 5.413-1.6716 6.8006-1.9647 2.2696-0.4795 2.9221-0.53378 6.5012-0.54082 3.7254-0.0073 4.1137 0.02649 6.1076 0.53201 3.5268 0.89415 6.5869 2.3552 9.4648 4.519 4.2982 3.2316 7.875 7.4395 8.9758 10.559 1.3034 3.6943 2.6395 12.688 2.9122 19.603 0.36009 9.1331-1.365 14.625-6.0493 19.26-3.4195 3.3833-6.6583 5.1984-13.132 7.3591-5.9091 1.9724-11.124 3.1467-16.208 3.6499-2.2992 0.22759-7.9648 0.21823-10.119-0.0167zm-148.75-6.3159c1.2808-0.17706 2.3503-0.33698 2.3766-0.35538 0.02633-0.0184 0.17056-0.4411 0.3205-0.93935l0.27264-0.9059-1.5819-0.7441c-4.2563-2.0021-8.0175-5.0192-10.565-8.4747-1.2513-1.6974-2.8733-5.1452-3.4693-7.3744-0.45856-1.7152-0.52048-2.3126-0.53308-5.1427-0.01238-2.7805 0.04385-3.4033 0.4271-4.7303 1.3712-4.7482 4.8442-9.3038 10.964-14.382 1.2579-1.0438 2.2578-1.9272 2.2218-1.9631-0.13145-0.13145-6.8374 2.8465-8.0801 3.5881-2.6172 1.562-7.3394 6.1937-9.2754 9.0977-2.0428 3.0641-2.7756 5.5433-2.7756 9.3905 0 9.4735 6.7356 20.044 14.525 22.793 1.5466 0.54591 2.1382 0.56223 5.173 0.1427zm120.02-47.71c0.2493-0.64041 0.95474-1.9503 1.5676-2.911 4.3967-6.8912 7.1522-14.164 8.3456-22.026 1.1551-7.6098 0.80447-16.261-0.85991-21.219-1.9768-5.8889-6.058-10.936-11.984-14.82-2.9216-1.915-3.3618-2.0667-5.5262-1.9044-2.0837 0.15622-2.0043 0.04268-1.5128 2.1621 0.39918 1.7212 0.45723 1.8183 2.3067 3.8568 4.2574 4.6928 6.7263 8.7145 7.946 12.944 0.97633 3.3854 1.5746 11.159 1.4158 18.398-0.14711 6.7045-0.45853 8.8698-2.7849 19.363l-1.3025 5.875 0.85179 0.86791c0.46848 0.47735 0.90384 0.80278 0.96745 0.72317 0.0636-0.07961 0.31964-0.66872 0.56895-1.3091z" fill="none"/><path d="m109.06 141.18c-66.202-0.11498-73.973-0.15983-75.109-0.43347-11.903-2.8657-22.133-13.057-24.432-24.341-0.49777-2.4426-0.55467-7.2891-0.11516-9.8094 0.58298-3.343 2.6588-8.2563 4.7923-11.343 1.3248-1.9166 3.5309-4.2606 5.1771-5.5006 3.4969-2.634 8.2396-4.22 18.813-6.2913 4.9298-0.9657 6.1515-1.3774 7.0188-2.3653 1.2322-1.4034 1.0275-3.0248-1.0297-8.1541-2.0366-5.0778-2.3499-6.4205-2.3495-10.068 3.88e-4 -3.4199 0.2256-4.4438 1.622-7.3745 2.8886-6.0623 8.5047-9.5663 15.932-9.9405 2.551-0.12852 3.8227 0.16458 6.5633 1.5127 1.6741 0.82352 2.2648 1.2456 3.5991 2.5718 0.87797 0.87262 2.4137 2.7219 3.4126 4.1094 3.617 5.024 6.4971 8.2477 7.3684 8.2477 0.19715 0 0.6642-0.33844 1.0379-0.75208 1.699-1.8806 2.189-3.4593 2.947-9.4948 0.58158-4.6308 0.87888-6.1571 1.7753-9.1145 4.9809-16.432 20.075-29.815 37.046-32.846 10.178-1.8178 20.751 0.2071 28.575 5.4726 7.7132 5.1908 13.362 13.322 16.037 23.084 0.94149 3.4363 1.2527 5.4459 3.0302 19.567 0.86338 6.8589 1.6984 13.226 1.8556 14.148 0.80153 4.7026 2.2492 7.3006 4.4942 8.0656 2.0174 0.6874 4.0806 0.36513 10.05-1.5697 1.8145-0.58817 4.478-1.3837 5.919-1.7678l2.6199-0.69843 4.7546-0.01176c5.2916-0.0131 6.1204 0.12009 9.6903 1.5572 6.1972 2.4948 13.003 8.8123 14.888 13.821 1.4819 3.9362 2.9755 14.86 2.9777 21.778 3e-3 7.6947-1.608 12.392-5.7099 16.655-3.485 3.6218-6.7584 5.4855-13.696 7.7975-3.818 1.2724-8.6083 2.4954-12.226 3.1212-3.1323 0.54186 1.7758 0.52127-87.329 0.36651zm-73.974-6.2248c1.2908-0.23778 1.4517-0.40076 1.7097-1.7322 0.08702-0.44899-0.07232-0.56892-2.1375-1.6088-5.3075-2.6724-9.1683-6.3158-11.456-10.811-1.9324-3.7966-2.4377-5.8699-2.4401-10.012-0.0018-3.1438 0.38474-4.8188 1.7426-7.551 1.6434-3.3068 4.9483-7.2203 8.9295-10.574 4.0319-3.3963 3.986-3.4182-1.7466-0.83408-3.3962 1.5309-4.801 2.4336-7.3079 4.6957-3.7649 3.3973-6.5016 7.0772-7.5351 10.132-0.48539 1.4347-0.56036 1.9797-0.63754 4.6339-0.10145 3.4891 0.16112 5.2985 1.2388 8.5366 2.2432 6.7404 7.277 12.699 12.592 14.905 1.5143 0.62856 1.6051 0.64199 3.6872 0.5452 1.1741-0.0546 2.6866-0.2009 3.3612-0.32516zm118.83-47.466c0.32235-0.71094 1.2023-2.3047 1.9553-3.5417 5.033-8.267 7.7456-16.543 8.4908-25.905 0.49272-6.1898 9.7e-4 -12.574-1.285-16.681-0.62345-1.9912-2.0906-4.951-3.4126-6.8844-2.1739-3.1792-7.0704-7.5058-10.635-9.3973-1.2503-0.66341-1.5068-0.72774-2.9014-0.72774-0.84141 0-1.7657 0.08969-2.054 0.1993-0.49322 0.18752-0.51748 0.25348-0.41038 1.1159 0.24987 2.012 0.63252 2.7756 2.4077 4.8047 3.4284 3.919 5.1234 6.3263 6.5671 9.3269 2.1789 4.5286 2.9389 10.529 2.7478 21.696-0.13034 7.6197-0.37121 9.2926-3.0767 21.368l-0.95659 4.2694 0.86813 0.82477c0.47747 0.45363 0.92235 0.82478 0.98862 0.82478 0.0663 0 0.38424-0.58167 0.7066-1.2926z" fill="none" stroke-width=".19406"/><path d="m109.06 141.18c-66.202-0.11498-73.973-0.15983-75.109-0.43347-11.903-2.8657-22.133-13.057-24.432-24.341-0.49777-2.4426-0.55467-7.2891-0.11516-9.8094 0.58298-3.343 2.6588-8.2563 4.7923-11.343 1.3248-1.9166 3.5309-4.2606 5.1771-5.5006 3.4969-2.634 8.2396-4.22 18.813-6.2913 4.9298-0.9657 6.1515-1.3774 7.0188-2.3653 1.2322-1.4034 1.0275-3.0248-1.0297-8.1541-2.0366-5.0778-2.3499-6.4205-2.3495-10.068 3.88e-4 -3.4199 0.2256-4.4438 1.622-7.3745 2.8886-6.0623 8.5047-9.5663 15.932-9.9405 2.551-0.12852 3.8227 0.16458 6.5633 1.5127 1.6741 0.82352 2.2648 1.2456 3.5991 2.5718 0.87797 0.87262 2.4137 2.7219 3.4126 4.1094 3.617 5.024 6.4971 8.2477 7.3684 8.2477 0.19715 0 0.6642-0.33844 1.0379-0.75208 1.699-1.8806 2.189-3.4593 2.947-9.4948 0.58158-4.6308 0.87888-6.1571 1.7753-9.1145 4.9809-16.432 20.075-29.815 37.046-32.846 10.178-1.8178 20.751 0.2071 28.575 5.4726 7.7132 5.1908 13.362 13.322 16.037 23.084 0.94149 3.4363 1.2527 5.4459 3.0302 19.567 0.86338 6.8589 1.6984 13.226 1.8556 14.148 0.80153 4.7026 2.2492 7.3006 4.4942 8.0656 2.0174 0.6874 4.0806 0.36513 10.05-1.5697 1.8145-0.58817 4.478-1.3837 5.919-1.7678l2.6199-0.69843 4.7546-0.01176c5.2916-0.0131 6.1204 0.12009 9.6903 1.5572 6.1972 2.4948 13.003 8.8123 14.888 13.821 1.4819 3.9362 2.9755 14.86 2.9777 21.778 3e-3 7.6947-1.608 12.392-5.7099 16.655-3.485 3.6218-6.7584 5.4855-13.696 7.7975-3.818 1.2724-8.6083 2.4954-12.226 3.1212-3.1323 0.54186 1.7758 0.52127-87.329 0.36651zm-73.974-6.2248c1.2908-0.23778 1.4517-0.40076 1.7097-1.7322 0.08702-0.44899-0.07232-0.56892-2.1375-1.6088-5.3075-2.6724-9.1683-6.3158-11.456-10.811-1.9324-3.7966-2.4377-5.8699-2.4401-10.012-0.0018-3.1438 0.38474-4.8188 1.7426-7.551 1.6434-3.3068 4.9483-7.2203 8.9295-10.574 4.0319-3.3963 3.986-3.4182-1.7466-0.83408-3.3962 1.5309-4.801 2.4336-7.3079 4.6957-3.7649 3.3973-6.5016 7.0772-7.5351 10.132-0.48539 1.4347-0.56036 1.9797-0.63754 4.6339-0.10145 3.4891 0.16112 5.2985 1.2388 8.5366 2.2432 6.7404 7.277 12.699 12.592 14.905 1.5143 0.62856 1.6051 0.64199 3.6872 0.5452 1.1741-0.0546 2.6866-0.2009 3.3612-0.32516zm118.83-47.466c0.32235-0.71094 1.2023-2.3047 1.9553-3.5417 5.033-8.267 7.7456-16.543 8.4908-25.905 0.49272-6.1898 9.7e-4 -12.574-1.285-16.681-0.62345-1.9912-2.0906-4.951-3.4126-6.8844-2.1739-3.1792-7.0704-7.5058-10.635-9.3973-1.2503-0.66341-1.5068-0.72774-2.9014-0.72774-0.84141 0-1.7657 0.08969-2.054 0.1993-0.49322 0.18752-0.51748 0.25348-0.41038 1.1159 0.24987 2.012 0.63252 2.7756 2.4077 4.8047 3.4284 3.919 5.1234 6.3263 6.5671 9.3269 2.1789 4.5286 2.9389 10.529 2.7478 21.696-0.13034 7.6197-0.37121 9.2926-3.0767 21.368l-0.95659 4.2694 0.86813 0.82477c0.47747 0.45363 0.92235 0.82478 0.98862 0.82478 0.0663 0 0.38424-0.58167 0.7066-1.2926z" fill="none" stroke-width=".19406"/><path d="m34.543 150.1c-13.577-1.0454-28.561-13.106-33.085-26.63-0.83614-2.4996-1.2379-4.9241-1.391-8.3942-0.53834-12.201 4.6551-24.033 13.794-31.426 4.7143-3.8136 9.2956-5.8931 17.771-8.0663 1.7611-0.45159 3.2647-0.87798 3.3413-0.94753 0.07658-0.06955-0.02764-0.66263-0.2316-1.318-0.20396-0.65533-0.58902-2.2257-0.85569-3.4898-2.1792-10.33-0.09485-18.456 6.3135-24.616 2.4206-2.3265 4.5658-3.7993 8.2131-5.6387 4.8352-2.4384 8.3384-3.3079 12.62-3.1323 4.8361 0.19835 8.982 1.8411 13.721 5.4369 0.95942 0.72793 1.7663 1.2956 1.7932 1.2614 0.02682-0.03414 0.66306-1.896 1.4139-4.1374 1.4536-4.3396 2.7287-7.3559 4.2308-10.008 6.5194-11.512 17.942-20.943 30.938-25.544 11.498-4.0711 22.802-4.3892 33.291-0.93685 6.7653 2.2268 12.334 5.6029 17.439 10.573 5.0642 4.9301 8.7946 10.567 11.439 17.284 2.3766 6.0362 3.1992 10.382 5.5831 29.495 0.65898 5.2834 1.2254 9.6371 1.2587 9.6749 0.0333 0.03781 1.8344-0.41579 4.0025-1.008 7.7354-2.1129 12.334-2.7012 17.747-2.27 13.5 1.0752 24.196 8.2925 30.065 20.287 3.3841 6.9157 4.9658 15.177 4.6817 24.452-0.51077 16.678-6.4628 27.474-18.311 33.214-4.0101 1.9426-9.6885 3.5407-16.753 4.7149-6.3428 1.0543-4.3889 1.0089-50.651 1.175-52.83 0.18962-115.89 0.1876-118.38-4e-3zm158.27-8.546c5.0992-0.4946 10.508-1.7268 16.568-3.7743 6.0196-2.034 9.3735-3.8824 12.513-6.8962 5.2066-4.9985 6.8806-10.607 6.3362-21.228-0.32911-6.4208-1.6152-14.718-2.8227-18.21-0.91783-2.6544-3.5031-6.035-6.7878-8.8761-5.6331-4.8723-11.024-6.9834-17.839-6.9855-4.4161-0.0014-8.4593 0.80911-14.416 2.8897-4.7445 1.6573-7.2163 2.0727-8.8548 1.4882-1.8246-0.65094-2.9677-2.0195-3.7534-4.4934-0.75896-2.39-0.9451-3.609-2.694-17.642-1.9537-15.677-2.1544-16.919-3.386-20.96-5.309-17.418-19.356-28.042-37.075-28.042-19.409 0-38.147 13.633-44.411 32.312-1.0711 3.1941-1.6946 6.1616-2.161 10.285-0.49187 4.3489-0.89407 6.5562-1.3583 7.4546-0.28038 0.54257-1.2222 1.7594-2.2385 2.892-0.03019 0.03364-0.681-0.47771-1.4463-1.1363-1.5832-1.3626-2.3571-2.3035-4.9704-6.0428-3.9502-5.6522-6.2405-7.6435-10.173-8.8451-1.857-0.56739-3.1455-0.66949-5.5671-0.44114-9.5884 0.90422-16.097 7.2385-16.857 16.404-0.25989 3.1368 0.45998 6.656 2.1833 10.674 2.7698 6.457 2.7779 7.9999 0.04939 9.3553-1.2426 0.61728-1.962 0.78507-9.0154 2.1028-3.1462 0.58776-9.2539 2.3095-11.319 3.1907-5.9665 2.5463-10.757 8.2306-13.233 15.702-1.1206 3.3818-1.4259 5.6077-1.3025 9.4986 0.13973 4.408 0.89149 7.377 2.8583 11.289 2.2898 4.5541 6.2974 9.1572 10.679 12.266 3.484 2.4717 8.0277 4.5079 11.837 5.3045 1.5581 0.32584 5.4567 0.34264 74.322 0.32016 39.972-0.013 73.332 0.0474 74.133 0.13443 2.1829 0.23719 7.8016 0.2424 10.203 9e-3z" fill="#4d4d4d" stroke-width=".19406"/><path d="m28.953 134.78c-5.6259-2.0242-11.076-8.3303-13.433-15.543-0.79969-2.4472-1.1597-4.682-1.1597-7.1995 0-5.2848 1.5666-8.5083 6.5961-13.572 2.9636-2.984 4.5805-4.2937 6.5033-5.2677 1.3487-0.68317 5.5767-2.4922 5.651-2.4179 0.02765 0.02765-0.65611 0.61595-1.5195 1.3073s-2.4974 2.174-3.6313 3.2948c-5.3113 5.2497-7.5835 9.9292-7.5835 15.618 0 7.0521 3.4502 13.65 9.4692 18.109 1.5749 1.1666 4.7534 3.0323 6.0075 3.5262 0.68284 0.2689 0.73512 0.42605 0.4315 1.297-0.19508 0.5596-0.24639 0.57833-2.4743 0.90303-2.8539 0.41593-3.5723 0.40787-4.8573-0.0545z" fill="#4d4d4d" stroke-width=".19406"/><path d="m152.36 87.684-0.65513-0.65765 1.0898-4.8942c2.8028-12.587 3.1563-15.478 2.9709-24.301-0.21904-10.426-0.93401-14.64-3.2324-19.05-1.5618-2.9971-2.8516-4.7443-6.8834-9.3251-1.0466-1.189-1.4273-2.0444-1.7638-3.9628l-0.12383-0.70576 1.7757-0.14054c2.0278-0.16049 2.2918-0.06578 5.3162 1.9072 6.942 4.5285 11.465 11.018 12.821 18.397 0.73108 3.9781 0.77822 11.3 0.10405 16.163-1.1734 8.4634-3.7884 15.607-8.424 23.014-0.70146 1.1207-1.4707 2.5398-1.7095 3.1535-0.23875 0.61373-0.47821 1.1035-0.53212 1.0884-0.0539-0.01512-0.39283-0.32344-0.75315-0.68514z" fill="#4d4d4d" stroke-width=".19406"/></svg>
