<?xml version="1.0" encoding="UTF-8"?>
<svg enable-background="new 0 0 285.1 188.5" version="1.1" viewBox="0 0 285.1 188.5" xml:space="preserve" xmlns="http://www.w3.org/2000/svg">
<path d="m217.36 0.0039062c-0.7375 0.009375-1.4641 0.070313-2.1641 0.19531-25 4.5-41.499 19.2-50.699 42.5-0.66912 1.6728-1.2776 3.4467-1.9238 5.3535 0.0256 0.01192 0.0502 0.02596 0.0762 0.03711 0.29523 0.14346 0.5969 0.28103 0.86328 0.47461 0.18183 0.14604 0.35804 0.29558 0.49805 0.48438 0.15013 0.19327 0.29382 0.39145 0.41992 0.60156 0.16271 0.23712 0.32653 0.47296 0.54493 0.66406 0.20935 0.21617 0.4492 0.39448 0.67773 0.58984 0.30838 0.28327 0.6037 0.58218 0.85547 0.91797 0.29303 0.40171 0.58723 0.80193 0.86719 1.2129 0.32527 0.45369 0.64111 0.9198 1.0371 1.3164 0.43012 0.42534 0.86219 0.84791 1.2441 1.3184 0.0515 0.06575 0.10009 0.13264 0.15039 0.19922-0.0195-0.51121-9.6e-4 -1.0133 0.0898-1.4688 4.6-21.3 17.1-36 37.5-44.9-3.9 6.2-7.9996 11.499-10.6 17.699-10.4 23.4-3.1011 51.302 17.799 69.602 13.7 12 29.7 17.999 48 17.799h5c-2.9 2.1-4.4996 4.0008-6.5996 4.8008-7 2.9-14.2 5.6004-21.4 7.9004-0.92724 0.30908-2.7854-0.28281-3.916-1.1191 0.0854 0.29932 0.18197 0.59623 0.29883 0.88477 0.0836 0.18682 0.0396 0.0929 0.13281 0.2832 0.0921 0.20027 0.16571 0.40744 0.25391 0.60937 0.16618 0.40378 0.32778 0.81063 0.47266 1.2227 0.14348 0.40252 0.28086 0.80648 0.40039 1.2168 0.12897 0.47201 0.25714 0.94455 0.38086 1.418 0.1578 0.56311 0.34879 1.116 0.55273 1.6641 0.15943 0.44118 0.31389 0.88329 0.46289 1.3281 0.13167 0.4044 0.26835 0.80786 0.37891 1.2188 0.0563 0.19423 0.11201 0.38851 0.16406 0.58399 1.3516-0.28815 2.642-0.63868 3.918-0.91211 10.1-2 19.5-5.8988 27.6-12.299 4.7-3.7 8.9008-8.0996 12.801-12.6 1.3-1.5 2.0992-5.1 1.1992-6.5s-4.2-1.2016-6.5-1.6016c-0.6-0.1-1.2984 0.3-1.8984 0.5-25.5 6.4-46.702-1.0985-63.102-20.898-19.5-23.3-16.6-57.202 10.5-73.102 0.60001-0.4 1.1016-0.69922 1.6016-1.1992 2.8-2.7 2.3992-5.7004-1.3008-6.9004-2.1-0.675-4.4242-1.1238-6.6367-1.0957zm-86.566 37.9c-6.509 0.12618-13.146 1.6215-19.896 4.3965-17.6 7.2-29.801 19.698-34.301 38.898-10.6-8.5-18.2-8.8988-29.9-2.7988-14.1 7.3-16.098 19.999-11.898 34.299-3.4 0.8-6.1008 1.5008-8.8008 2.3008-17.7 5.4-28.299 22.899-25.699 42.199 2.1 15.1 20.1 31.201 36 31.201 52 0.1 104-1e-3 156-0.20117 5.8 0 11.599-0.99922 17.299-2.1992 18.4-4 27.7-14.899 29.1-33.699 0.39752-4.969 0.10716-9.9441 0.10351-15.502-0.0565-0.22004-0.12028-0.43788-0.18359-0.65625-0.10928-0.40658-0.24278-0.80496-0.37305-1.2051-0.14765-0.44062-0.303-0.87939-0.46093-1.3164-0.20767-0.55747-0.39974-1.1206-0.56055-1.6934-0.12403-0.4743-0.25164-0.94702-0.38086-1.4199-0.11695-0.40017-0.25256-0.79486-0.39258-1.1875-0.14263-0.4058-0.30118-0.80546-0.46484-1.2031-0.0875-0.20007-0.16067-0.40703-0.25195-0.60547-0.0195-0.0424-0.0418-0.0832-0.0625-0.125-0.0227-0.0504-0.0458-0.10009-0.0684-0.15039-0.17084-0.41738-0.29922-0.85099-0.41211-1.2871-0.0308-0.11413-0.0573-0.22874-0.084-0.34375-0.0562-0.0708-0.16512-0.13323-0.20703-0.20508-11.3-18.8-27.4-25.2-48.4-18.9-1.1 0.4-2.1992 0.69922-4.1992 1.1992-0.8-6.4-1.7004-12.599-2.4004-18.799-1.1-10.5-3.1996-20.701-9.0996-29.801-0.26829-0.35773-0.4653-0.79624-0.62695-1.2617-0.0756-0.1157-0.15307-0.22984-0.23438-0.3418-0.29741-0.44777-0.59946-0.89159-0.93164-1.3145-0.3612-0.44233-0.76847-0.84135-1.1738-1.2422-0.43078-0.42824-0.77641-0.92827-1.1289-1.4199-0.27864-0.40912-0.57157-0.80912-0.86328-1.209-0.22019-0.29054-0.47752-0.54954-0.7461-0.79492-0.2443-0.20123-0.48944-0.39656-0.71093-0.62305-0.2507-0.22485-0.44553-0.49769-0.63477-0.77344-0.1175-0.19638-0.25048-0.38205-0.39062-0.5625-0.0994-0.13941-0.22961-0.24017-0.36133-0.3457-0.22112-0.14676-0.46648-0.25738-0.70508-0.37305-0.0324 0.09679-0.061 0.16362-0.0937 0.26172-10.063-7.8125-20.554-11.406-31.402-11.195zm0.8457 9.2812c2.6898 0.03008 5.357 0.32656 7.957 0.91406 16.3 3.6 27.4 16.801 29.9 35.301 1.1 8.6 1.9992 17.199 3.1992 25.799 1.3 9.3 4.5012 11.2 13.201 7.9004 11.1-4.2 22-5.2996 31.6 2.9004 3.7 3.2 7.3992 7.5992 8.6992 12.199 1.9 6.9 2.4016 14.402 2.1016 21.602-0.6 11.2-7.4008 18.099-17.801 21.699-9.5 3.3-19.2 4.6004-29.4 4.4004-22.6-0.5-45.3-0.20117-67.9-0.20117v-0.29883c-24.7 0-49.3 0.0996-74 0.0996-22.7-0.1-37.1-24.1-26.6-44.1 4.9-9.4 13.7-12 23.1-13.6 11.7-2 11.8-2.0016 7.4004-12.602-5.6-13.9 3.9996-27.2 19.1-25.6 7.7 0.7 10.4 7.4996 14.5 12.6 1.1 1.4 2.5012 2.7016 3.7012 4.1016 1.1-1.8 2.6992-3.6016 3.1992-5.6016 1.3-5.7 1.7-11.6 3.5-17.1 5.775-17.762 25.714-30.625 44.543-30.414z"/>
<path d="m152 125.3c1.4-6.8 3.2-13.5 3.9-20.3 0.7-5.7 0.5-11.6 0-17.4-0.7-7.7-4.2-14.2-9.7-19.7-1.2-1.2-1.5-3.3-2.2-5 2 0.2 4.4-0.3 5.9 0.6 8.1 5.1 14 12.3 14.7 22 1 13.5-1.7 26.4-9.5 37.9-0.6 0.9-1.1 2-1.7 3-0.4-0.4-0.9-0.8-1.4-1.1z"/>
<path d="m37.6 171.5c-5.2 3.2-8.7 2-11.9-0.8-6.8-6-12.6-12.6-11.4-22.5 1.4-12.1 10.7-16.2 20.7-19.5-7.6 5.4-14.7 11.6-14.1 21.6 0.6 9.8 7.2 16.4 16.7 21.2z"/>
<path d="m237.7 131.59c-0.85325-2.6112-1.5268-4.7754-1.4967-4.8094 0.03-0.0339 0.43671 0.0979 0.90368 0.29306 1.365 0.57035 2.4713 0.42493 6.0517-0.79549 6.2348-2.1252 16.496-6.0436 18.58-7.0949 0.53204-0.26843 2.0969-1.3981 3.4775-2.5103l2.5102-2.0222-5.7925-0.14917c-10.029-0.25826-15.96-1.2421-23.803-3.9482-11.514-3.9729-22.715-11.795-31.043-21.678-4.3839-5.2027-9.01-13.196-11.3-19.526-4.2478-11.74-4.6579-24.423-1.158-35.817 2.0131-6.5538 4.0217-10.471 10.046-19.594 1.566-2.3713 2.7305-4.3504 2.5878-4.398-0.42761-0.14253-6.7109 3.0742-9.866 5.0509-1.6189 1.0142-3.9927 2.6304-5.2752 3.5916-2.6314 1.972-8.5173 7.7041-10.479 10.205-3.3709 4.298-6.7116 10.214-8.7588 15.511-1.185 3.0662-2.8098 8.6084-3.0463 10.391-0.18691 1.409-0.2502 1.3753-2.2145-1.1783-0.74579-0.96954-2.1412-2.5791-3.1009-3.5769l-1.7449-1.8141 1.2183-3.2267c4.0962-10.849 8.9981-18.884 15.809-25.914 8.9878-9.2767 19.907-15.078 33.665-17.887 2.5076-0.51186 3.422-0.59802 5.158-0.48604 2.2577 0.14564 4.9794 0.80561 6.4806 1.5715 1.7211 0.87804 2.2864 2.6573 1.3941 4.3884-0.62367 1.21-1.6232 2.0849-4.4752 3.9174-3.4097 2.1908-6.0393 4.3369-8.804 7.1852-6.6819 6.8838-10.733 15.069-12.225 24.701-0.54123 3.4937-0.54166 10.334-9.3e-4 13.833 1.8567 12.011 7.3838 22.357 17.16 32.12 5.9632 5.9552 12.522 10.461 19.464 13.371 9.614 4.0309 20.695 5.2013 32 3.3799 3.2818-0.52879 6.9278-1.3354 7.5833-1.6778 0.55693-0.29086 5.095 0.20546 6.3148 0.69064 1.1102 0.44156 1.3413 0.87209 1.3413 2.4991 0 2.9238-1.226 4.6993-7.7157 11.174-5.8442 5.8308-10.48 9.2016-17.254 12.545-4.7069 2.3235-9.821 4.087-15.885 5.4777-2.289 0.525-4.2956 0.95455-4.4591 0.95455-0.17916 0-0.91354-1.8861-1.8486-4.7477z" fill="#fc0" stroke-width=".23445"/><path d="m34.816 188.23c-5.1756-0.4167-10.943-2.4601-15.886-5.6284-5.4996-3.5252-10.161-8.0903-13.605-13.325-2.5453-3.8686-4.066-7.5081-4.7908-11.466-0.48132-2.6284-0.53878-9.4923-0.10225-12.214 1.3797-8.6007 5.0092-15.867 10.746-21.513 3.4707-3.416 6.9283-5.7708 11.123-7.5758 1.954-0.84074 7.3346-2.4726 10.83-3.2845 1.6535-0.38411 1.8183-0.47254 1.6899-0.90669-1.1289-3.8172-1.7533-7.9507-1.7591-11.645-0.01662-10.596 4.7129-17.736 15.118-22.823 6.5276-3.1918 11.624-4.0955 16.529-2.9311 2.6208 0.62217 6.5674 2.5692 9.464 4.6693 1.2723 0.92236 2.3717 1.6185 2.4433 1.547 0.07152-0.07152 0.48581-1.3692 0.92064-2.8838 3.0645-10.674 8.9328-19.622 17.416-26.558 3.6827-3.0108 9.5265-6.4729 14.66-8.6848 7.7687-3.3477 14.738-4.8918 22.119-4.9012 10.104-0.01283 19.616 3.2555 28.697 9.86 0.87315 0.63506 1.7442 1.1547 1.9358 1.1547s0.58494 0.28894 0.87422 0.6421c0.28928 0.35315 0.89523 1.0036 1.3466 1.4454 0.45132 0.44183 1.2426 1.355 1.7584 2.0293 0.51579 0.67426 1.4273 1.791 2.0255 2.4817 1.2237 1.4127 4.2567 6.5546 5.6482 9.5755 1.9032 4.1317 3.6634 10.025 4.6231 15.477 0.261 1.4829 0.79565 5.3338 1.1881 8.5575 1.1197 9.1976 2.3288 18.236 2.4566 18.364 0.0641 0.0641 0.98734-0.12664 2.0517-0.42378 8.7778-2.4504 11.298-2.8891 16.706-2.9073 4.2128-0.0142 6.0677 0.21097 9.7072 1.1785 7.6749 2.0404 14.723 7.0919 20.395 14.619 3.6126 4.7933 3.751 5.0725 6.156 12.413l1.4168 4.3244-0.11739 8.8049c-0.0987 7.4058-0.19145 9.2147-0.58336 11.384-3.0574 16.922-12.272 25.626-30.996 29.278-8.8047 1.7174-5.7487 1.6015-47.242 1.7926-36.963 0.17028-123.14 0.22168-124.96 0.0745zm156.15-8.5209c11.912-1.0834 22.636-4.343 28.411-8.6363 1.9427-1.4442 4.0331-3.5693 5.2485-5.3358 1.1317-1.6448 2.4737-4.6914 3.0304-6.8794 1.5909-6.2527 0.72574-20.689-1.6545-27.607-1.0712-3.1134-3.4265-6.522-6.7049-9.7029-3.5429-3.4376-6.3385-5.2103-10.278-6.5172-3.0127-0.99945-5.4546-1.2938-9.3601-1.1283-4.1726 0.17686-6.7911 0.72807-12.479 2.6269-2.4692 0.82433-5.1672 1.6237-5.9956 1.7763-2.7953 0.51506-4.8817-0.22972-6.2175-2.2195-1.5323-2.2825-1.9277-4.4636-4.1535-22.91-1.4659-12.149-1.8911-14.622-3.2204-18.736-2.2452-6.9475-5.6563-12.546-10.435-17.127-8.4804-8.1299-20.248-11.624-32.65-9.6945-16.3 2.5358-31.163 13.766-36.698 27.73-1.1472 2.8938-1.9969 6.3439-3.0263 12.288-1.3104 7.5665-1.3929 7.8499-2.9932 10.287-1.1734 1.787-1.454 2.0849-1.707 1.8125-2.3975-2.581-3.8521-4.3713-5.9469-7.3191-3.256-4.582-5.0578-6.395-7.6144-7.6618-1.6572-0.82118-2.318-1.0088-4.3439-1.2337-4.3185-0.47926-9.0208 0.44491-12.41 2.4391-1.8104 1.0651-4.9011 4.196-5.9863 6.0642-1.8158 3.126-2.6774 7.4258-2.2557 11.258 0.27982 2.5429 0.63136 3.7715 2.3133 8.0848 1.7687 4.536 2.0569 5.8111 1.5741 6.9665-0.61559 1.4733-2.0363 1.9792-9.0696 3.2297-7.0903 1.2606-10.749 2.3543-14.434 4.3146-5.7663 3.0675-9.4154 7.7414-11.552 14.796-1.007 3.3256-1.3031 5.4062-1.2842 9.0264 0.075431 14.492 10.588 26.925 24.885 29.433 1.7773 0.31173 10.416 0.37021 68.713 0.46518 36.674 0.0597 66.734 0.16213 66.799 0.22754 0.22116 0.22115 18.894 0.12036 21.493-0.11602z" fill="#4d4d4d" stroke-width=".23445"/><path d="m30.01 173.01c-0.70922-0.18788-1.9753-0.80812-2.8134-1.3783-1.7486-1.1896-6.7881-6.1567-8.278-8.1592-3.4727-4.6674-4.7995-8.6845-4.5463-13.764 0.4098-8.2228 4.3418-13.728 12.648-17.708 2.624-1.2574 6.4962-2.7832 6.6566-2.6229 0.04619 0.0462-0.41699 0.44341-1.0293 0.88271-5.3693 3.8523-9.3302 8.586-10.934 13.067-0.71032 1.9847-0.72922 2.1431-0.71835 6.024 0.01042 3.7202 0.05495 4.1184 0.66851 5.9786 1.2838 3.8921 3.235 6.8773 6.5073 9.9556 1.8314 1.7229 5.4356 4.2834 7.7668 5.5178 0.60838 0.32215 1.1062 0.67084 1.1062 0.77487 0 0.31413-2.4185 1.2822-3.8768 1.5518-1.6404 0.30325-1.5467 0.30681-3.1567-0.1197z" fill="#4d4d4d" stroke-width=".23445"/><path d="m152.68 125.6-0.53578-0.41232 1.2919-5.8995c2.3651-10.8 2.9459-15.233 2.9424-22.453-3e-3 -5.4386-0.28116-9.5706-0.83759-12.427-1.0612-5.4483-3.5707-10.251-7.9868-15.286-1.7181-1.9589-2.1978-2.6798-2.6521-3.9857-0.30504-0.87686-0.60772-1.7425-0.67262-1.9236-0.0982-0.27405 0.27558-0.30762 2.2274-0.20007 2.6721 0.14724 3.2425 0.37398 5.8699 2.3334 6.3027 4.7003 9.9169 9.8196 11.577 16.398 0.70521 2.7944 0.89877 11.571 0.358 16.232-0.9829 8.472-3.7956 16.607-8.1589 23.599-0.84318 1.351-1.785 2.9039-2.0928 3.451-0.30788 0.54704-0.61253 0.99308-0.677 0.99121-0.0645-2e-3 -0.35833-0.18895-0.65301-0.41573z" fill="#4d4d4d" stroke-width=".23445"/></svg>
