<?xml version="1.0" encoding="UTF-8"?>
<svg enable-background="new 0 0 268.6 245.1" version="1.1" viewBox="0 0 268.6 245.1" xml:space="preserve" xmlns="http://www.w3.org/2000/svg">
<path d="m153.94 54.449c-24.325 0.97851-48.338 20.15-52.838 45.65-0.13462 0.80769-0.47936 1.6528-0.90039 2.4863 0.35813-0.18939 0.7158-0.37968 1.0762-0.56446 0.64782-0.36363 1.2999-0.72444 1.8965-1.1699 0.63244-0.45778 1.2671-0.91292 1.9844-1.2324 0.80525-0.41132 1.5989-0.84649 2.4082-1.25 0.87481-0.4271 1.7607-0.83052 2.6699-1.1797 0.32026-0.11896 0.64114-0.24387 0.96679-0.35156 1.8905-12.814 15.82-31.545 39.898-34.338 23.5-2.7 45.8 12.5 51.9 35.5 5.3954 20.306-4.3371 44.327-21.418 52.314 4e-3 0.0626 7e-3 0.125 0.0117 0.1875 0.0479 0.4445 0.13259 0.87939 0.24414 1.3125 0.10873 0.58401 0.15757 1.1751 0.19727 1.7676 0.0211 0.64231 0.0119 1.2852 0.0273 1.9277 0.0153 0.74707 0.0386 1.4942 0.082 2.2402 0.052 0.83474 0.12715 1.6677 0.18555 2.502 0.0408 0.53648 0.0784 1.0741 0.11328 1.6113 1.2245-1.2389 2.2784-2.3258 3.457-3.0625 18.5-12.3 27.8-29.602 26.6-51.602-1.6-29-24.299-50.799-53.699-52.699-1.6188-0.1-3.2416-0.11602-4.8633-0.05078zm-7.3047 16.98c-0.6016-0.02351-1.1824 0.01992-1.7324 0.16992-9.3 2.7-16.301 8.8004-20.201 17.4-1.087 2.3989-2.4133 4.1942-3.9727 5.543 0.42288-0.05057 0.84355-0.11768 1.2559-0.23047 0.70839-0.19355 1.414-0.4065 2.1387-0.5332 0.7418-0.12816 1.4866-0.22642 2.2383-0.27344 0.80382-0.08072 1.6084-0.14921 2.4082-0.26562 0.77861-0.11206 1.5603-0.22532 2.3476-0.23047 0.11249-7.35e-4 0.22516 0.0019 0.33789 0.0059h1.1406c3.5128-7.1118 8.755-11.832 15.006-15.715 1.9-1.2 3.1012-3.2004 4.7012-4.9004-1.875-0.225-3.8632-0.90017-5.668-0.9707zm-15.18 22.664c-0.85065-0.03179-1.6923 0.0921-2.5312 0.21289-0.81498 0.11893-1.6359 0.18922-2.4551 0.27148-0.72616 0.04513-1.4456 0.13927-2.1621 0.26367-0.6906 0.12212-1.3618 0.32509-2.0371 0.50976-0.91878 0.25634-1.8754 0.29936-2.8184 0.4043-0.16153 0.01345-0.32111 0.03307-0.48047 0.05664-2.2628 1.3788-4.9202 2.0949-7.9688 2.4883 7e-3 -0.08438 0.0274-0.17671 0.0352-0.26172-0.14253 0.05365-0.28385 0.10742-0.42578 0.16016-0.87585 0.33714-1.7294 0.72686-2.5723 1.1387-0.8032 0.40124-1.5893 0.83169-2.3887 1.2402-0.6682 0.29409-1.258 0.72113-1.8457 1.1465-0.62988 0.46995-1.3162 0.85242-2 1.2363-0.65675 0.33764-1.3052 0.69147-1.9629 1.0273-0.26432 0.13182-0.52079 0.2783-0.77539 0.42774-0.68515 0.92333-1.452 1.776-2.2637 2.3848-9.2 7-15.6 15.798-18.9 26.898-0.4 1.2-0.9 2.4016-1.5 4.1016-10.1-9.4-20.9-8.2-31.1-2-12.6 7.7-14.501 19.8-10.301 33.5-3.3 0.9-6.2 1.6-9 2.5-17.6 5.4-28.2 23.099-25.5 42.299 2.2 15.1 20.2 31 36.1 31 51.6 0.1 103.3 7.8e-4 154.9-0.19922 5.9 0 12.001-0.89961 17.801-2.0996 15.6-3.3 26.098-12 28.898-28.4 2-11.3 1.2008-22.501-3.6992-32.801-5.9-12.3-16.201-19.6-29.801-20.5-6.9988-0.47937-14.125 1.0495-22.541 1.9707-0.0806 0.0384-0.16829 0.0491-0.25586 0.0312-0.2755 0.0296-0.52434 0.0695-0.80273 0.0977 0.16468-0.15645 0.26541-0.26702 0.41992-0.41797-0.0645-0.12228-0.11206-0.2765-0.125-0.4668-0.0448-0.65977-0.0884-1.321-0.13867-1.9805-0.0589-0.83919-0.1351-1.676-0.1875-2.5156-0.0444-0.76102-0.0663-1.5231-0.082-2.2852-0.0163-0.63794-6e-3 -1.2763-0.0274-1.9141-0.0389-0.5378-0.0799-1.0753-0.17968-1.6055-0.12063-0.45904-0.20582-0.92508-0.25782-1.3965-0.0376-0.44839-0.0505-0.89791-0.0605-1.3477-2.4006-29.901-14.643-51.63-48.461-55.07 0.0165-0.03674 0.0362-0.06886 0.0527-0.10547zm0.7461 9.5059c19.9 0.7 34.301 14.9 37.201 36.4 1.1 8.3 1.9996 16.601 3.0996 24.801 1.4 10.4 4.2004 12.1 13.9 8.5 10.9-4.1 21.7-4.8008 31.1 3.1992 3.5 3 7.2008 7.1004 8.3008 11.4 1.9 7.4 2.6988 15.4 2.2988 23.1-0.5 10.8-7.3989 17.5-17.299 20.9-9 3.1-18.2 5.4996-29.9 4.0996-45.9 0-93.901-0.20037-141.9 0.0996-17.1 0.1-38.801-20.9-26.801-43.5 3-5.6 7.1016-9.6996 13.102-11.6 4-1.2 7.9996-2.3004 12.1-2.9004 9.2-1.3 10.199-2.8996 6.2988-11.1-6.3-13.3 0.90004-26 15.5-26.9 3.4-0.2 7.5012 1.5012 10.201 3.7012 3.2 2.5 4.9996 6.5988 7.5996 9.7988 0.9 1.2 2.3004 2.0996 3.4004 3.0996 1-1.2 2.2992-2.3988 2.6992-3.7988 0.7-2.7 0.90118-5.6004 1.2012-8.4004 2.8-23.2 24.598-41.8 47.898-40.9z"/>
<path d="m161 20.3c0 4.5 0.1 9 0 13.4-0.1 3.3-0.8 6.7-5 6.7-3.8 0.1-5-3-5.2-6.1-0.5-9.4-0.9-18.9-1.1-28.3-0.1-3.3 1.5-6 5.2-6 3.7-0.1 5.2 2.6 5.4 5.9 0.2 4.8 0.1 9.6 0.1 14.4h0.6z"/>
<path d="m238.6 33.5c-1.4 2.2-2.3 4.2-3.7 5.7-5.9 6.3-11.9 12.4-18 18.6-0.9 0.9-2 2.2-3.1 2.3-1.9 0.2-4.5 0.4-5.8-0.7-1-0.8-0.9-3.8-0.2-5.3 1-2.2 2.9-4 4.6-5.8 5.4-5.8 10.8-11.7 16.5-17.2 1.4-1.3 4.2-1.9 6.2-1.7 1.1 0.2 2.1 2.5 3.5 4.1z"/>
<path d="m249 116.3c-6.3 0-10.9 0.4-15.3-0.2-2.1-0.3-5.3-2.3-5.7-4.1-0.8-3.5 2.4-4.8 5.4-4.9 9.8-0.5 19.6-1 29.4-1 1.9 0 5 2.4 5.5 4.2 0.9 3.4-2.1 4.8-5.2 5.1-5.2 0.4-10.5 0.6-14.1 0.9z"/>
<path d="m107.1 57.2c-1 1.4-1.8 3.5-3 3.7-1.9 0.4-4.6 0.3-6-0.8-3.7-3-7-6.6-10.4-10s-6.9-6.7-10.2-10.2c-2.2-2.3-3.1-5-0.6-7.5 2.4-2.5 5.3-2 7.5 0.2 6.8 6.6 13.5 13.3 20.1 20.1 1.1 1 1.6 2.7 2.6 4.5z"/>
<path d="m64.2 116c-4.8 0-9.6 0.1-14.4-0.1-2.8-0.1-5.9-1.2-5.1-4.5 0.4-1.7 3.2-4 5.1-4.1 9.4-0.5 18.9-0.6 28.4-0.3 2 0.1 5.1 2.4 5.5 4.2 0.8 3.5-2.4 4.7-5.4 4.9-4.6 0.2-9.3 0-13.9 0-0.2 0-0.2 0-0.2-0.1z"/>
<path d="m151.6 182.3c0.5-2 1-3.4 1.2-5 1.3-8.7 3.2-17.3 3.7-26 0.6-10.1-2.5-19.3-10.1-26.7-1.3-1.2-1.5-3.5-2.2-5.3 2 0.3 4.4 0 6 1 7.9 5.1 13.7 12.2 14.5 21.6 1.1 13.5-1.7 26.4-9.4 37.9-0.5 0.7-1 1.4-1.6 1.9-0.4 0.3-0.9 0.2-2.1 0.6z"/>
<path d="m34.6 184.8c-7.5 6-14.6 12.4-13.7 22.6 0.8 9.5 7.3 16.1 16 20.3l-0.3 1.5c-2.4 0.2-5 1.1-7 0.4-10.3-3.5-18-19.1-13.9-29.1 1.7-4.1 5.4-7.7 8.9-10.7 2.8-2.3 6.6-3.4 10-5z"/>
<path d="m182.63 160.55c-0.10736-0.33405-0.28188-2.75-0.38782-5.3688l-0.1926-4.7614 2.607-1.4899c3.1756-1.8149 9.0288-7.4578 11.384-10.975 8.0622-12.041 10.654-27.172 6.9789-40.741-1.177-4.3456-4.9632-12.032-7.7515-15.736-11.296-15.006-30.216-22.224-48.467-18.491-9.6958 1.9834-19.211 7.2459-25.473 14.087-4.7639 5.2055-9.1293 13.048-9.9056 17.795-0.26055 1.5934-0.4492 1.7753-3.0687 2.9594-1.5351 0.69389-3.7922 1.8929-5.0159 2.6644-1.2237 0.77154-2.2706 1.357-2.3265 1.3012-0.0559-0.0559 0.26705-1.6429 0.71768-3.5267 2.6186-10.947 7.6121-19.524 16.071-27.603 8.284-7.913 18.268-13.064 29.709-15.326 1.5073-0.29804 5.4567-0.53129 8.7763-0.51834 21.237 0.08285 40.716 11.931 50.066 30.453 4.1519 8.2245 5.8794 15.794 5.8738 25.736-7e-3 11.963-2.8605 21.485-9.2979 31.025-2.9655 4.3946-8.7273 10.271-13.661 13.933-2.2526 1.6718-4.6235 3.5234-5.2685 4.1145-0.89283 0.81821-1.2195 0.92983-1.3681 0.46748z" fill="#fc0" stroke-width=".43112"/><path d="m233.45 115.79c-0.71135-0.17167-1.709-0.53545-2.2169-0.8084-1.3018-0.69954-3.1722-3.0224-3.1722-3.9396 0-1.4573 1.6335-2.9365 3.7692-3.4133 2.6155-0.58393 29.116-1.5892 31.266-1.1861 2.2336 0.41903 5.0596 3.1355 5.0596 4.8636 0 1.3251-1.1836 2.7438-2.8023 3.359-2.7129 1.031-28.521 1.941-31.903 1.1249z" fill="#fc0" stroke-width=".43112"/><path d="m209.1 59.612c-1.4684-0.77669-1.9287-2.3109-1.3442-4.4814 0.51664-1.9187 5.0775-7.1824 15.76-18.189 5.9693-6.1503 6.9197-6.8477 9.8858-7.2543 1.8814-0.25788 1.9236-0.23551 3.4085 1.8107l1.5035 2.0718-1.5688 2.5321c-0.91286 1.4734-5.8951 6.962-11.916 13.127l-10.347 10.595-2.1556 0.17715c-1.286 0.10568-2.5876-0.05131-3.2263-0.38913z" fill="#fc0" stroke-width=".43112"/><path d="m153.93 39.764c-0.57981-0.29343-1.4341-1.184-1.8984-1.979-1.051-1.7996-1.5724-9.3121-1.7013-24.513l-0.0885-10.44 1.1348-1.1396c1.3424-1.348 4.3079-1.8201 5.9787-0.95179 2.237 1.1626 2.551 2.7046 3.0614 15.033 0.58019 14.015 0.4127 20.355-0.58722 22.227-1.0744 2.0115-3.8001 2.8264-5.8996 1.7639z" fill="#fc0" stroke-width=".43112"/><path d="m99.209 60.36c-2.2523-1.0137-21.967-20.727-22.986-22.983-0.82211-1.8218-0.82256-1.8835-0.02457-3.4212 0.46585-0.89768 1.4862-1.9155 2.3911-2.3851 2.7762-1.4407 3.4825-0.93816 15.391 10.95 10.705 10.687 12.835 13.312 12.327 15.192-0.74714 2.7665-4.076 4.0082-7.0987 2.6477z" fill="#fc0" stroke-width=".43112"/><path d="m59.633 115.79c-11.459-0.23219-12.218-0.29758-13.365-1.1511-2.2611-1.6824-1.6134-4.3644 1.5218-6.3021 1.5323-0.94699 1.9266-0.97486 16.044-1.1342 13.989-0.15787 14.532-0.13328 16.235 0.73567 3.1677 1.616 4.3195 3.9698 2.9202 5.9676-1.3753 1.9634-5.0018 2.256-23.357 1.884z" fill="#fc0" stroke-width=".43112"/><path d="m122.56 92.94c0.63532-0.75504 2.072-3.1569 3.1926-5.3375 2.9661-5.7718 7.8356-10.586 13.604-13.45 4.6423-2.3046 7.4229-2.8154 10.628-1.9523l1.887 0.50812-1.8904 1.9384c-1.0397 1.0661-3.3454 2.963-5.1238 4.2152-4.2896 3.0205-7.8652 6.6456-10.451 10.596l-2.1168 3.2334-4.3864 0.46744c-2.4125 0.25709-4.8614 0.62191-5.442 0.8107l-1.0557 0.34326z" fill="#fc0" stroke-width=".43112"/><path d="m33.843 244.67c-14.003-1.6413-29.094-14.738-32.55-28.248-1.0737-4.198-1.1532-11.342-0.179-16.078 1.5513-7.5423 5.0024-14.019 10.291-19.314 5.3853-5.3911 11.366-8.4203 21.696-10.99 1.761-0.43795 2.2184-0.71799 2.0188-1.2358-0.7419-1.9243-1.5287-6.2819-1.7555-9.7231-0.73865-11.205 4.4708-19.517 15.567-24.838 6.1496-2.9488 11.492-3.6909 16.736-2.3249 3.137 0.81708 5.0836 1.814 8.2957 4.2482l2.5598 1.9399 0.89834-2.4463c0.49409-1.3455 1.4291-3.9328 2.0778-5.7496 1.5004-4.2024 4.464-9.3117 7.9403-13.69 6.4486-8.121 18.834-17.04 24.867-17.907 1.1856-0.17038 3.3197-0.75362 4.7424-1.2961 5.7471-2.1913 12.507-3.0042 18.055-2.1713 12.268 1.8417 21.097 5.772 28.306 12.601 11.213 10.622 15.922 24.281 17.467 50.664l0.29672 5.0657h1.2269c0.67477 0 3.4161-0.30645 6.0918-0.681 14.949-2.0926 22.311-1.3861 30.659 2.9426 2.135 1.107 4.6031 2.9052 6.7162 4.8929 8.5677 8.0599 12.982 19.276 12.964 32.94-0.0255 19.208-7.0405 31.163-21.656 36.907-3.3231 1.3061-6.5308 2.1539-12.393 3.2754-4.2601 0.81502-7.0543 0.88584-47.424 1.202-52.865 0.41404-120.04 0.42123-123.52 0.0132zm166.25-9.4856c5.3812-1.1522 13.664-3.9778 16.65-5.6799 5.0179-2.8605 8.9692-7.5552 10.501-12.477 2.2519-7.2355 0.86571-25.356-2.4667-32.245-1.3908-2.8751-7.5188-9.2156-10.677-11.047-7.6048-4.4105-15.542-4.7097-26.749-1.0083-8.5308 2.8175-10.927 2.6485-12.736-0.89824-1.2454-2.4413-1.4935-3.8527-3.6421-20.722-1.0721-8.4177-2.3494-16.76-2.8386-18.538-1.2218-4.4424-5.1344-12.145-7.8783-15.509-5.0485-6.1902-12.158-10.674-19.93-12.57-4.5211-1.1029-13.295-1.3157-17.8-0.43161-16.02 3.1436-30.438 15.269-35.877 30.172-1.6296 4.4651-2.0454 6.331-2.8387 12.739-0.64634 5.2208-1.3281 7.3664-2.7493 8.6526-0.7382 0.66807-0.8776 0.63243-2.2543-0.5763-0.80708-0.70863-2.599-2.9543-3.9819-4.9904-3.3092-4.872-5.4917-7.0029-8.7337-8.5274-8.2585-3.8834-19.007-0.0664-23.078 8.1955-1.2468 2.5304-1.4317 3.3634-1.5609 7.0341-0.15405 4.3762 0.06652 5.2758 3.3929 13.836 1.7832 4.5892 0.53617 5.7965-7.5056 7.2662-6.2884 1.1493-12.937 3.0605-15.95 4.5853-3.4344 1.738-7.1786 5.8601-9.4573 10.412-5.4655 10.918-4.1255 22.055 3.8114 31.677 4.9196 5.9642 12.957 10.62 19.771 11.452 1.2123 0.14798 37.769 0.23612 81.237 0.19586 78.983-0.0731 79.036-0.0738 83.341-0.99555z" fill="#4d4d4d" stroke-width=".43112"/><path d="m27.6 228.42c-6.8726-3.4248-12.586-13.214-12.662-21.695-0.02925-3.2661 0.11852-3.9877 1.3592-6.6367 2.4276-5.1832 9.8088-11.928 14.662-13.399 0.64111-0.19424-0.37994 1.0738-2.8681 3.562-5.0249 5.0249-6.9556 8.745-7.2849 14.037-0.43311 6.9595 1.5372 11.945 6.7559 17.095 1.8021 1.7784 4.5896 3.9903 6.1945 4.9153 1.6049 0.92502 2.847 1.895 2.7604 2.1556-0.1929 0.58003-2.02 1.0015-4.6364 1.0694-1.3438 0.0349-2.6942-0.31327-4.2803-1.1037z" fill="#4d4d4d" stroke-width=".43112"/><path d="m152.33 180.76c0.73965-2.947 3.735-22.361 4.1516-26.908 1.0381-11.33-1.5602-20.02-8.2563-27.616-1.3896-1.5762-2.7378-3.6264-3.1174-4.7406l-0.66899-1.9634 2.3619 0.19587c2.8446 0.23589 5.6618 2.0153 9.7678 6.1696 5.4687 5.5331 7.6105 10.616 7.9954 18.976 0.55433 12.042-2.5714 24.071-8.64 33.253-2.2476 3.4005-4.1332 4.7822-3.5939 2.6336z" fill="#4d4d4d" stroke-width=".43112"/></svg>
