<?xml version="1.0" encoding="UTF-8"?>
<svg enable-background="new 0 0 238.9 212.5" version="1.1" viewBox="0 0 238.9 212.5" xml:space="preserve" xmlns="http://www.w3.org/2000/svg">
<path d="m35 74.6c-4.4-14.1-2.2-26.2 10.8-33.8 9.8-5.7 19.5-7.2 30.7 2.3 0.7-2.2 1.3-4.2 2-6.1 8.5-25.2 38.3-41.8 64.1-35.7 18.8 4.4 32.6 19.8 35.9 40.4 1.5 9 2.4 18.1 3.7 27.8 2.1-0.6 3.8-1 5.5-1.5 25.6-7.4 47.5 6.8 50.6 33.2 0.7 5.7 0.7 11.7-0.2 17.4-2.6 16.7-11.8 25.9-29 29.4-5.7 1.2-11.5 2.1-17.3 2.1-51.8 0.2-103.6 0.3-155.5 0.2-15.9 0-33.9-16-36-31.1-2.6-19.2 8.1-36.8 25.8-42.2 2.6-0.8 5.4-1.5 8.9-2.4zm145.9 66.7c11.8 1.4 21-1 30-4.1 9.9-3.4 16.9-10.1 17.3-20.9 0.3-7.8-0.6-15.9-2.5-23.6-0.9-4-4.5-7.8-7.8-10.6-9.5-8.2-20.4-7.7-31.5-3.5-9.7 3.6-12.5 1.9-13.9-8.5-1.1-8.2-2-16.5-3.1-24.8-2.7-20.2-15.5-33.8-33.7-36.1-24.3-3-48.4 16.1-51.4 40.6-0.3 2.8-0.5 5.7-1.2 8.4-0.4 1.4-1.7 2.6-2.7 3.8-1.1-1-2.5-1.9-3.4-3.1-2.6-3.2-4.6-7-7.5-9.8-2.1-2-5.4-3.6-8.3-3.8-15.2-0.5-23.9 12.8-17.7 26.6 4.1 9 3.3 10.1-6.6 11.6-3.9 0.6-7.8 1.7-11.6 2.9-6 1.9-10.1 6-13.1 11.6-12 22.7 9.8 43.6 26.8 43.5 48-0.5 96-0.2 141.9-0.2z"/>
<path d="m119 196.5c-0.7 1.7-0.9 3-1.7 3.7-3.9 4-7.8 8.3-12.2 11.7-1.5 1.2-4.7 0.1-7.1 0.1 0-2.3-0.9-5.3 0.3-6.8 3.5-4.4 7.6-8.4 11.8-12.1 1.3-1.1 4.1-1.1 5.9-0.6 1.4 0.5 2.1 2.7 3 4z" fill="#2ad4ff"/>
<path d="m82 190.5c-0.7 1.7-0.9 3-1.7 3.7-3.9 4-7.8 8.3-12.2 11.7-1.5 1.2-5.3 0.9-6.9-0.2-1-0.7-1.1-5 0.1-6.5 3.5-4.4 7.6-8.4 11.8-12.1 1.3-1.1 4.1-1.1 5.9-0.6 1.4 0.5 2.1 2.7 3 4z" fill="#2ad4ff"/>
<path d="m186.1 169.4c-0.8 1.7-1.1 3.2-1.9 4.1-3.8 3.9-7.5 8.1-11.9 11.4-1.6 1.2-4.7 0.3-7.2 0.3 0.1-2.4-0.9-5.6 0.3-7.2 3.3-4.3 7.3-8.2 11.5-11.7 1.3-1.1 4.1-1.2 5.9-0.7 1.4 0.3 2.3 2.4 3.3 3.8z" fill="#2ad4ff"/>
<path d="m145.6 170.2c-0.2 0.6-0.3 1.9-1 2.7-4.2 4.3-8.3 8.6-12.9 12.4-1.3 1-4.9 0.9-6.1-0.2s-1.6-4.9-0.6-6c3.9-4.7 8.1-9.3 12.8-13.2 3.2-2.9 7.7-0.3 7.8 4.3z" fill="#2ad4ff"/>
<path d="m87.7 183.5c-3.9 0-6.5-4-4.1-7.1 4-5 8.7-9.5 13.5-13.8 1-0.9 4.4-0.4 5.8 0.7 1.1 0.9 2 4.4 1.2 5.2-4.8 5.2-10 9.9-15.2 14.8-0.3 0.2-0.9 0.1-1.2 0.2z" fill="#2ad4ff"/>
<path d="m46.6 183.5c-3.9-0.1-6.4-4.1-4-7.1 4-5 8.8-9.5 13.6-13.8 1-0.9 4.2-0.5 5.4 0.4 1.2 1 2.3 4.4 1.7 5.1-4.9 5.3-10.2 10.2-15.4 15.2-0.4 0.2-1 0.1-1.3 0.2z" fill="#2ad4ff"/>
<path d="m152 87.4c1.4-7.1 3.3-13.8 4-20.6 0.6-6.6 0.2-13.3-0.5-19.8-0.8-7.2-5-12.9-10-18-0.9-1-1-2.8-1.4-4.3 1.6 0 3.4-0.6 4.6 0.1 8.8 4.8 14.9 12.3 15.9 22.2 1.3 13.7-1.6 26.8-9.5 38.4-0.5 0.7-1.1 1.3-1.7 1.8-0.2 0.1-0.6 0.1-1.4 0.2z"/>
<path d="m33.349 149.97c-14.668-1.9035-30.042-15.901-32.707-29.779-0.90106-4.6917-0.72638-10.649 0.46312-15.794 2.562-11.082 10.006-20.518 19.907-25.232 2.4448-1.164 6.7141-2.5799 10.853-3.5991 1.5899-0.39153 2.9713-0.78456 3.0698-0.8734 0.0985-0.08884-0.1578-1.4698-0.56956-3.0689-2.1928-8.5155-1.5933-15.332 1.8889-21.476 4.3195-7.6215 16.715-14.369 25.192-13.714 4.3608 0.33725 8.7897 2.1128 12.791 5.128 1.218 0.91778 2.2572 1.626 2.3094 1.5738 0.05219-0.05219 0.75776-2.0489 1.5679-4.4372 3.0171-8.894 6.8994-15.225 13.14-21.429 4.66-4.6324 9.6539-8.1487 15.921-11.21 13.113-6.4054 26.942-7.6 39.467-3.4094 13.77 4.6071 24.399 15.38 29.326 29.724 1.9201 5.5896 2.4498 8.5316 4.6786 25.989 0.77635 6.0806 1.4587 11.103 1.5164 11.16 0.0577 0.05767 2.0093-0.41266 4.337-1.0452 6.8532-1.8623 8.7659-2.1429 14.502-2.1274 4.1512 0.01123 5.4886 0.11462 7.7146 0.59637 17.099 3.7006 27.885 16.978 29.669 36.525 1.0945 11.987-1.1217 23.053-6.124 30.579-4.621 6.9522-12.247 11.458-23.38 13.815-9.5256 2.0161-7.6094 1.9187-41.975 2.1339-41.606 0.26057-131.48 0.2407-133.56-0.0295zm159.99-8.4368c6.7803-0.7375 16.368-3.3296 21.505-5.8142 7.7508-3.7486 12.257-9.5948 13.292-17.243 0.37635-2.7813 0.13977-11.387-0.43067-15.664-0.50037-3.7524-1.5702-9.2431-2.163-11.101-0.67305-2.1093-2.1512-4.3177-4.5754-6.8355-4.1046-4.2631-7.7476-6.7082-12.034-8.0773-6.481-2.0698-12.716-1.665-21.937 1.4242-2.3259 0.77923-4.9352 1.5592-5.7985 1.7332-4.2372 0.85412-6.5168-0.88412-7.8147-5.9588-0.28521-1.1152-1.2914-8.2384-2.236-15.829s-1.8947-14.728-2.1113-15.861c-1.7644-9.2214-5.3216-16.353-11.161-22.375-5.1602-5.3216-11.311-8.6816-18.932-10.342-2.3149-0.50435-3.4903-0.58668-8.3754-0.58668-4.9165 0-6.0566 0.080876-8.4577 0.59995-17.595 3.8038-31.773 16.828-36.584 33.608-0.81084 2.8279-1.1057 4.4621-1.6168 8.961-0.51545 4.5373-1.0059 6.4951-1.915 7.6446-1.7812 2.2523-1.4105 2.1596-3.0463 0.76211-1.3906-1.188-2.1824-2.1774-5.5763-6.9673-3.1577-4.4565-5.27-6.2996-8.8059-7.6836-1.5808-0.61873-2.1346-0.6976-4.6993-0.66929-7.5766 0.08363-13.675 3.6397-16.659 9.7139-1.2947 2.6353-1.731 4.5826-1.7471 7.797-0.01752 3.4987 0.48264 5.7035 2.2724 10.017 2.2591 5.4448 2.4374 7.0486 0.92537 8.321-1.0355 0.87134-2.5952 1.3422-7.125 2.151-7.4484 1.3299-13.552 3.1601-16.701 5.0076-5.0653 2.9718-9.4437 9.255-11.379 16.33-0.51042 1.8658-0.59635 2.8286-0.59565 6.6736 9.779e-4 5.378 0.43078 7.3122 2.643 11.894 3.9611 8.2034 11.58 14.667 20.616 17.491l2.3773 0.74289 61.451-0.0637c33.798-0.0351 67.338 0.0342 74.534 0.15386 19.527 0.32477 20.288 0.32631 22.862 0.0463z" fill="#4d4d4d" stroke-width=".2643"/><path d="m152.24 87.101c0-0.13884 0.59746-2.9639 1.3277-6.278 1.7449-7.9189 2.3052-11.23 2.6667-15.759 0.49833-6.2426-0.21252-17.678-1.3551-21.801-1.0866-3.9203-3.6897-8.233-7.601-12.593-2.0272-2.2599-2.3842-2.9023-2.8337-5.0991l-0.17576-0.85899h1.9916c1.7517 0 2.1602 0.09892 3.3909 0.82117 5.4263 3.1845 9.6322 7.4909 12.104 12.393 2.1379 4.2399 2.6506 6.738 2.8213 13.745 0.25687 10.543-1.3273 17.931-5.7527 26.827-2.5222 5.0702-4.5034 8.0146-5.7249 8.5084-0.47953 0.19386-0.85898 0.23575-0.85898 0.09482z" fill="#4d4d4d" stroke-width=".2643"/></svg>
