<?xml version="1.0" encoding="UTF-8"?>
<svg enable-background="new 0 0 278.4 219" version="1.1" viewBox="0 0 278.4 219" xml:space="preserve" xmlns="http://www.w3.org/2000/svg">
<path d="m191.5 68.2c8.5-0.7 16.2-1.9 23.9-1.8 7.4 0.1 13.6 4 19.3 8.7 1.1 0.9 2.4 2.5 2.3 3.6-0.1 1.9-0.7 4.4-2.1 5.5-1 0.8-4 0.4-5.2-0.5-10.5-9.2-22-9.7-34.5-4.8-8.6 3.4-11.8 1.4-13.2-8-1.4-9.9-2.1-19.9-4-29.7-4.7-24.1-25.2-36.7-48.9-30.7-20 5.2-33.1 20.2-35.5 40.6-0.3 3-1 5.9-1.8 8.8-0.2 0.9-1.4 2.1-2.3 2.1-0.8 0-2-1-2.6-1.8-2-2.8-3.8-5.9-5.9-8.6-5-6.7-10-7.9-18.5-5-7.1 2.5-12.1 8.7-11.6 15.7 0.3 4 1.7 8.1 3.2 11.9 2.1 5.3 0.9 7.8-4.7 8.8-3.6 0.6-7.2 1.3-10.8 2-20.5 4.1-27.8 30.9-11.8 46.8 6.3 6.3 13.8 9.8 23.2 9.7 25-0.3 50-0.1 75 0 3.1 0 7.7-0.9 7.7 3.9 0 4.7-4 5.2-8 5.2-26-0.1-52-0.1-78-0.2-16.4-0.1-34.9-15.7-37-31.1-2.7-19.7 8.3-37.3 26.6-42.6 2.4-0.7 4.8-1.2 7.9-2-4.2-14.7-1.8-27.5 12.8-34.9 9.6-4.9 19.6-5.6 28.9 3.6 0.8-2.6 1.5-4.5 2.1-6.5 8.4-25.1 38.2-41.7 64-35.6 18.8 4.4 32.6 19.7 35.9 40.4 1.5 9 2.5 18.1 3.6 26.5z"/>
<path d="m161.4 87.4c1.4-7.1 3.4-13.8 3.9-20.6 0.6-6.9 0.2-13.9-0.7-20.8-0.9-6.8-5.1-12.1-9.8-17-0.9-1-1-2.8-1.4-4.3 1.6 0 3.5-0.6 4.6 0.1 9.1 5.1 15.3 12.8 16 23.2 0.9 13.1-1.8 25.8-9.4 37-0.5 0.8-1.3 1.5-1.9 2.2-0.1 0.1-0.5 0.1-1.3 0.2z"/>
<path d="m44 90.1c-7.5 6-14.7 12.4-13.7 22.6 0.9 9.4 7.1 16.2 16.2 20.2-0.2 0.6-0.4 1.1-0.6 1.7-2.4 0.2-5 1-7 0.3-10.3-3.5-18-19.1-13.9-29.1 1.7-4.1 5.4-7.7 8.9-10.7 2.9-2.3 6.7-3.4 10.1-5z"/>
<path d="m5.1 183.5c-3.7 0-6.5-3.7-4.4-6.5 4.1-5.3 9.1-10 14.1-14.5 0.9-0.8 4.2-0.3 5.3 0.8 1.2 1 2 4.4 1.3 5.2-4.8 5.2-10 10-15.2 14.8-0.1 0.2-0.8 0.1-1.1 0.2z"/>
<path d="m83.2 190.5c-3.5 0.1-6.6-3.5-4.6-6 4.5-5.6 9.9-10.5 15.2-15.4 0.7-0.6 3.7 0.3 4.8 1.4 1 1.1 1.7 4.1 1 4.9-4.8 5.2-10 10-15.1 14.9-0.4 0.2-1 0.1-1.3 0.2z"/>
<path d="m71 203.3c-0.2 0.6-0.4 1.9-1.1 2.7-4.2 4.2-8.3 8.6-13 12.3-1.3 1-4.9 0.7-6.1-0.4s-1.5-4.9-0.5-6.1c3.9-4.7 8.1-9.3 12.9-13.1 3.3-2.7 7.8 0 7.8 4.6z"/>
<path d="m121.9 196.8c0.3 6-13.3 19.5-17.4 18.4-1.7-0.4-3.9-3.1-4.1-5-0.3-3.9 12.5-16.7 16.2-16.3 2.1 0.2 4.1 2.2 5.3 2.9z"/>
<path d="m40.3 189.4c-3.9 0.2-6.8-3.8-4.4-6.8 4-5.2 8.9-9.8 13.8-14.1 1-0.9 4.4-0.2 5.7 0.9 1.1 0.9 1.8 4.4 1 5.2-4.7 5.1-9.8 9.7-14.8 14.5-0.3 0.3-1 0.3-1.3 0.3z"/>
<path d="m162.4 128.5c-14.6-0.3-29.3-0.5-43.9-0.8-2.6 0-6.7 0.1-8.8-1.7-1.6-1.3-1.3-4.2 0.2-5.4 2.1-1.7 6.8-1.2 9.3-1.1 29.8 0.7 59.7 1.4 89.5 2 9.9 0.2 16.5-8.8 13.5-18-1.9-5.9-7.3-7.5-11.7-3-2.1 2.2-3.4 5.1-4.9 7.8-1 1.9-2.1 4.3-4.4 3-1.3-0.7-2.3-3.3-2.2-5 0.5-7 6.8-14.1 13.5-16 8.2-2.3 16.4 3.3 18.1 12.6 2.6 13.8-6.8 27.9-22.7 27.2-15.2-0.9-30.4-1.3-45.5-1.6z" fill="#4d4d4d"/>
<path d="m209.7 150.4c-14.6-0.3-29.3-0.5-43.9-0.8-2.6 0-6.7 0.1-8.8-1.7-1.6-1.3-1.3-4.2 0.2-5.4 2.1-1.7 6.8-1.2 9.3-1.1 29.8 0.7 59.7 1.4 89.5 2 9.9 0.2 16.5-8.8 13.5-18-1.9-5.9-7.3-7.5-11.7-3-2.1 2.2-3.4 5.1-4.9 7.8-1 1.9-2.1 4.3-4.4 3-1.3-0.7-2.3-3.3-2.2-5 0.5-7 6.8-14.1 13.5-16 8.2-2.3 16.4 3.3 18.1 12.6 2.6 13.8-6.8 27.9-22.7 27.2-15.1-0.8-30.3-1.3-45.5-1.6z" fill="#4d4d4d"/>
<path d="m190.6 165.8c-14.6 0.3-29.3 0.5-43.9 0.8-2.6 0-6.7-0.1-8.8 1.6-1.6 1.3-1.3 4 0.2 5.1 2.1 1.6 6.8 1.1 9.3 1.1 29.8-0.7 59.7-1.3 89.5-1.9 9.9-0.2 16.5 8.4 13.5 17.3-1.9 5.7-7.3 7.2-11.7 2.9-2.1-2.1-3.4-4.9-4.9-7.5-1-1.8-2.1-4.1-4.4-2.9-1.3 0.7-2.3 3.2-2.2 4.8 0.5 6.7 6.8 13.6 13.5 15.3 8.2 2.2 16.4-3.2 18.1-12.1 2.6-13.3-6.8-26.8-22.7-26.1-15.1 0.8-30.3 1.2-45.5 1.6z" fill="#4d4d4d"/>
<path d="m61.56 150.23-19.203-0.15568-2.5977-0.71114c-7.4935-2.0514-13.775-5.8003-19.749-11.786-6.0074-6.0196-9.3429-12.158-10.222-18.812-0.45301-3.4273-0.1736-10.741 0.5264-13.78 2.7194-11.804 9.8865-20.934 20.305-25.866 3.3369-1.5798 4.3305-1.9191 9.5589-3.2649 2.7533-0.70869 4.07-1.1673 4.0373-1.406-0.02669-0.19489-0.38445-1.8252-0.795-3.623-0.65524-2.8692-0.74681-3.8346-0.74924-7.8993-0.0025-3.9298 0.0877-4.9604 0.59504-6.8097 2.2348-8.1459 7.7842-13.849 17.211-17.688 8.7739-3.573 16.759-2.332 23.738 3.6892 0.8496 0.73297 1.6065 1.3327 1.682 1.3327 0.07549 0 0.76947-1.9306 1.5422-4.2901 3.0171-9.2132 7.1532-15.957 13.684-22.311 13.427-13.064 32.986-19.226 49.644-15.642 17.235 3.7082 30.007 15.826 35.376 33.565 1.3054 4.3127 2.8862 14.211 4.7029 29.448l0.47902 4.0177h0.73037c0.4017 0 3.84-0.32536 7.6407-0.72303 8.8591-0.92694 18.15-1.0548 20.938-0.28823 5.2257 1.437 14.569 7.5405 15.901 10.387 0.48796 1.0431 0.19959 3.1761-0.67313 4.9789-0.73212 1.5124-1.9254 2.119-3.6174 1.8389-1.4485-0.2398-1.6868-0.37359-4.5842-2.5733-6.0674-4.6065-13.214-6.6956-20.535-6.0028-3.6696 0.3473-7.2349 1.2107-12.366 2.9948-3.1212 1.0852-4.3076 1.3728-5.6629 1.3728-3.3116 0-4.9052-1.4792-6.1627-5.7202-0.60559-2.0423-0.78164-3.2418-2.1988-14.981-2.3868-19.772-3.6556-25.149-7.5353-31.936-9.3814-16.412-28.084-22.696-47.885-16.091-15.849 5.2871-27.009 17.428-30.751 33.454-0.31485 1.3483-0.81224 4.1091-1.1053 6.135-0.58472 4.042-1.5161 8.1577-2.1089 9.3184-0.20908 0.40945-0.71894 0.91965-1.133 1.1338-1.4135 0.73094-2.2467-0.05949-6.1437-5.8279-3.7634-5.5707-6.3627-8.3245-9.0479-9.5859-1.6604-0.78-2.2157-0.89809-4.6116-0.98072-6.7445-0.23262-13.99 3.3095-17.329 8.4718-3.1989 4.9456-3.0727 10.146 0.47541 19.586 2.5077 6.6723 1.614 8.4815-4.803 9.723-10.598 2.0504-12.621 2.5012-14.501 3.2314-13.722 5.3284-20.067 22.102-13.84 36.587 3.526 8.2016 11.965 15.433 20.872 17.886l2.7044 0.74471 43.037 0.1372c24.699 0.0787 43.211 0.24152 43.446 0.38203 1.744 1.0449 2.4065 2.711 1.9066 4.7947-0.35196 1.4671-1.2388 2.455-2.86 3.1857-1.0225 0.4609-2.5567 0.49187-24.924 0.50311-13.109 7e-3 -32.475-0.0581-43.037-0.14371z" fill="#4d4d4d" stroke-width=".27239"/><path d="m37.144 133.89c-6.6366-3.3322-11.82-11.16-12.934-19.534-0.61325-4.6097 0.33532-8.2629 3.181-12.251 1.573-2.2043 5.5055-6.1079 7.5716-7.5158 1.446-0.98538 6.9533-3.6009 7.1557-3.3984 0.04614 0.04614-1.1348 1.157-2.6242 2.4685-3.4463 3.0346-5.983 6.1878-7.4817 9.3001-1.4876 3.0892-1.8792 4.7828-1.8582 8.0354 0.03837 5.9303 2.3832 11.39 6.735 15.683 2.0546 2.0265 6.1697 4.9097 8.2051 5.7486 0.98683 0.40677 1.174 0.59403 1.0404 1.0408-0.2585 0.86452-0.54219 1.0364-2.07 1.2539-3.3379 0.47519-4.6268 0.32035-6.9208-0.83148z" fill="#4d4d4d" stroke-width=".27239"/><path d="m161.63 86.824c0.25404-0.85474 2.5734-11.587 2.9874-13.824 0.82105-4.4354 1.0657-8.5267 0.91824-15.358-0.31991-14.822-1.708-18.841-9.5492-27.642-1.2358-1.3872-1.6789-2.1282-1.9938-3.334-0.48998-1.8764-0.36984-2.0045 1.8853-2.0105 1.3514-0.0036 1.8172 0.14532 3.3306 1.0647 7.8892 4.7928 12.576 11.164 14.34 19.496 0.54082 2.5533 0.45112 12.621-0.14684 16.479-1.264 8.157-4.069 15.682-8.224 22.063-0.63406 0.97379-1.5377 2.1689-2.0082 2.6558-0.93742 0.97023-1.7727 1.1919-1.5399 0.40858z" fill="#4d4d4d" stroke-width=".27239"/><path d="m204.15 129.8c-9.3848-0.64856-29.479-1.2275-61.151-1.7618-13.258-0.22366-25.425-0.46821-27.037-0.54344-4.9037-0.22888-7.1779-1.5332-7.1228-4.085 0.0326-1.5084 0.85103-2.6623 2.3546-3.3197 1.4151-0.61868 1.9738-0.61611 35.21 0.16178 48.617 1.1379 62.968 1.4156 64.483 1.2479 8.1958-0.90696 13.676-8.6734 11.784-16.7-0.54855-2.3266-1.5082-4.1226-2.8511-5.3358-1.4128-1.2764-2.1003-1.5368-4.057-1.5368-3.4482 0-5.7999 2.115-9.1863 8.2616-3.0588 5.5519-3.814 6.1553-5.6674 4.528-1.2686-1.1138-1.9243-3.0893-1.6892-5.0893 0.67938-5.7804 5.9217-12.227 11.962-14.71 2.2799-0.93722 6.184-1.1624 8.5122-0.49108 5.0294 1.4503 8.9825 5.7798 10.505 11.505 0.80688 3.0348 0.80645 7.7962-1e-3 11.114-1.1647 4.785-4.0594 9.4597-7.6008 12.275-1.9393 1.5414-5.879 3.4705-8.2709 4.0498-2.3118 0.55988-6.0282 0.7171-10.176 0.43047z" fill="#4d4d4d" stroke-width=".27239"/><path d="m251.69 151.71c-2.6583-0.40437-33.885-1.3166-60.334-1.7626-9.7379-0.16421-20.778-0.39459-24.534-0.51195-6.5223-0.20382-6.8969-0.24475-8.3566-0.91301-1.8287-0.83719-2.5208-1.8972-2.3023-3.5261 0.32539-2.426 1.6481-3.2715 5.366-3.4298 1.4232-0.0606 10.861 0.0885 20.974 0.33136 34.703 0.83337 66.876 1.5143 71.657 1.5165 3.6126 2e-3 5.148-0.10531 6.2649-0.43669 5.9338-1.7606 9.8057-6.7744 9.8629-12.772 0.0697-7.3072-4.187-11.895-9.347-10.075-2.5536 0.90097-4.2468 2.8496-7.3341 8.4404-1.0754 1.9476-2.2132 3.8168-2.5284 4.1539-1.7495 1.8711-4.5785-0.8644-4.5572-4.4067 0.0242-4.0366 3.3335-9.7608 7.418-12.831 6.704-5.0395 13.689-4.8374 19.16 0.55415 3.3568 3.3079 5.0125 7.7164 5.0125 13.347 0 6.3984-2.2574 11.946-6.6594 16.365-2.346 2.3552-5.0376 3.986-8.3818 5.0784-2.2843 0.74619-2.9214 0.83325-6.6136 0.90363-2.2472 0.0428-4.3923 0.0313-4.7668-0.0257z" fill="#4d4d4d" stroke-width=".27239"/><path d="m240.8 202.23c-2.8991-0.759-5.7372-2.4622-8.1706-4.9033-4.2595-4.273-6.1845-9.6077-4.6701-12.942 0.59631-1.313 1.7422-2.2939 2.6796-2.2939 0.9737 0 1.8457 1.0905 4.1584 5.2003 3.2721 5.8148 5.6597 7.8559 9.204 7.8683 2.9188 0.0102 5.1221-1.6781 6.3627-4.8754 0.82138-2.117 1.0042-6.1739 0.3768-8.3602-1.4241-4.9624-5.5751-8.467-11.077-9.3523-1.4528-0.23375-12.364-0.0503-63.702 1.071-32.97 0.72011-34.157 0.73018-35.882 0.30431-3.8186-0.94308-4.1626-4.958-0.55132-6.4338 1.5168-0.61986 6.7914-0.83278 30.032-1.2123 21.16-0.34552 34.707-0.69028 49.302-1.2546 20.27-0.78379 20.467-0.78611 23.017-0.26972 11.701 2.37 19.033 13.472 16.756 25.371-1.1913 6.2262-5.6983 11.013-11.534 12.25-2.4116 0.51112-3.8568 0.47272-6.3021-0.16745z" fill="#4d4d4d" stroke-width=".27239"/><path d="m3.4388 183.06c-2.0868-0.76427-3.5735-2.8686-3.2441-4.5918 0.20821-1.0892 3.3874-4.8726 7.837-9.3265 5.1187-5.1237 7.2793-6.9386 8.2576-6.9366 2.2944 5e-3 4.3821 1.4521 4.9273 3.4161 0.64579 2.3261 0.69728 2.2415-4.5329 7.4425-7.0269 6.9877-10.477 10.088-11.403 10.248-0.43228 0.0743-1.261-0.0388-1.8415-0.25145z" fill="#2ad4ff" stroke-width=".27239"/><path d="m37.571 188.54c-0.85425-0.45174-1.3791-0.99145-1.8454-1.8975-0.91677-1.7815-0.67471-2.7062 1.3877-5.3013 1.9262-2.4237 9.0301-9.6051 11.628-11.755 1.7113-1.4162 1.7879-1.4481 3.0957-1.2932 2.9337 0.34745 4.3495 1.657 4.7209 4.3666 0.14654 1.0691 0.06908 1.2395-1.3029 2.8663-0.8023 0.95131-4.2779 4.4104-7.7237 7.6868l-6.2649 5.9572-1.251 7.9e-4c-0.78446 4.9e-4 -1.6962-0.23463-2.4448-0.6305z" fill="#2ad4ff" stroke-width=".27239"/><path d="m52.682 218.56c-0.61286-0.14343-1.3744-0.50307-1.6922-0.79921-0.75695-0.7052-1.2307-2.5255-1.076-4.1348 0.13449-1.3997 0.52752-1.9227 5.7303-7.6254 2.5641-2.8105 7.2326-7.0235 8.5361-7.7033 2.6659-1.3903 6.0006 0.59926 6.5275 3.8945 0.35527 2.2217-0.21343 3.0421-6.111 8.8155-2.9575 2.8952-6.0459 5.7742-6.8631 6.3977-1.6552 1.2628-3.1403 1.6024-5.0516 1.1551z" fill="#2ad4ff" stroke-width=".27239"/><path d="m80.681 189.68c-1.3951-0.69059-2.5052-2.2043-2.5052-3.4162 0-0.66466 0.40771-1.381 1.7024-2.991 1.8441-2.2932 7.5096-8.0462 11.72-11.901 2.554-2.3383 2.6614-2.4037 3.6666-2.2339 1.4808 0.25018 3.0911 1.2329 3.6841 2.2482 0.28071 0.48064 0.57773 1.5265 0.66005 2.324l0.14967 1.4502-15.379 15.1-1.2632-2.2e-4c-0.74005-1.2e-4 -1.7486-0.24048-2.4352-0.58033z" fill="#2ad4ff" stroke-width=".27239"/><path d="m102.89 213.96c-1.5607-1.3738-2.4979-3.2137-2.2662-4.4489 0.59114-3.151 9.3289-12.495 13.806-14.764 2.0743-1.0511 2.8444-0.89598 5.9256 1.1937 1.3686 0.92818 1.4466 1.042 1.3064 1.9056-0.73697 4.5414-8.9807 13.972-14.475 16.559-1.9915 0.93773-2.8231 0.85142-4.297-0.44602z" fill="#2ad4ff" stroke-width=".27239"/><path d="m39.905 149.23c-6.9231-1.9886-12.067-4.8273-17.569-9.6959-5.7447-5.0832-9.7472-10.932-11.631-16.995-0.72837-2.3446-0.74934-2.5928-0.75602-8.9488-0.00662-6.297 0.021239-6.6451 0.75765-9.4696 1.3653-5.2365 3.524-9.8894 6.2839-13.544 5.5977-7.4129 12.369-11.73 22.642-14.434 1.8538-0.48805 4.4672-1.321 4.6994-1.4978 0.03786-0.02883-0.26062-1.4515-0.66331-3.1614-0.66319-2.8162-0.7333-3.6221-0.74435-8.5568l-0.0122-5.4478 0.91361-2.654c2.5494-7.4059 7.9652-12.67 16.644-16.179 3.985-1.6111 6.7092-2.1126 10.473-1.9278 4.6299 0.22723 8.587 1.8236 12.665 5.1094 1.1153 0.89862 2.1377 1.5972 2.2721 1.5524 0.13436-0.04479 0.96542-2.1002 1.8468-4.5675 1.8345-5.1357 3.8813-9.4868 6.0242-12.806 7.236-11.21 20.466-20.52 33.95-23.891 1.5998-0.39995 2.97-0.79304 3.045-0.87354 0.0749-0.080494 0.80702-0.18331 1.6269-0.22848 0.81991-0.04517 1.5554-0.16774 1.6343-0.27239 0.079-0.10464 2.5338-0.23181 5.4552-0.28259 3.8719-0.067302 6.0765 0.024267 8.1338 0.33784 1.5522 0.23659 2.9312 0.36283 3.0644 0.28054 0.13315-0.082294 0.2421-0.043514 0.2421 0.086177s0.86077 0.44239 1.9128 0.69488c6.9728 1.6735 14.539 5.8666 19.946 11.054 7.5446 7.2382 12.301 16.207 14.491 27.328 0.68644 3.4854 2.4205 15.112 2.7653 18.542 0.10211 1.0155 0.29295 1.9126 0.42409 1.9936 0.13113 0.08105 0.16529 0.2657 0.0759 0.41034-0.14286 0.23114 0.17848 3.6369 0.582 6.1686 0.13761 0.86332 0.17521 0.88526 1.5172 0.88526 0.75687 0 3.9076-0.26409 7.0016-0.58686 7.8066-0.81439 19.338-0.88449 21.56-0.13106 5.963 2.0213 14.946 8.346 15.397 10.841 0.26724 1.4762-0.53173 3.9385-1.6364 5.0432-1.6162 1.6162-3.1875 1.249-7.2771-1.7008-7.9747-5.7522-16.627-7.3978-26.232-4.9891-1.1985 0.30055-4.079 1.159-6.4011 1.9078-7.74 2.4956-10.11 1.7032-11.86-3.9657-0.61916-2.0055-2.5213-15.167-2.9911-20.697-0.0881-1.0364-0.27165-2.0929-0.40797-2.3476-0.13632-0.25472-0.18402-0.52698-0.10598-0.60501 0.17141-0.17141-1.0913-8.1259-1.8092-11.397-1.9092-8.7-5.7686-15.599-11.936-21.337-2.1645-2.0138-6.314-4.8852-7.3833-5.1091-0.22116-0.04632-0.55364-0.22408-0.73886-0.39503-0.6115-0.5644-4.4965-2.0494-7.068-2.7018-4.5301-1.1492-7.879-1.3568-15.489-0.96055-1.6347 0.08513-6.9073 1.284-9.7787 2.2235-7.5942 2.4847-14.152 6.5615-19.523 12.138-2.9355 3.0474-6.4817 7.9427-6.0596 8.3648 0.09789 0.09789 0.02773 0.17798-0.15591 0.17798-0.41942 0-3.4014 6.1496-3.1663 6.5299 0.09511 0.1539 0.05754 0.27981-0.08349 0.27981-0.48322 0-2.7 7.8994-2.3677 8.4371 0.08214 0.13291 0.04206 0.30796-0.08908 0.38901-0.13114 0.08105-0.32064 0.85561-0.42112 1.7212-0.31907 2.7489-1.7828 9.5802-2.2782 10.632-0.2624 0.55728-0.82046 1.1778-1.2401 1.3789-1.3047 0.62533-1.9943-0.09753-6.997-7.3341-2.4488-3.5422-6.0139-7.1101-8.0642-8.0704-1.5193-0.7116-1.8168-0.75246-5.421-0.74478-3.5805 0.0076-3.9689 0.0619-6.3581 0.88846-7.9368 2.7458-12.552 8.3343-12.569 15.218-0.0066 2.7427 1.6061 9.898 2.2308 9.898 0.13683 0 0.18173 0.1085 0.09978 0.2411-0.2042 0.3304 0.38007 1.938 0.70436 1.938 0.144 0 0.20242 0.09611 0.12982 0.21358-0.0726 0.11747 0.10403 1.0648 0.39251 2.1051 0.66509 2.3985 0.65923 3.3133-0.02844 4.4413-0.852 1.3975-2.7009 2.0382-10.343 3.5843-7.874 1.5931-10.168 2.278-13.075 3.9028-3.3661 1.8819-9.1208 8.0423-9.5856 10.261-0.04632 0.22115-0.2286 0.55815-0.40506 0.74888-0.4276 0.46217-1.3716 3.0034-2.0515 5.5225-0.87318 3.2354-0.97631 9.1385-0.22366 12.802 0.32315 1.573 0.70313 2.9012 0.84439 2.9514 0.14126 0.0503 0.19711 0.18802 0.12409 0.30616-0.19684 0.31849 1.1238 3.4262 2.3468 5.5224 1.4828 2.5415 3.9735 5.569 6.1569 7.4837 2.1051 1.846 3.8831 3.2128 3.8831 2.985 0-0.0855 0.30332 0.12558 0.67404 0.46916 0.94912 0.87961 5.2963 2.9722 8.0424 3.8712l2.3153 0.75804 32.55 0.20074c58.937 0.36346 54.878 0.29627 55.566 0.91976 0.86704 0.7847 1.3626 1.8729 1.3626 2.9921 0 2.3758-1.5814 4.0557-4.26 4.5255-1.061 0.18608-15.617 0.25144-43.408 0.19491l-41.812-0.085z" fill="#4d4d4d" stroke-width=".27239"/><path d="m204.15 129.8c-9.3782-0.64713-29.364-1.2233-61.151-1.7628-29.605-0.50253-29.518-0.49893-31.496-1.2944-1.9322-0.77713-2.6984-1.7358-2.6638-3.3333 0.0326-1.5084 0.85103-2.6623 2.3546-3.3197 1.415-0.61863 2.0048-0.61595 35.073 0.15956 60.133 1.4102 63.869 1.467 65.929 1.0017 4.858-1.0971 8.5311-4.2856 10.062-8.7343 1.8845-5.4774 0.0834-12.034-3.8649-14.069-1.4988-0.77257-3.8342-0.70019-5.5868 0.17315-2.2883 1.1403-3.8168 3.1236-7.3207 9.4992-1.9768 3.5968-3.1997 4.1994-4.8742 2.4016-4.3287-4.6474 1.7897-15.995 10.57-19.605 2.2799-0.93722 6.184-1.1624 8.5122-0.49108 5.0294 1.4503 8.9825 5.7798 10.505 11.505 0.80212 3.0169 0.80625 7.8008 0.01 11.059-1.711 6.9979-5.8898 12.181-12.119 15.031-3.82 1.7477-7.5297 2.221-13.939 1.7788z" fill="#4d4d4d" stroke-width=".27239"/></svg>
