<?xml version="1.0" encoding="UTF-8"?>
<svg enable-background="new 0 0 268.6 245.1" version="1.1" viewBox="0 0 268.6 245.1" xml:space="preserve" xmlns="http://www.w3.org/2000/svg">
<path d="m151.15 48.184c-20.125 0.75086-39.99 15.462-43.713 35.029-0.11603 0.64571-0.42174 1.3214-0.79297 1.9863 0.50518-0.26627 1.0201-0.51381 1.5391-0.75195 0.64282-0.26778 1.2922-0.52068 1.8984-0.86719 0.61063-0.33718 1.2298-0.65499 1.8652-0.94336 0.66752-0.31157 1.3412-0.60989 2.0156-0.90625 0.5897-0.25337 1.184-0.49842 1.7871-0.71875 1.3723-9.8379 12.929-24.485 33.055-26.65 19.443-2.0718 37.893 9.5912 42.939 27.24 4.4872 15.663-3.6702 34.211-17.939 40.242 0.069 0.0941 0.11401 0.23229 0.11523 0.41602 2e-3 0.19215 3e-3 0.38403 6e-3 0.57617 6e-3 0.31846 0.0149 0.63764 0.043 0.95508 0.0331 0.35619 0.082 0.70962 0.16211 1.0586 0.0908 0.40032 0.17508 0.80285 0.20898 1.2129 0.045 0.41035 0.0682 0.82162 0.0762 1.2344 0.0194 0.42503 0.0442 0.84969 0.0351 1.2754v2.2988c1.1529-1.0738 2.0799-1.9981 3.1445-2.6152 15.306-9.4384 23.001-22.712 22.008-39.594-1.3238-22.253-20.104-38.981-44.428-40.439-1.3393-0.07673-2.6837-0.08912-4.0254-0.03906zm-6.043 13.029c-0.49776-0.01793-0.97855 0.01576-1.4336 0.13086-7.6943 2.0718-13.484 6.7524-16.711 13.352-0.99024 2.0269-2.2343 3.4676-3.6992 4.5312 0.45504-0.07746 0.90594-0.17713 1.3574-0.27344 0.60751-0.13441 1.2142-0.26784 1.8262-0.38086 0.58994-0.12721 1.1804-0.26502 1.7852-0.29688 0.47768-0.01362 0.95582-0.0077 1.4336-0.01758 0.44086-0.0089 0.88218-0.02202 1.3223-0.05078 0.56213-0.03778 1.1243-0.08263 1.6875-0.10156 0.21795-0.0098 0.43608-0.01491 0.6543-0.02344 2.9052-5.6307 7.3098-9.3298 12.578-12.365 1.572-0.92082 2.5649-2.4553 3.8887-3.7598-1.5513-0.17265-3.1962-0.69036-4.6895-0.74414zm-11.162 17.596c-0.41129 0.03335-0.82427 0.038-1.2363 0.05664-0.55762 0.01867-1.1134 0.06414-1.6699 0.10156-0.45194 0.02959-0.90468 0.04353-1.3574 0.05273-0.47557 0.01036-0.95031 0.0036-1.4258 0.01758-0.55771 0.0334-1.1021 0.1638-1.6465 0.28125-0.61057 0.11294-1.218 0.24477-1.8242 0.37891-0.53801 0.11566-1.0751 0.23461-1.6191 0.31836-0.66774 0.0928-1.3244 0.249-1.9785 0.41016-1.5942 0.70753-3.3894 1.1304-5.3984 1.3809-0.51407 0.19371-1.0207 0.40615-1.5254 0.62305-0.66719 0.29333-1.3318 0.58814-1.9922 0.89648-0.61993 0.28101-1.2248 0.59302-1.8203 0.92188-0.63055 0.3603-1.306 0.62383-1.9746 0.90234-0.53391 0.247-1.0654 0.50133-1.584 0.7793-0.38138 0.21251-0.77221 0.40819-1.1562 0.61523-0.56331 0.70062-1.192 1.3458-1.8574 1.8086-7.6116 5.3714-12.906 12.125-15.637 20.643-0.33094 0.92082-0.74383 1.842-1.2402 3.1465-8.3562-7.2131-17.292-6.2927-25.73-1.5352-10.425 5.9086-11.996 15.194-8.5215 25.707-2.7302 0.69063-5.1307 1.2274-7.4473 1.918-14.561 4.1437-23.33 17.726-21.096 32.459 1.8202 11.587 16.712 23.787 29.867 23.787 42.691 0.0767 85.463 1e-3 128.15-0.15235 4.8813 0 9.928-0.69051 14.727-1.6113 12.907-2.5322 21.594-9.2084 23.91-21.793 1.6547-8.6711 0.99342-17.266-3.0605-25.17-4.8813-9.4384-13.402-15.04-24.654-15.73-5.8313-0.37044-11.765 0.82427-18.793 1.5293-0.13318 0.21761-0.37766 0.23674-0.53125 0.0586-0.0696 7e-3 -0.13138 0.0169-0.20117 0.0234 0.0526-0.0463 0.0835-0.0773 0.13477-0.12304-0.0431-0.0882-0.0703-0.20312-0.0703-0.34375v-2.5938c9e-3 -0.41409-0.0162-0.82875-0.0351-1.2422-8e-3 -0.39663-0.0289-0.79128-0.0723-1.1856-0.0306-0.38138-0.10896-0.75481-0.19336-1.127-0.0876-0.38109-0.14299-0.76729-0.17969-1.1562-0.0301-0.33645-0.0389-0.67415-0.0449-1.0117-3e-3 -0.19496-5e-3 -0.39096-6e-3 -0.58594-7.5e-4 -0.1057 0.0158-0.19521 0.041-0.27148-1.7438-23.221-11.59-40.205-39.254-43.184zm-0.77734 7.0898c16.464 0.53714 28.378 11.434 30.777 27.932 0.91008 6.369 1.6544 12.739 2.5645 19.031 1.1583 7.9804 3.4748 9.2839 11.5 6.5215 9.018-3.1461 17.953-3.6818 25.73 2.457 2.8957 2.3021 5.9571 5.4465 6.8672 8.7461 1.572 5.6784 2.2333 11.818 1.9024 17.727-0.41368 8.2874-6.1218 13.428-14.312 16.037-7.4461 2.3788-15.058 4.2208-24.738 3.1465-37.975 0-77.688-0.15407-117.4 0.0762-14.148 0.0767-32.1-16.037-22.172-33.379 2.482-4.2972 5.8738-7.4424 10.838-8.9004 3.3094-0.92082 6.6177-1.7662 10.01-2.2266 7.6115-0.99756 8.4395-2.2253 5.2129-8.5176-5.2123-10.206 0.74502-19.95 12.824-20.641 2.813-0.15347 6.2056 1.1497 8.4395 2.8379 2.6475 1.9184 4.136 5.064 6.2871 7.5195 0.74461 0.92082 1.9024 1.6116 2.8125 2.3789 0.82734-0.92083 1.9034-1.8418 2.2344-2.916 0.57914-2.0718 0.74399-4.2967 0.99219-6.4453 2.3166-17.803 20.354-32.075 39.631-31.385z" stroke-width=".79678"/>
<path d="m156.99 21.978c0 3.4531 0.0827 6.9062 0 10.283-0.0827 2.5323-0.66187 5.1413-4.1367 5.1413-3.1439 0.07674-4.1367-2.3021-4.3022-4.6808-0.41368-7.2131-0.74461-14.503-0.91009-21.716-0.0827-2.5323 1.241-4.6041 4.3022-4.6041 3.0612-0.076735 4.3022 1.9951 4.4676 4.5274 0.16548 3.6833 0.0827 7.3666 0.0827 11.05h0.4964z" stroke-width=".79678"/>
<path d="m221.2 32.108c-1.1583 1.6882-1.9029 3.2229-3.0612 4.3739-4.8813 4.8343-9.8454 9.5152-14.892 14.273-0.74461 0.69062-1.6547 1.6882-2.5648 1.7649-1.572 0.15347-3.723 0.30694-4.7986-0.53715-0.82734-0.61388-0.74461-2.9159-0.16546-4.067 0.82734-1.6882 2.3993-3.0694 3.8058-4.4506 4.4677-4.4506 8.9353-8.978 13.651-13.198 1.1583-0.99756 3.4748-1.458 5.1295-1.3045 0.91007 0.15347 1.7374 1.9184 2.8957 3.1461z" stroke-width=".79678"/>
<path d="m229.8 95.644c-5.2123 0-9.0181 0.30694-12.658-0.15347-1.7374-0.23021-4.3849-1.7649-4.7159-3.1461-0.66188-2.6857 1.9856-3.6833 4.4676-3.76 8.108-0.38368 16.216-0.76735 24.324-0.76735 1.572 0 4.1367 1.8416 4.5504 3.2229 0.74461 2.609-1.7374 3.6833-4.3022 3.9135-4.3022 0.30694-8.6871 0.46041-11.666 0.69062z" stroke-width=".79678"/>
<path d="m112.4 50.294c-0.82734 1.0743-1.4892 2.6857-2.482 2.8392-1.572 0.30694-3.8058 0.2302-4.9641-0.61388-3.0612-2.3021-5.7914-5.0645-8.6044-7.6735-2.813-2.609-5.7087-5.1413-8.4389-7.827-1.8202-1.7649-2.5648-3.8368-0.49641-5.7551 1.9856-1.9184 4.3849-1.5347 6.2051 0.15347 5.6259 5.0645 11.169 10.206 16.63 15.424 0.91007 0.76735 1.3238 2.0719 2.1511 3.4531z" stroke-width=".79678"/>
<path d="m76.908 95.414c-3.9713 0-7.9425 0.07674-11.914-0.07673-2.3166-0.07674-4.8813-0.92082-4.2195-3.4531 0.33094-1.3045 2.6475-3.0694 4.2195-3.1461 7.777-0.38368 15.637-0.46041 23.497-0.23021 1.6547 0.07673 4.2195 1.8416 4.5504 3.2229 0.66188 2.6857-1.9856 3.6066-4.4677 3.76-3.8058 0.15347-7.6943 0-11.5 0-0.16547 0-0.16547 0-0.16547-0.07674z" stroke-width=".79678"/>
<path d="m149.22 146.29c0.41368-1.5347 0.82735-2.609 0.99282-3.8368 1.0756-6.676 2.6475-13.275 3.0612-19.951 0.4964-7.7503-2.0684-14.81-8.3562-20.488-1.0756-0.92082-1.241-2.6857-1.8202-4.067 1.6547 0.23021 3.6403 0 4.9641 0.76735 6.536 3.9135 11.335 9.3617 11.996 16.575 0.91008 10.359-1.4065 20.258-7.777 29.083-0.41367 0.53714-0.82735 1.0743-1.3238 1.458-0.33094 0.2302-0.74461 0.15347-1.7374 0.46041z" stroke-width=".79678"/>
<path d="m52.419 148.21c-6.2051 4.6041-12.079 9.5152-11.335 17.342 0.66188 7.2898 6.0396 12.354 13.238 15.577-0.08273 0.38368-0.16547 0.76735-0.2482 1.151-1.9856 0.15347-4.1367 0.84409-5.7914 0.30694-8.5216-2.6857-14.892-14.656-11.5-22.33 1.4065-3.1462 4.4677-5.9086 7.3634-8.2107 2.3166-1.7649 5.4605-2.609 8.2734-3.8368z" stroke-width=".79678"/>
<path d="m123.62 225.42c-0.57914 1.3045-0.74461 2.3021-1.4065 2.8392-3.2266 3.0694-6.4533 6.369-10.094 8.978-1.241 0.92083-3.8885 0.0767-5.8741 0.0767 0-1.7649-0.74461-4.067 0.24821-5.218 2.8957-3.3764 6.2878-6.4458 9.7627-9.285 1.0756-0.8441 3.3921-0.8441 4.8813-0.46042 1.1583 0.38368 1.7374 2.0718 2.482 3.0694z" fill="#5fbcd3" stroke-width=".79678"/><path d="m93.007 220.81c-0.57914 1.3045-0.74461 2.3021-1.4065 2.8392-3.2266 3.0694-6.4533 6.369-10.094 8.978-1.241 0.92083-4.3849 0.69063-5.7087-0.15347-0.82734-0.53714-0.91008-3.8368 0.08273-4.9878 2.8957-3.3764 6.2878-6.4458 9.7627-9.285 1.0755-0.84409 3.3921-0.84409 4.8813-0.46041 1.1583 0.38367 1.7374 2.0718 2.482 3.0694z" fill="#5fbcd3" stroke-width=".79678"/><path d="m179.13 204.62c-0.66188 1.3045-0.91008 2.4555-1.572 3.1462-3.1439 2.9927-6.2051 6.2156-9.8454 8.7478-1.3238 0.92082-3.8885 0.2302-5.9569 0.2302 0.0827-1.8416-0.74461-4.2972 0.2482-5.5249 2.7302-3.2996 6.0396-6.2923 9.5145-8.978 1.0755-0.84408 3.3921-0.92082 4.8813-0.53714 1.1583 0.2302 1.9029 1.8416 2.7302 2.9159z" fill="#5fbcd3" stroke-width=".79678"/><path d="m145.63 205.24c-0.16547 0.46042-0.2482 1.458-0.82734 2.0718-3.4748 3.2996-6.867 6.5992-10.673 9.5152-1.0756 0.76735-4.054 0.69061-5.0468-0.15347-0.99282-0.8441-1.3238-3.76-0.49641-4.6041 3.2266-3.6066 6.7015-7.1364 10.59-10.129 2.6475-2.2253 6.3706-0.2302 6.4533 3.2996z" fill="#5fbcd3" stroke-width=".79678"/><path d="m97.723 215.44c-3.2266 0-5.3777-3.0694-3.3921-5.4482 3.3094-3.8368 7.1979-7.2898 11.169-10.589 0.82735-0.69062 3.6403-0.30695 4.7986 0.53714 0.91008 0.69062 1.6547 3.3764 0.99281 3.9902-3.9712 3.9902-8.2734 7.5968-12.576 11.357-0.2482 0.15347-0.74461 0.0767-0.99281 0.15347z" fill="#5fbcd3" stroke-width=".79678"/><path d="m63.719 215.44c-3.2266-0.0767-5.295-3.1461-3.3094-5.4482 3.3094-3.8368 7.2806-7.2898 11.252-10.589 0.82734-0.69062 3.4748-0.38368 4.4677 0.30694 0.99281 0.76735 1.9029 3.3763 1.4065 3.9135-4.054 4.067-8.4389 7.827-12.741 11.664-0.33094 0.15347-0.82734 0.0767-1.0755 0.15347z" fill="#5fbcd3" stroke-width=".79678"/><path d="m174.58 127.97c-0.10489-1.3057-0.27893-3.2078-0.38678-4.2268l-0.19607-1.8528 1.0001-0.41426c2.0673-0.85632 5.7099-3.5076 7.9933-5.818 7.1212-7.2054 10.678-17.303 9.923-28.169-0.96341-13.859-11.953-26.787-26.767-31.49-4.9053-1.5572-8.4582-1.9985-14.445-1.7942-5.3764 0.18351-7.3164 0.49617-11.772 1.8973-11.448 3.5997-21.424 13.119-23.916 22.821-0.25423 0.98947-0.49863 1.8283-0.54311 1.864-0.38462 0.30889-7.9798 3.7822-8.071 3.691-0.0657-0.06567 0.16853-1.2471 0.52046-2.6255 1.9884-7.7877 5.6672-13.94 11.959-20 10.094-9.7225 24.336-14.725 37.715-13.247 21.653 2.3911 37.974 16.498 41.336 35.728 0.64005 3.6604 0.64343 10.759 7e-3 14.335-2.049 11.511-8.2559 20.44-19.624 28.232-1.7809 1.2206-3.5311 2.4947-3.8895 2.8313l-0.65154 0.61209-0.1907-2.3741z" fill="#fc0" stroke-width=".30485"/><path d="m125.51 77.251c0.67296-0.90639 1.6594-2.4799 2.192-3.4967 2.7674-5.2828 8.0423-9.59 14.357-11.723 1.9554-0.66059 4.4558-0.6993 6.6532-0.10302 0.68897 0.18696 0.67205 0.22997-0.60971 1.5491-0.72509 0.74624-2.6766 2.2567-4.3368 3.3566-3.8819 2.5718-7.1593 5.6981-9.1048 8.6852-0.84927 1.3039-1.6242 2.374-1.722 2.3779-1.696 0.06883-7.3773 0.63776-7.9211 0.79322-0.67331 0.19247-0.63407 0.0777 0.4919-1.4388z" fill="#fc0" stroke-width=".30485"/><path d="m106.29 52.884c-1.2347-0.37023-2.852-1.6996-9.1343-7.5084-9.2465-8.5496-10.252-9.5709-10.615-10.784-0.39975-1.3342 0.1427-2.6452 1.482-3.5814 2.2249-1.5554 3.81-1.012 7.8545 2.6927 10.78 9.8742 14.861 13.87 15.546 15.223l0.7279 1.4364-0.76626 1.1277c-1.1038 1.6244-2.7885 2.0851-5.0951 1.3935z" fill="#fc0" stroke-width=".30485"/><path d="m63.025 94.83c-1.6301-0.58169-2.0549-1.0264-2.0549-2.1517 0-1.2505 0.9209-2.4302 2.5438-3.2587 1.2085-0.61696 1.7997-0.65335 12.851-0.79097 12.98-0.16164 13.47-0.10684 15.394 1.7239 1.9714 1.8754 1.4403 3.8458-1.2441 4.6157-1.6909 0.48495-26.088 0.36234-27.49-0.13816z" fill="#fc0" stroke-width=".30485"/><path d="m151.68 37.135c-1.1436-0.3161-1.9456-1.0544-2.4123-2.2206-0.51106-1.2773-0.93898-7.4327-1.2936-18.609-0.18509-5.8323-0.15087-6.6687 0.30931-7.5585 1.4951-2.8911 5.8385-2.889 7.4034 0.00365 0.45735 0.84539 0.558 1.9446 0.63625 6.9488 0.0544 3.4771 0.23056 6.2191 0.42445 6.606 0.21842 0.4358 0.28356 2.5155 0.19097 6.097-0.15249 5.8983-0.46087 7.2527-1.8601 8.1695-0.83451 0.5468-2.4741 0.81837-3.3984 0.5629z" fill="#fc0" stroke-width=".30485"/><path d="m197.09 52.262c-1.7799-0.53068-2.1587-2.1458-1.0435-4.4495 0.79175-1.6355 16.517-17.157 18.195-17.958 0.62651-0.2994 1.8341-0.60342 2.6835-0.6756 1.5319-0.13016 1.5545-0.11908 2.8007 1.3693l1.2563 1.5005-1.1452 1.8097c-0.99375 1.5704-10.195 10.78-16.713 16.729-2.0094 1.8338-3.8176 2.3358-6.034 1.6749z" fill="#fc0" stroke-width=".30485"/><path d="m216.97 95.238c-3.3384-0.7861-5.3713-3.2077-4.0959-4.8791 1.1775-1.5429 3.5957-1.8065 20.951-2.2833 7.519-0.20658 7.8178-0.19248 9.031 0.42645 1.598 0.81524 2.8557 2.3041 2.8557 3.3807 0 0.94984-0.92085 1.948-2.2864 2.4782-2.1965 0.85298-23.551 1.5608-26.456 0.87695z" fill="#fc0" stroke-width=".30485"/><path d="m50.335 194.01c-10.739-1.8363-21.964-11.017-25.236-20.64-1.1261-3.3117-1.3271-8.7519-0.47518-12.866 1.153-5.568 3.8328-10.543 7.8095-14.499 4.463-4.4398 8.9815-6.7482 16.953-8.6607 1.5928-0.38217 3.0126-0.80029 3.155-0.92915 0.14241-0.12886-0.03018-1.4087-0.38352-2.844-2.6898-10.926 0.92809-18.685 11.037-23.668 8.2269-4.0553 15.736-3.6403 22.214 1.2278 1.8768 1.4102 1.6155 1.6435 3.3279-2.9725 2.651-7.1461 6.4295-12.512 12.017-17.064 1.509-1.2296 3.3898-2.7887 4.1796-3.4648 1.7684-1.5138 9.5657-5.3247 11.835-5.7843 0.91683-0.18566 2.4901-0.59404 3.4961-0.90752s3.3381-0.86823 5.1825-1.2328c2.8471-0.56277 4.0207-0.63842 7.7737-0.5011 6.4326 0.23538 11.852 1.5699 17.643 4.3442 14.683 7.035 21.513 20.287 22.497 43.65l0.19569 4.645 1.0956-0.15565c9.2824-1.3188 16.058-1.7878 19.798-1.3705 9.5228 1.0625 17.104 5.652 21.811 13.204 4.8352 7.7578 6.3752 17.105 4.4561 27.047-2.3244 12.042-9.9942 19.156-23.63 21.918-8.6944 1.761-4.0496 1.6571-77.585 1.7346-40.127 0.0423-68.191-0.0428-69.167-0.20966zm138.87-7.1125c5.1338-1.0737 10.462-2.7354 13.451-4.1948 4.619-2.2552 8.2236-6.363 9.4095-10.723 1.4724-5.4131 0.22449-18.625-2.2352-23.665-1.07-2.1925-5.044-6.1548-8.0198-7.9963-1.2575-0.77817-3.3838-1.798-4.7252-2.2663-2.2853-0.79784-2.7458-0.85065-7.3164-0.83918-5.1921 0.013-5.4265 0.0558-13.261 2.4179-4.3921 1.3242-6.8734 0.97788-8.176-1.1412-0.98809-1.6074-1.4611-4.0413-2.9487-15.174-0.77299-5.7845-1.6688-11.643-1.9907-13.019-2.7594-11.797-11.07-20.494-22.4-23.442-4.1895-1.0902-10.891-1.346-15.42-0.58876-12.286 2.0544-23.24 9.7776-28.725 20.255-1.8341 3.5029-2.8749 6.9574-3.5908 11.918-0.70571 4.8899-0.93025 5.6536-2.0598 7.0067l-0.85987 1.03-1.3045-1.046c-0.71748-0.57532-2.3312-2.4538-3.5861-4.1745-2.6279-3.6032-4.0125-4.8406-6.9599-6.2199-1.7362-0.81249-2.5727-1.0093-4.7079-1.1076-7.3724-0.33958-13.806 3.7739-15.385 9.8371-0.94614 3.6325-0.47988 6.7825 1.7078 11.538 2.5825 5.6138 2.0701 6.3051-5.6776 7.6599-11.305 1.9769-14.862 3.5737-18.845 8.461-1.5476 1.8989-3.1167 4.9365-3.9055 7.5605-0.81265 2.7032-0.95204 7.1365-0.30673 9.7552 1.9658 7.9775 8.9877 14.946 18.171 18.031l2.134 0.71706 61.732 0.17588c74.06 0.21101 70.985 0.24205 75.801-0.76515z" fill="#4d4d4d" stroke-width=".30485"/><path d="m48.624 182.47c-2.0169-0.50111-4.3446-2.0122-6.5543-4.2549-4.0311-4.0914-5.8856-8.2085-5.9228-13.149-0.02009-2.6715 0.05557-3.059 0.95246-4.8776 1.8944-3.8413 6.7392-8.2961 10.911-10.033 1.2921-0.5379 2.4015-0.92577 2.4653-0.86194 0.06384 0.0638-0.56762 0.63746-1.4032 1.2747-2.4357 1.8575-5.6867 5.5437-6.6943 7.5905-2.0159 4.095-1.9497 8.6292 0.18996 13.01 1.4845 3.0396 4.72 6.2506 8.5744 8.5095 1.5488 0.9077 2.8161 1.8253 2.8161 2.0391 0 0.23371-0.57739 0.46474-1.448 0.57941-0.79642 0.1049-1.791 0.23779-2.2102 0.29531-0.41917 0.0575-1.1737 2e-3 -1.6767-0.12263z" fill="#4d4d4d" stroke-width=".30485"/><path d="m149.8 145.03c0.48642-2.1732 2.7076-14.589 3.0949-17.3 0.23956-1.6767 0.43711-4.7633 0.43901-6.8591 7e-3 -7.3504-2.0257-12.482-7.0776-17.871-1.2756-1.3607-2.1297-2.5859-2.4332-3.4905l-0.46764-1.3938 1.7159 0.13007c2.1865 0.16575 3.7389 0.93199 6.6775 3.296 3.7585 3.0236 6.2275 6.4091 7.427 10.184 0.91344 2.8745 1.115 9.377 0.43405 14.001-1.0121 6.872-4.0059 14.111-7.8576 18.999-1.1131 1.4128-2.2397 1.5887-1.9524 0.30486z" fill="#4d4d4d" stroke-width=".30485"/></svg>
