<?xml version="1.0" encoding="UTF-8"?>
<svg enable-background="new 0 0 285.1 188.5" version="1.1" viewBox="0 0 285.1 188.5" xml:space="preserve" xmlns="http://www.w3.org/2000/svg">
<path d="m199.44 2.8164c-0.58288 0.00695-1.1557 0.053831-1.709 0.14648-19.759 3.3355-32.799 14.231-40.07 31.502-0.54896 1.2871-1.0449 2.638-1.5781 4.1191 0.16191 0.12641 0.32686 0.24836 0.49609 0.36524 0.22327 0.13022 0.44275 0.26669 0.65235 0.41797 0.26578 0.19804 0.51222 0.41804 0.75 0.64844 0.24127 0.24816 0.45253 0.52412 0.66992 0.79297 0.21229 0.25426 0.4111 0.51941 0.61914 0.77734 0.18739 0.25851 0.38282 0.50709 0.58985 0.75 0.15956 0.17953 0.31856 0.36568 0.5039 0.51953 0.19477 0.18359 0.39423 0.3581 0.60938 0.51758 0.27775 0.21432 0.54757 0.43858 0.78906 0.69336 0.0302 0.03564 0.0596 0.07176 0.0898 0.10742-0.0109-0.36071 8e-3 -0.71515 0.0762-1.0371 3.6356-15.788 13.515-26.684 29.639-33.281-3.0824 4.5956-6.324 8.5235-8.3789 13.119-8.2197 17.345-2.45 38.025 14.068 51.59 10.828 8.8948 23.474 13.344 37.938 13.195h3.9512c-2.292 1.5566-3.5551 2.9637-5.2148 3.5566-5.5325 2.1496-11.224 4.1506-16.914 5.8555-0.65058 0.20339-1.8747-0.13263-2.7715-0.64062 0.13922 0.22907 0.28177 0.45631 0.41406 0.68945 0.16866 0.33452 0.30033 0.6841 0.41407 1.041 0.12135 0.36692 0.23354 0.7362 0.36523 1.0996 0.11764 0.3158 0.22559 0.6347 0.33008 0.95508 0.13494 0.41623 0.26704 0.83198 0.41992 1.2422 0.12998 0.36661 0.25623 0.73506 0.38086 1.1035 0.10024 0.28279 0.19669 0.56759 0.24219 0.86523 0.0257 0.1674 0.0476 0.33574 0.0703 0.50391 0.9934-0.2058 1.9561-0.44304 2.9004-0.63281 7.9826-1.4825 15.413-4.3733 21.814-9.1172 3.7147-2.7426 7.0348-6.0024 10.117-9.3379 1.0274-1.1118 1.6586-3.7806 0.94727-4.8184-0.71132-1.0377-3.3189-0.88905-5.1367-1.1855-0.47421-0.07412-1.0278 0.22089-1.502 0.36914-20.154 4.7439-36.909-0.81581-49.871-15.492-15.412-17.271-13.12-42.398 8.2988-54.184 0.47421-0.29649 0.86849-0.51806 1.2637-0.88867 2.213-2.0013 1.897-4.2258-1.0273-5.1152-1.6597-0.50033-3.4974-0.83335-5.2461-0.8125zm-68.662 28.104c-5.0658 0.12051-10.23 1.2237-15.48 3.248-13.91 5.3369-23.553 14.602-27.109 28.834-8.3777-6.3005-14.384-6.5977-23.631-2.0762-11.144 5.411-12.726 14.826-9.4062 25.426-2.6872 0.59299-4.8211 1.1101-6.9551 1.7031-13.989 4.0026-22.367 16.975-20.312 31.281 1.6597 11.193 15.887 23.127 28.453 23.127 41.098 0.0741 82.197-2e-4 123.29-0.14844 4.584 0 9.1688-0.74138 13.674-1.6309 14.542-2.9649 21.894-11.045 23-24.98 0.30526-3.579 0.0989-7.1749 0.084-11.154-0.0226-0.0511-0.0406-0.11035-0.0508-0.17969-0.0366-0.25018-0.0688-0.50207-0.10742-0.75195-0.0404-0.26116-0.12479-0.51167-0.21289-0.75977-0.1247-0.36847-0.25279-0.73493-0.38281-1.1016-0.1546-0.41521-0.28718-0.83852-0.42383-1.2598-0.10179-0.31243-0.20754-0.62175-0.32227-0.92968-0.13461-0.37005-0.24931-0.74734-0.37305-1.1211-0.10553-0.32891-0.22433-0.65089-0.38085-0.95898-0.19585-0.33776-0.40876-0.66624-0.60157-1.0059-0.23862-0.42186-0.4715-0.84737-0.6875-1.2812-0.034-0.06831-0.0513-0.13132-0.0605-0.18945-8.9031-13.334-21.453-17.836-37.738-13.254-0.86939 0.29649-1.7377 0.51806-3.3184 0.88867-0.63229-4.7439-1.3432-9.3399-1.8965-13.936-0.86939-7.7829-2.5303-15.343-7.1934-22.088-0.12777-0.15978-0.22119-0.35637-0.31836-0.54883-0.1858-0.21785-0.36648-0.43961-0.53906-0.66797-0.19464-0.26831-0.4131-0.51894-0.625-0.77344-0.20333-0.22246-0.44497-0.40396-0.67969-0.5918-0.22847-0.17081-0.44415-0.35572-0.65039-0.55273-0.21631-0.18628-0.41161-0.39703-0.59765-0.61328-0.21174-0.24857-0.41432-0.50274-0.60547-0.76758-0.20781-0.25772-0.40484-0.5216-0.61719-0.77539-0.19633-0.24293-0.3867-0.4918-0.60156-0.71875-0.20957-0.20334-0.4278-0.39738-0.66211-0.57227-0.20319-0.14895-0.41967-0.27741-0.63477-0.4082-0.20555-0.14196-0.41154-0.28627-0.59961-0.45117-0.1446-0.1268-0.23221-0.26202-0.27343-0.38672v-2e-3c-7.8438-5.5431-16.014-8.0719-24.457-7.8711zm0.91407 6.8691c2.1259 0.02229 4.2341 0.24226 6.2891 0.67774 12.883 2.6684 21.655 12.453 23.631 26.166 0.86939 6.3746 1.5809 12.748 2.5293 19.123 1.0275 6.8934 3.5575 8.3015 10.434 5.8555 8.7729-3.1132 17.387-3.9277 24.975 2.1504 2.9243 2.3719 5.8475 5.6333 6.875 9.043 1.5017 5.1145 1.8973 10.675 1.6602 16.012-0.47421 8.3018-5.8487 13.416-14.068 16.084-7.5084 2.4461-15.175 3.41-23.236 3.2617-17.862-0.37062-35.802-0.14844-53.664-0.14844v-0.22265c-19.522 0-38.965 0.0742-58.486 0.0742-17.941-0.0741-29.322-17.863-21.023-32.688 3.8727-6.9676 10.827-8.8961 18.256-10.082 9.2471-1.4825 9.3272-1.4828 5.8496-9.3398-4.426-10.303 3.1614-20.161 15.096-18.975 6.0857 0.51886 8.2205 5.5596 11.461 9.3398 0.86939 1.0377 1.9754 2.0013 2.9238 3.0391 0.86939-1.3342 2.1341-2.6699 2.5293-4.1523 1.0275-4.225 1.343-8.5971 2.7656-12.674 4.5643-13.166 20.324-22.701 35.205-22.545z" stroke-width=".7654"/>
<path d="m147.78 95.69c1.1065-5.0404 2.5291-10.007 3.0824-15.047 0.55324-4.225 0.39517-8.5983 0-12.897-0.55325-5.7075-3.3195-10.526-7.6664-14.602-0.94843-0.88948-1.1855-2.4461-1.7388-3.7062 1.5807 0.14825 3.4776-0.22237 4.6631 0.44474 6.4019 3.7803 11.065 9.1172 11.618 16.307 0.79035 10.007-1.3436 19.569-7.5084 28.093-0.47421 0.66711-0.86939 1.4825-1.3436 2.2237-0.31614-0.29649-0.71132-0.59299-1.1065-0.81536z" stroke-width=".7654"/>
<path d="m57.364 129.94c-4.1098 2.372-6.8761 1.4825-9.4052-0.59298-5.3744-4.4474-9.9585-9.3395-9.01-16.678 1.1065-8.9689 8.4568-12.008 16.36-14.454-6.0067 4.0027-11.618 8.5983-11.144 16.011 0.47421 7.2641 5.6906 12.156 13.199 15.714z" stroke-width=".7654"/>
<path d="m120.27 172.31c-0.55325 1.2601-0.71132 2.2237-1.3436 2.7426-3.0824 2.9649-6.1648 6.1522-9.6423 8.6724-1.1855 0.88948-3.7147 0.0741-5.6115 0.0741 0-1.7048-0.71131-3.9285 0.23711-5.0404 2.7662-3.2614 6.0067-6.2264 9.3262-8.9689 1.0275-0.81535 3.2405-0.81535 4.6631-0.44474 1.1065 0.37062 1.6598 2.0013 2.3711 2.9649z" fill="#37abc8" stroke-width=".7654"/><path d="m91.024 167.87c-0.55325 1.2601-0.71132 2.2237-1.3436 2.7426-3.0824 2.9649-6.1648 6.1522-9.6423 8.6724-1.1855 0.88948-4.1889 0.66711-5.4534-0.14825-0.79036-0.51886-0.86939-3.7062 0.07903-4.818 2.7662-3.2614 6.0067-6.2264 9.3262-8.9689 1.0275-0.81536 3.2405-0.81536 4.6631-0.44474 1.1065 0.37061 1.6597 2.0013 2.3711 2.9649z" fill="#37abc8" stroke-width=".7654"/><path d="m173.3 152.22c-0.63228 1.2601-0.86939 2.372-1.5017 3.0391-3.0034 2.8908-5.9277 6.004-9.4052 8.45-1.2646 0.88947-3.7147 0.22237-5.6906 0.22237 0.079-1.779-0.71132-4.1509 0.23711-5.3369 2.6082-3.1873 5.7696-6.0781 9.0891-8.6724 1.0275-0.81535 3.2404-0.88948 4.6631-0.51886 1.1065 0.22237 1.8178 1.779 2.6082 2.8167z" fill="#37abc8" stroke-width=".7654"/><path d="m141.29 152.82c-0.15808 0.44474-0.23711 1.4083-0.79036 2.0013-3.3195 3.1873-6.5599 6.3746-10.196 9.1913-1.0275 0.74123-3.8727 0.66711-4.8212-0.14825-0.94842-0.81535-1.2646-3.632-0.47421-4.4474 3.0824-3.4838 6.4019-6.8935 10.117-9.7843 2.5291-2.1496 6.0857-0.22237 6.1648 3.1873z" fill="#37abc8" stroke-width=".7654"/><path d="m95.529 162.68c-3.0824 0-5.1373-2.9649-3.2405-5.2628 3.1614-3.7062 6.8761-7.0417 10.67-10.229 0.79035-0.66711 3.4776-0.29649 4.584 0.51886 0.86939 0.66711 1.5807 3.2614 0.94843 3.8544-3.7937 3.8544-7.9036 7.3382-12.013 10.97-0.23711 0.14825-0.71132 0.0741-0.94842 0.14825z" fill="#37abc8" stroke-width=".7654"/><path d="m63.046 162.68c-3.0824-0.0741-5.0583-3.039-3.1614-5.2628 3.1614-3.7062 6.9551-7.0417 10.749-10.229 0.79035-0.66711 3.3195-0.37062 4.2679 0.29649 0.94842 0.74124 1.8178 3.2614 1.3436 3.7803-3.8727 3.9285-8.0616 7.5606-12.171 11.267-0.31614 0.14825-0.79036 0.0741-1.0275 0.14825z" fill="#37abc8" stroke-width=".7654"/><path d="m216.87 103.5c0-0.22072-0.46545-1.7596-1.0343-3.4197-0.56887-1.6601-1.0139-3.0394-0.98885-3.065 0.025-0.02565 0.47072 0.0613 0.99048 0.19323 0.87588 0.22232 1.4071 0.08524 7.2605-1.8735 9.1287-3.0548 11.569-4.0803 14.011-5.8892 1.119-0.82874 2.0345-1.5906 2.0345-1.693s-1.9788-0.18621-4.3974-0.18621c-12.062 0-22.483-2.9686-31.794-9.0566-11.296-7.386-18.982-17.459-21.931-28.743-1.0991-4.2051-1.3024-5.8345-1.2952-10.38 7e-3 -4.642 0.3129-6.8416 1.5097-10.87 1.4099-4.7459 2.995-7.7907 7.2985-14.019 1.5289-2.2128 2.8446-4.1922 2.9238-4.3986 0.18261-0.47589 0.0205-0.41961-3.3432 1.1606-10.564 4.963-18.189 12.202-22.713 21.563-1.3877 2.8718-2.6463 6.3472-3.2831 9.0654l-0.42105 1.7974-0.56291-0.36883c-0.3096-0.20286-1.1928-1.1398-1.9628-2.082-0.76993-0.94224-1.7127-1.898-2.0951-2.1238s-0.69519-0.55946-0.69519-0.74133c0-0.58681 1.6536-4.5259 3.2142-7.6568 2.6181-5.2524 5.302-9.0721 9.204-13.099 6.6921-6.9063 15.325-11.568 25.68-13.867 3.8603-0.85707 5.6869-0.96562 8.082-0.48032 5.7595 1.167 6.0053 3.6778 0.67841 6.93-9.5238 5.8146-15.186 13.864-16.74 23.799-0.56469 3.6093-0.37182 9.0986 0.44072 12.543 1.8719 7.9354 5.8339 14.505 12.704 21.064 6.637 6.3367 13.76 10.299 21.999 12.238 6.6962 1.5758 15.481 1.5492 22.57-0.06828 2.8821-0.65761 6.2141-0.66332 7.5447-0.01294 0.80249 0.39226 0.87022 0.50643 0.93823 1.5814 0.12434 1.9655-0.3837 2.8195-3.6259 6.0948-8.9295 9.0207-16.434 13.092-29.142 15.812-2.789 0.59683-3.0595 0.61924-3.0595 0.25342z" fill="#fc0" stroke-width=".23445"/><path d="m54.51 142.28c-9.8283-1.167-20.215-8.4804-24.605-17.324-1.3226-2.6647-1.9454-5.0292-2.1473-8.1526-0.49314-7.6277 2.2734-15.263 7.52-20.755 2.1025-2.2007 3.5523-3.3574 6.2098-4.9546 2.579-1.55 4.9512-2.4418 9.7398-3.6613 2.1921-0.55829 3.9978-1.0193 4.0126-1.0244 0.01482-0.0051-0.22095-0.98524-0.52392-2.178-0.85824-3.3788-1.155-6.548-0.84732-9.0473 0.49735-4.0394 1.8862-6.9766 4.6266-9.7843 2.435-2.4949 5.7311-4.4549 10.195-6.0627 6.4073-2.3076 11.671-1.5412 17.636 2.568 1.0386 0.71545 1.9087 1.2707 1.9335 1.2339 0.02482-0.03681 0.27487-0.87594 0.55567-1.8647 1.9862-6.9942 6.3214-13.763 11.786-18.402 6.3053-5.3525 14.818-9.3528 23.735-11.153 3.7439-0.75588 11.097-0.75196 14.615 0.0078 4.9497 1.0689 10.015 3.1489 13.975 5.7384 2.2791 1.4903 2.9204 2.0043 4.4508 3.5676 0.63122 0.64474 1.8686 1.9108 2.7497 2.8134 2.8988 2.9696 5.4601 7.534 7.1045 12.66 1.1514 3.5894 1.6854 6.2462 2.5029 12.452 1.208 9.1703 1.8397 13.488 1.996 13.645 0.0827 0.0827 1.0673-0.10079 2.1881-0.40774 7.9206-2.1693 13.095-2.553 18.872-1.3994 5.5667 1.1117 9.9347 3.4603 14.315 7.6969 4.1412 4.0053 6.3266 7.3308 8.0862 12.305l1.0854 3.0681-6e-3 6.0958c-6e-3 6.4277-0.1814 8.2275-1.1702 12.015-2.6071 9.9863-9.8357 16.12-21.894 18.577-7.5425 1.5371-6.077 1.4628-32.608 1.6528-24.337 0.17429-104.77 0.2296-106.09 0.0729zm126.96-6.5296c5.9419-0.74318 12.165-2.3087 15.847-3.9866 5.2095-2.374 8.7359-6.1362 10.217-10.9 0.50988-1.6401 0.54605-2.1368 0.53781-7.3853-7e-3 -4.7852-0.0858-6.0338-0.52335-8.3474-0.93498-4.9437-1.9212-7.2166-4.3397-10.002-3.2142-3.7013-6.5701-5.9338-10.884-7.2408-1.8443-0.55872-2.4467-0.62569-5.6964-0.63323-4.2163-0.0098-6.252 0.35173-11.723 2.0818-4.2847 1.355-5.8883 1.5378-7.3373 0.83636-1.291-0.62497-2.085-1.77-2.7196-3.9222-0.52224-1.771-0.70044-2.9529-2.2579-14.975-1.1287-8.712-1.5298-10.809-2.6603-13.906-3.3578-9.2006-10.335-15.765-19.607-18.445-11.22-3.244-24.802 0.05483-34.803 8.453-3.4355 2.885-5.9518 6.098-7.8833 10.066-1.4861 3.0531-1.9509 4.652-3.0328 10.433-0.44643 2.3856-0.91916 4.7061-1.0505 5.1568-0.23452 0.80473-2.0938 3.7524-2.3669 3.7524-0.31154 0-3.2877-3.3146-4.947-5.5096-3.9408-5.213-6.4405-6.6819-11.371-6.6819-7.2978 0-12.955 4.2643-14.268 10.756-0.65891 3.2555-0.2926 5.3976 1.769 10.344 1.3236 3.176 1.5075 3.9199 1.1811 4.7783-0.3498 0.92006-1.7155 1.4368-5.6525 2.1387-10.848 1.9341-13.678 3.0355-17.466 6.7985-1.852 1.8399-2.2787 2.4253-3.3328 4.5718-1.7163 3.4951-2.2585 5.7346-2.2705 9.3781-0.0111 3.3535 0.41867 5.5976 1.6155 8.4352 2.5076 5.9458 7.811 10.79 14.083 12.865 3.7346 1.2351 2.9463 1.205 32.52 1.2414 15.125 0.0186 40.318 0.11106 55.985 0.20545 32.716 0.1971 38.38 0.14932 42.436-0.35793z" fill="#4d4d4d" stroke-width=".23445"/><path d="m50.056 130.5c-1.5989-0.81452-5.8636-4.5282-7.268-6.3291-2.7048-3.4682-3.743-6.1441-3.7403-9.6399 0.0057-7.2507 3.7975-11.685 12.858-15.036 1.0174-0.37636 1.8836-0.65059 1.9247-0.6094 0.04118 0.04118-0.82988 0.75613-1.9357 1.5888-5.334 4.0163-7.8175 8.1469-7.8175 13.002 0 6.21 3.8652 11.551 11.266 15.566l1.7356 0.94176-1.167 0.51735c-0.70456 0.31234-1.8174 0.55656-2.8082 0.61628-1.4733 0.0888-1.7851 0.0256-3.0479-0.61768z" fill="#4d4d4d" stroke-width=".23445"/><path d="m148.35 95.903c-0.38915-0.28455-0.35172-0.56686 0.65079-4.9084 2.003-8.6744 2.1081-9.52 2.1014-16.907-4e-3 -4.451-0.10327-7.0176-0.3081-7.9714-1.0391-4.8385-2.95-8.3797-6.5272-12.096-1.0628-1.1042-1.6495-1.9583-2.0536-2.9893l-0.56566-1.4434h1.6313c1.9409 0 2.6937 0.28562 5.055 1.918 3.3804 2.3369 6.3855 5.7626 7.7422 8.8258 2.0194 4.5595 2.2579 11.914 0.62468 19.257-0.74364 3.3435-1.4243 5.2749-3.0193 8.5669-0.9509 1.9626-4.2255 7.3572-4.8375 7.9691-0.0447 0.04466-0.267-0.05466-0.49409-0.22072z" fill="#4d4d4d" stroke-width=".23445"/></svg>
