<?xml version="1.0" encoding="UTF-8"?>
<svg enable-background="new 0 0 218.7 174.6" version="1.1" viewBox="0 0 218.7 174.6" xml:space="preserve" xmlns="http://www.w3.org/2000/svg">
<path d="m18.572 45.41c-2.258 0.16767-4.4433 0.62045-5.7534 1.7676-1.9456 1.57-2.113 5.2786-0.05396 6.9066 2.7799 2.2028 8.0683 1.8162 11.37 1.7991 18.899-0.37038 37.797-0.74074 56.599-1.0076 19.602-0.29526 39.109-0.4871 58.636-0.07925 26.176 1.019 26.205-11.689 0.71237-10.933-38.408 0.46222-76.913 1.0283-115.32 1.4906-1.6008 0.0068-3.9315-0.11222-6.1894 0.05545z"/>
<path d="m68.276 67.7c-2.26 0.13695-4.4513 0.55996-5.7769 1.6892-1.9667 1.5434-2.1846 5.2494-0.14788 6.9053 2.7496 2.2404 8.0428 1.9238 11.344 1.9516 18.902-0.11332 37.804-0.22663 56.608-0.23779 19.506 0.07351 39.114 0.14481 58.631 0.7182 14.782 1.7455 15.241-12.002 0.86105-10.922-38.41-0.06017-76.92-0.01777-115.33-0.07794-1.6007-0.015-3.9295-0.16373-6.1896-0.02678z"/>
<path d="m163.97 95.276c-19.397 0.49804-38.787 0.60587-58.274 0.60972-18.804 0.02004-37.706-0.06192-56.608-0.14388-3.3013 0.0333-8.597-0.27416-11.341 1.8708-2.0339 1.6592-1.8019 5.0642 0.16736 6.6043 2.657 2.1541 8.7699 1.5779 11.969 1.6426 38.384-0.0239 76.871-0.14516 115.26-0.16919 10.378 0.98823 19.762-11.028-1.1687-10.414z"/>
<path d="m67.333 123.12c-2.2596 0.14437-4.4495 0.57457-5.7714 1.7082-1.9616 1.5498-2.1673 5.2566-0.12522 6.9057 2.757 2.2314 8.0491 1.8994 11.351 1.9164 18.902-0.17535 37.803-0.35069 56.607-0.42355 19.604-0.093 39.112-0.0835 58.633 0.52579 26.164 1.2891 26.324-11.418 0.82515-10.925-38.41 0.0659-76.919 0.23465-115.33 0.30053-1.6007-0.01-3.9301-0.15278-6.1897-8e-3z"/><path d="m179.66 133.41c-4.4762-0.15282-32.117-0.24345-61.423-0.2014l-53.285 0.0765-1.7579-0.82389c-4.0352-1.8913-4.0798-6.2378-0.0844-8.236l1.5351-0.76779 31.787-0.19005c53.71-0.32113 97.28-0.30057 100.13 0.0473 4.9827 0.60862 8.6953 1.8987 10.231 3.5553 1.1383 1.2276 1.046 2.147-0.34838 3.4684-3.0856 2.924-9.514 3.6613-26.782 3.0718z" fill="#4d4d4d" stroke-width=".30712"/><path d="m41.958 105.47c-3.5533-0.54025-5.4109-2.1794-5.4109-4.7746 0-1.6964 1.2608-3.2179 3.3107-3.9955 1.367-0.51848 4.7137-0.56132 58.727-0.75157 31.502-0.11096 59.696-0.30874 62.652-0.43951 9.8178-0.43431 15.049 1.0053 15.049 4.1417 0 1.9469-3.2465 4.639-6.603 5.4755-1.5926 0.39689-125.19 0.72966-127.72 0.34389z" fill="#4d4d4d" stroke-width=".30712"/><path d="m182.89 78.424c-3.7161-0.15393-31.149-0.32227-60.963-0.37408-29.813-0.05181-54.828-0.20281-55.588-0.33554-2.1843-0.38143-4.1398-1.5134-4.7175-2.7306-1.3885-2.9261 0.12662-5.7105 3.6426-6.6939 0.89126-0.24931 18.746-0.32667 65.049-0.28183 53.837 0.05213 64.048 0.12941 65.276 0.49403 1.9511 0.57941 3.9282 2.3077 4.3853 3.8336 0.32256 1.0766 0.28165 1.3545-0.39296 2.6693-0.62962 1.2271-1.0775 1.633-2.7333 2.4774-2.4263 1.2373-4.0989 1.3501-13.958 0.94173z" fill="#4d4d4d" stroke-width=".30712"/><path d="m16.277 55.338c-3.1242-0.7347-4.3504-1.757-4.7662-3.9735-0.28343-1.5108 0.68545-3.6208 2.0499-4.4641 0.57587-0.35591 1.6867-0.79046 2.4686-0.96568 0.86333-0.19348 15.09-0.49888 36.23-0.77773 19.145-0.25253 46.556-0.61803 60.913-0.81221 29.74-0.40223 35.408-0.31288 38.937 0.61384 4.6451 1.22 6.6701 2.5695 6.6701 4.4449 0 1.9633-2.5166 3.4435-7.6238 4.4839-2.8407 0.57871-4.6846 0.61173-41.822 0.74887-21.368 0.07891-45.138 0.28184-52.824 0.45097-27.834 0.6125-38.414 0.67843-40.232 0.25073z" fill="#4d4d4d" stroke-width=".30712"/></svg>
