<?xml version="1.0" encoding="UTF-8"?>
<svg enable-background="new 0 0 268.6 245.1" version="1.1" viewBox="0 0 268.6 245.1" xml:space="preserve" xmlns="http://www.w3.org/2000/svg">
<path d="m153.36 45.492c-19.462 0.73234-38.673 15.081-42.273 34.166-0.14944 0.83874-0.57601 1.7384-1.1348 2.5781 0.061-0.03537 0.12294-0.06921 0.18359-0.10547 0.22984-0.12588 0.43814-0.28579 0.66797-0.41211 0.18048-0.10036 0.36262-0.19869 0.53516-0.3125 0.21207-0.14544 0.42236-0.29502 0.65429-0.4082 0.26433-0.13418 0.52887-0.26578 0.79102-0.4043 0.27847-0.15359 0.55778-0.30644 0.83008-0.4707 0.30709-0.18199 0.6121-0.36746 0.93164-0.52734 0.33615-0.17229 0.67216-0.3449 1.0293-0.4707 0.34764-0.14073 0.69332-0.28655 1.0332-0.44531 0.42391-0.20208 0.84044-0.41604 1.2539-0.63867 0.40079-0.19572 0.81123-0.37486 1.2402-0.5 6e-3 -0.0018 0.0115-0.0023 0.0176-0.0039 1.3099-9.5953 12.49-23.906 31.971-26.02 18.802-2.0207 36.643 9.3548 41.523 26.568 4.2978 15.131-3.403 33.013-16.957 39.07 0.026 0.0559 0.0505 0.11592 0.0703 0.18359 0.0192 0.0658 0.0394 0.13147 0.0586 0.19727 0.0647 0.34387 0.15625 0.68298 0.21875 1.0273 0.10427 0.51146 0.17864 1.0274 0.21094 1.5488 0.016 0.44152 9e-3 0.88247 0.01 1.3242v4.3926c0.95291-0.90334 1.782-1.6994 2.707-2.2402 14.801-9.2055 22.243-22.152 21.283-38.617-1.2801-21.704-19.442-38.019-42.965-39.441-1.2951-0.07484-2.5932-0.08788-3.8906-0.03906zm-5.8438 12.709c-0.48123-0.01762-0.94667 0.01469-1.3867 0.12695-7.4407 2.0207-13.042 6.5871-16.162 13.023-0.80425 1.6603-1.7809 2.9176-2.9102 3.8965 0.0457-0.0082 0.091-0.01749 0.13672-0.02539 0.30434-0.06566 0.60698-0.14051 0.91406-0.19336 0.35735-0.05817 0.70544-0.1605 1.0644-0.20898 0.42949-0.05057 0.85706-0.1159 1.2891-0.14258 0.35814-0.03005 0.71874-0.0424 1.0742-0.09961 0.49235-0.07955 0.98379-0.16838 1.4844-0.17188 0.45837-0.02233 0.91631-0.03908 1.375-0.04102 0.15289-6.43e-4 0.30598 0.0012 0.45898 0.0039h1.4238c2.8105-5.3299 7.0065-8.8669 12.012-11.775 1.5202-0.8981 2.4796-2.3937 3.7598-3.666-1.5002-0.16839-3.0895-0.67369-4.5332-0.72656zm-10.73 17.17c-0.11585 0.04604-0.25572 0.07617-0.42578 0.07617h-1.5059c-0.59454-0.01107-1.1876 0.0062-1.7812 0.03516-0.46061 0.0015-0.91239 0.08698-1.3652 0.16016-0.382 0.06374-0.76928 0.07614-1.1543 0.10938-0.42037 0.02576-0.83603 0.08936-1.2539 0.13867-0.34124 0.05462-0.67637 0.14472-1.0176 0.20117-0.28906 0.05083-0.57276 0.12335-0.85938 0.18555-0.30068 0.0528-0.59958 0.11157-0.89844 0.17383-0.35765 0.06384-0.70926 0.15312-1.0644 0.22852-0.27746 0.03194-0.54194 0.11923-0.80664 0.20312-0.092 0.02916-0.17565 0.04416-0.25586 0.05273-1.4912 0.66857-3.1667 1.0732-5.0332 1.3203-0.0199 0.0073-0.039 0.01508-0.0605 0.02148-0.38213 0.11367-0.74825 0.27172-1.1055 0.44726-0.41548 0.22444-0.83548 0.43927-1.2617 0.64258-0.3537 0.16535-0.71242 0.31836-1.0742 0.46484-0.33632 0.11714-0.65269 0.2794-0.96876 0.44141-0.30567 0.15271-0.59695 0.32984-0.89062 0.50391-0.27916 0.16812-0.56425 0.32698-0.84961 0.48438-0.26939 0.14295-0.54483 0.27746-0.81641 0.41602-0.20199 0.09856-0.38381 0.23064-0.56836 0.35742-0.19198 0.12734-0.39263 0.23764-0.59374 0.34961-0.22657 0.13124-0.44002 0.28322-0.66797 0.41211-0.31364 0.18761-0.63138 0.36345-0.96094 0.52148-0.19879 0.09194-0.40144 0.17664-0.60156 0.26562-0.0309 0.01375-0.0607 0.02337-0.0898 0.0332-0.38562 0.40118-0.79284 0.76274-1.209 1.0547-7.3607 5.2389-12.481 11.825-15.121 20.133-0.32003 0.8981-0.71917 1.796-1.1992 3.0684-8.0808-7.0351-16.722-6.1363-24.883-1.4961-10.081 5.7628-11.603 14.819-8.2422 25.072-2.6403 0.67357-4.959 1.1975-7.1992 1.8711-14.081 4.0415-22.563 17.289-20.402 31.658 1.7602 11.301 16.162 23.201 28.883 23.201 41.284 0.0748 82.647-7.1e-4 123.93-0.15039 4.7205 0 9.6017-0.67417 14.242-1.5723 12.481-2.4698 20.883-8.9799 23.123-21.254 1.6002-8.4571 0.95947-16.84-2.9609-24.549-4.7205-9.2055-12.961-14.668-23.842-15.342-5.8406-0.37421-11.762 0.89673-18.883 1.5703 0.0996-0.0885 0.15908-0.15018 0.25391-0.23633-0.11812-0.13205-0.19922-0.34346-0.19922-0.63671v-4.5723c-3e-3 -0.42853 7e-3 -0.85688-0.01-1.2852-0.0305-0.46233-0.0968-0.91958-0.18946-1.373-0.0645-0.34929-0.1544-0.6921-0.2207-1.041-9e-3 -0.0257-0.0183-0.0524-0.0273-0.0781-0.0773-0.21484-0.0883-0.39971-0.0547-0.54688-1.7617-22.438-11.304-38.833-37.859-41.742zm-0.8164 6.9062c15.922 0.52389 27.441 11.151 29.762 27.242 0.88007 6.2119 1.6004 12.424 2.4805 18.561 1.1201 7.7835 3.3603 9.0576 11.121 6.3633 8.7209-3.0685 17.362-3.5928 24.883 2.3945 2.8003 2.2452 5.7605 5.313 6.6406 8.5312 1.5201 5.5383 2.1599 11.526 1.8398 17.289-0.40004 8.0829-5.919 13.096-13.84 15.641-7.2008 2.3201-14.563 4.1181-23.924 3.0703-36.724 0-75.127-0.15026-113.53 0.0742-13.681 0.0748-31.042-15.642-21.441-32.557 2.4002-4.1911 5.68-7.2596 10.48-8.6816 3.2003-0.8981 6.4013-1.7209 9.6816-2.1699 7.3607-0.97294 8.1594-2.1716 5.0391-8.3086-5.0405-9.9539 0.72117-19.457 12.402-20.131 2.7203-0.14969 5.9999 1.1211 8.1602 2.7676 2.5603 1.871 3.9999 4.941 6.0801 7.3359 0.72008 0.8981 1.8406 1.5719 2.7207 2.3203 0.80008-0.8981 1.8401-1.7979 2.1602-2.8457 0.56006-2.0207 0.72091-4.1896 0.96094-6.2852 2.2402-17.363 19.682-31.285 38.324-30.611z" stroke-width=".77382"/>
<path d="m159.01 19.935c0 3.3679 0.08 6.7358 0 10.029-0.08 2.4698-0.64007 5.0144-4.0004 5.0144-3.0403 0.07484-4.0004-2.2453-4.1604-4.5653-0.40004-7.0351-0.72008-14.145-0.88009-21.18-0.08-2.4698 1.2001-4.4905 4.1604-4.4905 2.9603-0.074842 4.1604 1.9459 4.3204 4.4157 0.16001 3.5924 0.08 7.1848 0.08 10.777h0.48005z" stroke-width=".77382"/>
<path d="m221.09 29.814c-1.1201 1.6465-1.8402 3.1434-2.9603 4.266-4.7205 4.715-9.521 9.2804-14.401 13.921-0.72008 0.67358-1.6002 1.6465-2.4803 1.7214-1.5202 0.14968-3.6004 0.29937-4.6405-0.52389-0.80008-0.59873-0.72008-2.844-0.16002-3.9666 0.80009-1.6465 2.3202-2.9937 3.6804-4.3408 4.3204-4.3408 8.6409-8.7565 13.201-12.873 1.1201-0.97294 3.3604-1.422 4.9605-1.2723 0.88009 0.14968 1.6802 1.871 2.8003 3.0685z" stroke-width=".77382"/>
<path d="m229.42 91.783c-5.0405 0-8.7209 0.29937-12.241-0.14968-1.6802-0.22452-4.2404-1.7214-4.5605-3.0685-0.64007-2.6195 1.9202-3.5924 4.3204-3.6672 7.8408-0.37421 15.682-0.74842 23.522-0.74842 1.5202 0 4.0004 1.7962 4.4005 3.1434 0.72007 2.5446-1.6802 3.5924-4.1604 3.8169-4.1604 0.29937-8.4009 0.44905-11.281 0.67358z" stroke-width=".77382"/>
<path d="m115.88 47.551c-0.80009 1.0478-1.4402 2.6195-2.4002 2.7691-1.5202 0.29937-3.6804 0.22452-4.8005-0.59873-2.9603-2.2453-5.6006-4.9396-8.3209-7.4842-2.7203-2.5446-5.5206-5.0144-8.1608-7.6339-1.7602-1.7214-2.4803-3.7421-0.48005-5.6131 1.9202-1.871 4.2404-1.4968 6.0006 0.14968 5.4406 4.9396 10.801 9.954 16.082 15.043 0.88009 0.74842 1.2801 2.0207 2.0802 3.3679z" stroke-width=".77382"/>
<path d="m81.56 91.558c-3.8404 0-7.6808 0.07484-11.521-0.07484-2.2402-0.07484-4.7205-0.8981-4.0804-3.3679 0.32003-1.2723 2.5603-2.9937 4.0804-3.0685 7.5208-0.37421 15.122-0.44905 22.722-0.22452 1.6002 0.07484 4.0804 1.7962 4.4005 3.1434 0.64007 2.6195-1.9202 3.5176-4.3204 3.6672-3.6804 0.14968-7.4408 0-11.121 0-0.16002 0-0.16002 0-0.16002-0.07484z" stroke-width=".77382"/>
<path d="m151.49 141.18c0.40004-1.4968 0.80008-2.5446 0.9601-3.7421 1.0401-6.5112 2.5603-12.948 2.9603-19.459 0.48005-7.559-2.0002-14.444-8.0808-19.983-1.0401-0.8981-1.2001-2.6195-1.7602-3.9666 1.6002 0.22453 3.5204 0 4.8005 0.74842 6.3207 3.8169 10.961 9.1307 11.601 16.166 0.8801 10.104-1.3601 19.758-7.5208 28.365-0.40004 0.52389-0.80008 1.0478-1.2801 1.422-0.32003 0.22452-0.72007 0.14968-1.6802 0.44905z" stroke-width=".77382"/>
<path d="m57.878 143.05c-6.0006 4.4905-11.681 9.2804-10.961 16.914 0.64007 7.11 5.8406 12.05 12.801 15.193-0.08001 0.37421-0.16002 0.74842-0.24002 1.1226-1.9202 0.14968-4.0004 0.82326-5.6006 0.29937-8.2409-2.6195-14.401-14.295-11.121-21.779 1.3601-3.0685 4.3204-5.7628 7.1207-8.0081 2.2402-1.7214 5.2805-2.5446 8.0008-3.7421z" stroke-width=".77382"/>
<path d="m108.94 204.55c-0.32003 6.0622-3.5204 10.403-9.1209 11.975-6.8007 1.9459-15.442-0.22453-18.482-4.7899-2.8003-4.266-1.8402-8.4571 0.88009-12.274 3.1203-4.3408 7.6808-6.8854 12.881-8.3074 6.0806-1.6465 9.761 0.37421 12.241 6.8106 0.9601 2.0956 1.1201 4.4157 1.6002 6.5861zm-15.602 6.0622c4.0804-0.59874 7.1207-1.7214 7.5208-5.3886 0.32003-2.7692-0.24002-5.688-0.88009-8.4571-0.16002-0.59874-2.4803-1.4968-3.2003-1.1226-2.5603 1.2723-5.2005 2.7692-7.0407 4.7899-1.5202 1.7214-3.0403 4.6402-2.4803 6.4364 0.56006 1.7214 3.9204 2.5446 6.0806 3.7421z" stroke-width=".77382"/><path d="m130.54 231.12c-0.16002 6.2867-3.3604 10.702-9.121 12.349-6.6407 1.871-15.122-0.22452-18.242-4.4905-2.5603-3.5176-2.4002-8.4571 0.72008-12.573 3.2003-4.266 7.6808-6.8854 12.961-8.2326 6.0806-1.5717 9.681 0.44905 12.241 6.8854 0.80008 1.871 0.9601 4.0415 1.4402 6.0622zm-15.602 6.3616c4.6405-0.67358 7.2008-1.7962 7.3608-4.8647 0.16001-3.4427-1.0401-6.8854-1.6002-10.328-2.5603 1.1226-5.1205 2.2452-7.6008 3.4427-0.80008 0.37421-1.6802 1.0478-2.0002 1.7962-0.9601 2.1704-2.6403 4.715-2.0002 6.5861 0.40004 1.5717 3.7604 2.3201 5.8406 3.3679z" stroke-width=".77382"/><path d="m160.95 209.04c-0.32003 6.0622-3.5204 10.403-9.1209 11.975-6.8807 1.9459-15.442-0.29937-18.402-4.8647-2.8003-4.266-1.8402-8.4571 0.96009-12.274 3.1203-4.266 7.6808-6.8854 12.881-8.2326 6.0806-1.5717 9.681 0.44905 12.241 6.8854 0.80009 2.0956 0.9601 4.3408 1.4402 6.5112zm-15.442 6.0622c3.6804-0.67357 6.8807-1.4968 7.0407-4.7899 0.24002-3.4427-0.88009-6.9603-1.4402-10.403-2.5603 1.1226-5.1205 2.0956-7.6008 3.293-0.72007 0.29937-1.4402 0.8981-1.7602 1.4968-1.0401 2.2452-2.9603 4.8647-2.4803 6.8854 0.56006 1.4968 4.0804 2.3201 6.2406 3.5176z" stroke-width=".77382"/><path d="m191.03 203.95c0 5.2389-3.4404 8.4571-9.201 8.4571-5.9206 0-9.921-2.9188-9.841-7.11 0.08-4.7899 6.5607-10.178 12.321-10.328 3.6804-0.0748 6.6407 3.8918 6.7207 8.981zm-5.9206-6.9603c-2.7203 1.7962-4.8805 2.6943-6.4007 4.266-1.1201 1.1226-1.2801 2.9937-1.9202 4.4905 1.9202 0.59874 3.8404 1.7214 5.6806 1.5717 1.2801-0.14968 3.0403-1.9459 3.3603-3.293 0.40005-1.871-0.32003-4.0415-0.72007-7.0351z" stroke-width=".77382"/><path d="m71.819 200.36c0 5.2389-3.6004 8.3823-9.361 8.3074-5.7606-0.0748-9.601-2.844-9.681-6.8854-0.08001-4.8647 6.5607-10.478 12.481-10.553 3.6804 0 6.5607 4.0415 6.5607 9.1307zm-5.8406-5.9873c-0.48005-0.22453-0.9601-0.44905-1.3601-0.67358-2.1602 1.7962-4.5605 3.4427-6.4007 5.5383-0.64007 0.67357-0.16002 3.4427 0.40004 3.6672 1.8402 0.59874 4.1604 0.97295 6.0006 0.37421 1.1201-0.29936 2.0002-2.4698 2.1602-3.8918 0.16002-1.6465-0.48005-3.3679-0.80008-5.0144z" stroke-width=".77382"/><path d="m216.18 91.19c-0.56385-0.20405-1.5659-0.82493-2.2267-1.3797-1.0414-0.87427-1.1892-1.153-1.1088-2.0905 0.11343-1.3229 1.1324-2.1706 3.029-2.5198 1.9609-0.36113 23.696-1.0481 25.045-0.79162 1.5426 0.29319 3.8756 2.4934 3.8756 3.6549 0 1.0793-1.145 2.2032-2.6324 2.584-3.3631 0.86096-23.916 1.2903-25.982 0.54276z" fill="#ffd42a" stroke-width=".30485"/><path d="m196.8 49.059c-0.82495-0.82495-0.62574-3.19 0.38639-4.5872 1.096-1.513 15.111-15.421 16.625-16.498 0.81907-0.58278 1.6188-0.84 2.8998-0.93266l1.7689-0.12795 2.3162 2.8267-0.57702 1.1323c-0.70788 1.3891-5.4732 6.3495-12.844 13.37l-5.5604 5.2962h-2.2677c-1.6551 0-2.3972-0.12942-2.7468-0.47905z" fill="#ffd42a" stroke-width=".30485"/><path d="m153.46 34.622c-0.90801-0.38888-1.8966-1.7375-2.224-3.0338-0.3752-1.4858-1.1584-20.229-0.98682-23.617 0.0274-0.54176 0.43418-1.259 1.0805-1.9053 0.90526-0.90525 1.2315-1.0365 2.5769-1.0365 2.0358 0 3.0203 0.49074 3.7145 1.8516 0.48136 0.94355 0.62244 2.3021 0.88806 8.552 0.40986 9.6439 0.38198 15.691-0.0784 17.004-0.20012 0.57113-0.71869 1.3014-1.1524 1.6228-0.90907 0.67371-2.8796 0.96343-3.8184 0.56139z" fill="#ffd42a" stroke-width=".30485"/><path d="m109.97 50.025c-1.43-0.51912-2.5341-1.424-8.6157-7.0611-7.4172-6.8752-10.397-9.9343-10.569-10.852-0.3023-1.6051 1.2081-3.6542 3.0306-4.1116 1.652-0.41463 2.8593 0.39272 8.7635 5.8606 11.734 10.867 13.45 12.814 12.633 14.34-0.9935 1.8564-3.1176 2.5956-5.2423 1.8243z" fill="#ffd42a" stroke-width=".30485"/><path d="m74.938 91.331c-6.3893-0.16719-6.9792-0.22947-7.7737-0.82076-1.3003-0.96778-1.3253-2.3614-0.06554-3.6611 1.6834-1.7369 2.0293-1.7782 14.954-1.7876l11.785-0.0085 1.3018 0.91455c2.3913 1.6799 2.4985 3.5564 0.27785 4.8609-0.97703 0.57395-1.5895 0.62877-7.3157 0.65488-3.4372 0.01567-9.3607-0.05292-13.163-0.15242z" fill="#ffd42a" stroke-width=".30485"/><path d="m176.51 122.91c0-1.2399-0.14009-2.9931-0.3113-3.8959-0.35281-1.8604-0.53613-1.6183 2.5138-3.3194 2.2548-1.2576 7.5265-6.3572 9.139-8.8407 7.2435-11.156 8.0134-24.972 2.0022-35.932-5.3561-9.7655-14.737-16.475-26.547-18.989-4.3941-0.93509-11.573-0.93509-15.967 0-7.9988 1.7022-14.574 5.1442-19.894 10.414-4.3547 4.3139-6.9734 8.7865-8.3879 14.326-0.15725 0.61583-0.98531 1.1502-4.3136 2.7835-2.7142 1.332-4.0502 1.8518-3.9173 1.5243 0.11097-0.27341 0.45459-1.5366 0.76362-2.8071 2.8699-11.799 11.61-22.014 23.854-27.878 6.9168-3.3129 12.107-4.5213 19.422-4.5219 20.158-0.0018 37.396 11.673 43.28 29.311 2.4874 7.4572 2.5421 17.276 0.13866 24.909-1.1203 3.5583-3.4921 8.1606-5.7525 11.163-2.4747 3.2866-7.1592 7.7646-10.713 10.241-1.4943 1.0412-3.2999 2.3145-4.0125 2.8295l-1.2956 0.93641z" fill="#ffd42a" stroke-width=".30485"/><path d="m128.04 74.609c0-0.16669 0.21077-0.47801 0.46839-0.69181 0.25761-0.2138 0.96588-1.2938 1.5739-2.3999 3.5074-6.3806 7.5246-9.9405 13.827-12.253 2.2343-0.81985 2.8243-0.91933 4.474-0.75427 1.0452 0.10457 2.177 0.29246 2.515 0.41753 0.58853 0.21771 0.57479 0.27582-0.3227 1.3646-0.51557 0.62548-2.3332 2.0506-4.0393 3.1669-3.5553 2.3264-7.8023 6.4099-9.335 8.9757l-1.0209 1.709-3.3846 0.19894c-1.8615 0.10941-3.6933 0.28235-4.0705 0.3843-0.37725 0.10195-0.68591 0.04898-0.68591-0.11772z" fill="#ccc" stroke-width=".30485"/><path d="m57.889 207.65c-2.4218-0.99622-3.4792-1.8363-4.209-3.3438-1.3725-2.8352-0.45236-5.8464 2.7074-8.8603 2.9916-2.8535 7.4447-4.552 10.077-3.8433 1.9628 0.52852 3.7734 2.5328 4.5451 5.0311 1.5962 5.168-0.21999 9.8056-4.3977 11.229-2.2876 0.77947-6.5638 0.67515-8.7224-0.21279zm7.5484-4.8136c0.40395-0.37949 0.94585-1.4172 1.2042-2.3059 0.42488-1.4616 0.42352-1.8395-0.01428-3.9565-0.26622-1.2873-0.5162-2.3656-0.55551-2.3962-0.03931-0.0306-0.38308-0.21775-0.76393-0.41595-0.6245-0.32501-0.90876-0.183-2.8961 1.4468-4.3937 3.6032-4.6432 3.9526-4.4981 6.2999 0.07501 1.2135 0.5329 1.6316 2.1586 1.9712 2.1413 0.44731 4.5059 0.16378 5.365-0.64331z" fill="#ccc" stroke-width=".30485"/><path d="m91.617 216.88c-11.555-1.7834-15.32-10.853-7.8529-18.918 2.7437-2.9635 5.6444-4.7498 10.13-6.2381 6.2899-2.0871 10.024-0.61341 12.692 5.0091 1.4985 3.1578 2.3633 7.5029 1.9444 9.7692-0.43846 2.3718-1.8596 5.2415-3.318 6.6999-2.9317 2.9317-8.5626 4.4552-13.595 3.6784zm5.498-7.0301c3.3844-1.2584 4.4685-3.7942 3.79-8.8652-0.50689-3.7884-0.79901-4.6656-1.6888-5.071-1.7199-0.78365-3.3435-0.28679-6.8691 2.1022-3.0236 2.0488-5.2238 5.2975-5.2825 7.7998-0.03945 1.6807 0.60827 2.358 3.6286 3.7942 2.7047 1.2862 3.5255 1.3168 6.4219 0.23994z" fill="#ccc" stroke-width=".30485"/><path d="m112.59 243.7c-3.7974-0.634-7.6355-2.6758-9.2691-4.931-5.172-7.1398 1.8473-17.456 13.946-20.496 3.734-0.93838 6.8606-0.18899 8.8994 2.133 2.6328 2.9986 4.5698 9.3174 3.9796 12.982-1.2208 7.5805-8.4576 11.831-17.556 10.312zm5.9023-6.8464c3.113-0.87718 4.287-2.6797 3.9334-6.039-0.22949-2.1802-1.4142-8.175-1.6761-8.4815-0.17804-0.2083-7.344 2.9416-8.6727 3.8122-0.93347 0.61163-2.987 4.9036-3.1643 6.6133-0.19143 1.8465 0.3779 2.4808 3.4268 3.8181 2.6114 1.1454 3.0074 1.1632 6.153 0.2769z" fill="#ccc" stroke-width=".30485"/><path d="m143.13 221.28c-3.4845-0.72569-6.2153-1.967-8.1352-3.6981-1.743-1.5716-2.9913-4.2983-2.9916-6.5347-9.1e-4 -6.5634 6.8782-13.195 15.891-15.32 2.4592-0.5797 3.4312-0.58023 5.3752-3e-3 2.0777 0.61701 4.0275 2.5839 5.3815 5.4288 1.3022 2.736 2.1311 6.7174 1.9273 9.2572-0.18186 2.2657-1.5009 5.2714-3.0809 7.0202-1.3111 1.4512-3.9941 2.9396-6.4542 3.5803-1.6465 0.42886-6.3743 0.58962-7.9134 0.26908zm7.3008-7.512c1.9206-1.0528 2.3836-2.2392 2.1664-5.5513-0.16818-2.5644-1.12-7.9115-1.4707-8.2622-0.18526-0.18526-6.2458 2.3315-7.98 3.3138-0.96066 0.54418-1.4714 1.2031-2.5364 3.2722-0.73342 1.4249-1.4098 3.1687-1.5032 3.8751-0.14626 1.1069-0.0624 1.3806 0.60703 1.9815 0.4272 0.38349 1.9193 1.188 3.3158 1.7877 2.5296 1.0864 2.5458 1.0889 4.3526 0.67531 0.99744-0.22833 2.3693-0.71977 3.0485-1.0921z" fill="#ccc" stroke-width=".30485"/><path d="m179.56 212.14c-7.8809-1.5166-9.7411-7.6711-3.9417-13.04 3.6268-3.3578 8.4952-4.7462 11.238-3.2049 2.5042 1.4075 4.1746 5.16 3.9138 8.7926-0.23654 3.2949-1.7403 5.4626-4.7028 6.7792-1.2634 0.56152-5.0514 0.95352-6.5071 0.67338zm5.0702-6.0178c1.2905-1.2905 1.3317-1.3911 1.3317-3.2522 0-1.6114-0.5189-5.7368-0.75683-6.0171-0.18233-0.21479-5.6024 3.367-6.4443 4.2587-0.53151 0.5629-1.2288 1.8482-1.5803 2.9128-0.34593 1.0479-0.59299 1.9053-0.54903 1.9053 0.044 0 1.0296 0.33783 2.1902 0.75073 3.2171 1.1445 4.2004 1.05 5.8086-0.55819z" fill="#ffd42a" stroke-width=".30485"/><path d="m130.71 70.813c2.6093-4.1765 5.5635-7.3516 8.4255-9.0555 2.8674-1.7071 6.5329-3.0628 8.2968-3.0686 2.1086-0.0069 3.4677 0.29358 3.4677 0.76672 0 0.45824-1.8954 2.0518-5.4197 4.5565-2.8696 2.0395-7.5183 6.6954-8.589 8.6025-0.79359 1.4135-0.57001 1.3494-6.1733 1.7685l-2.3482 0.17564z" fill="#ffd42a" stroke-width=".30485"/><path d="m177.99 211.57c-4.8098-1.548-6.6653-5.1263-4.72-9.1024 1.6393-3.3506 6.3459-6.5831 9.9665-6.845 2.3052-0.16674 3.0786 0.0464 4.4099 1.2153 1.7111 1.5023 2.6523 3.6492 2.819 6.43 0.23553 3.9278-1.1726 6.5106-4.2788 7.8483-2.0636 0.8887-6.1433 1.1145-8.1966 0.45367zm5.9929-4.7304c1.8459-1.1408 2.0731-1.8142 1.8931-5.6089-0.16748-3.5312-0.36222-4.448-0.94368-4.4426-0.19165 2e-3 -1.7164 0.9288-3.3883 2.06-2.6472 1.7912-3.1492 2.2731-3.8869 3.7312-0.46587 0.92091-0.92677 2.0902-1.0242 2.5985-0.17318 0.90322-0.1335 0.93881 1.7529 1.5724 2.522 0.8471 4.3243 0.87585 5.597 0.0893z" fill="#ccc" stroke-width=".30485"/><path d="m128.95 74.071c0-0.13582 1.0242-1.785 2.2761-3.6647 3.6651-5.5035 6.6374-8.1514 11.538-10.279 1.8981-0.824 2.5567-0.95332 4.9341-0.9688 2.2348-0.01455 2.7437 0.06634 2.7437 0.43614 0 0.2497-1.6704 1.7237-3.7121 3.2756-4.0754 3.0978-7.9926 6.8121-9.5096 9.017-0.53727 0.78089-1.2222 1.5511-1.5221 1.7116-0.70148 0.37542-6.7482 0.79844-6.7482 0.4721z" fill="#ffd42a" stroke-width=".30485"/><path d="m54.721 187.49c-10.857-2.3686-21.806-12.405-23.814-21.828-0.66013-3.0978-0.41793-9.2961 0.48678-12.457 1.3851-4.8392 3.9288-9.1541 7.4274-12.599 4.1252-4.0616 9.0503-6.5158 16.662-8.3026 1.2575-0.2952 2.4026-0.64227 2.5446-0.77127 0.14204-0.12901-0.03246-1.3804-0.38779-2.7809-1.9791-7.8006-0.62163-13.75 4.2322-18.549 3.4344-3.3954 8.0861-5.866 12.88-6.8408 3.1064-0.63168 5.143-0.60268 7.9417 0.11311 2.7162 0.69468 4.2563 1.4299 6.8592 3.2743 1.6893 1.1971 1.9309 1.289 2.106 0.80121 1.3571-3.7793 3.0846-7.93 3.9297-9.4423 4.2673-7.6362 12.032-14.357 21.538-18.641 3.6221-1.6325 10.533-3.276 15.697-3.7328 3.3017-0.29207 4.1215-0.26006 7.3164 0.2857 9.5745 1.6355 16.151 4.673 21.807 10.073 4.4602 4.2576 7.4199 9.0297 9.5327 15.37 1.8771 5.6331 3.1628 13.596 3.4167 21.16 0.1238 3.6877 0.21836 4.3441 0.62579 4.3441 0.26398 0 3.372-0.35544 6.9068-0.78987 10.877-1.3368 16.624-0.76076 22.889 2.2942 7.536 3.6747 12.762 10.547 15.116 19.877 0.80484 3.19 1.1136 10.279 0.61197 14.049-1.3538 10.173-5.736 16.691-13.899 20.674-4.774 2.3292-10.624 3.7534-18.704 4.5535-2.0551 0.20349-25.623 0.30413-67.524 0.28835-51.837-0.0195-64.724-0.10192-66.197-0.4233zm134.7-6.5604c14.043-2.7466 21.044-7.3248 22.922-14.989 0.43769-1.7861 0.49622-3.0904 0.35798-7.9788-0.3277-11.589-2.1086-16.24-8.0164-20.934-4.3125-3.427-8.4049-4.8619-13.895-4.8717-3.5977-6e-3 -6.4414 0.51634-11.758 2.1618-6.5539 2.0282-8.5478 1.4766-9.8451-2.7237-0.33163-1.0737-1.2296-6.635-1.9955-12.358-1.8795-14.046-2.2881-15.836-4.7327-20.741-4.996-10.024-14.385-15.815-26.34-16.246-10.584-0.38123-20.103 3.2169-27.985 10.578-6.0531 5.6529-9.6484 12.671-10.734 20.954-0.6117 4.6663-0.90236 5.666-2.0164 6.9348l-0.927 1.0558-1.0605-0.83117c-0.5833-0.45714-2.1311-2.2816-3.4396-4.0544-3.872-5.2459-6.6274-7.0078-11.316-7.236-3.2138-0.15642-5.3561 0.26842-8.1814 1.6224-4.0714 1.9512-6.4948 5.2511-7.1387 9.7207-0.39643 2.7518 0.18583 5.5605 1.9439 9.377 2.6138 5.6742 2.0429 6.3621-6.4242 7.7405-4.396 0.71565-8.7417 1.9136-11.254 3.1021-4.3832 2.0739-8.5193 7.4092-9.9067 12.779-0.71701 2.7751-0.64234 7.4567 0.16046 10.06 2.3161 7.5112 8.4428 13.488 16.885 16.471l2.4388 0.86177 59.903 0.17692c32.947 0.0973 61.961 0.14076 64.476 0.0966 3.1256-0.0549 5.6193-0.28506 7.8798-0.72717z" fill="#666" stroke-width=".30485"/><path d="m55.296 187.33c-2.2144-0.32453-4.4498-1.1082-7.4345-2.6063-6.8851-3.4558-12.728-9.2662-15.528-15.441-1.326-2.9244-1.649-5.1356-1.4734-10.086 0.16755-4.7247 0.74726-7.0677 2.7161-10.978 4.0832-8.1085 10.593-12.868 21.373-15.626 2.5498-0.65241 3.2771-0.95337 3.2771-1.356 0-0.28459-0.27222-1.8072-0.60492-3.3836-1.563-7.4056-0.21301-12.847 4.3098-17.371 4.8021-4.8038 11.365-7.5212 17.45-7.2256 3.4816 0.16909 6.1779 1.0929 9.4455 3.2363 1.3209 0.86646 2.4943 1.5754 2.6076 1.5754 0.11323 0 0.80043-1.5433 1.5271-3.4296 2.5362-6.5833 4.396-9.6562 8.4356-13.938 8.6594-9.1794 21.334-14.714 33.804-14.76 4.6742-0.01745 7.5117 0.46889 12.956 2.2207 8.5855 2.7625 15.85 8.7171 20.264 16.611 2.3454 4.1939 4.5461 11.531 5.3775 17.928 0.18099 1.3926 0.39376 2.7378 0.47283 2.9893 0.0791 0.2515 0.20072 1.7605 0.27034 3.3534 0.0696 1.5928 0.20984 4.0278 0.31162 5.4111l0.18505 2.515h0.9638c0.5301 0 3.3641-0.27437 6.2979-0.6097 5.8363-0.66711 12.281-0.7905 15.11-0.28931 4.3891 0.77741 9.5486 3.1001 12.874 5.7956 4.5119 3.6573 8.1306 9.542 9.8474 16.014 0.82375 3.1053 1.1607 12.031 0.58895 15.6-2.0016 12.493-9.2972 19.575-23.289 22.607-7.3896 1.601-4.9316 1.5517-75.279 1.5107-35.914-0.0209-66-0.14083-66.857-0.26646zm132.19-5.9373c0.25151-0.16348 0.68898-0.25917 0.97216-0.21263 0.7059 0.11601 7.7694-1.6447 10.426-2.5988 6.8254-2.4514 11.149-5.9942 13.045-10.688 0.67383-1.6686 0.70697-2.1073 0.7059-9.347-9.2e-4 -5.4148-0.10094-7.6295-0.3487-7.7121-0.19117-0.0637-0.28445-0.35729-0.20728-0.65238 0.19963-0.76338-0.65711-4.2458-1.5199-6.178-2.2883-5.1247-8.465-10.023-14.393-11.414-1.6511-0.38738-3.1122-0.46572-6.5459-0.35095-4.0853 0.13655-4.8016 0.25421-9.4504 1.5523-3.0907 0.86305-5.6589 1.4054-6.661 1.4066-1.4402 2e-3 -1.7487-0.11574-2.6378-1.0048-1.2611-1.2611-1.7064-2.7521-2.6128-8.7484-0.39283-2.5989-0.78857-4.7938-0.87943-4.8776-0.0909-0.0838-0.2107-1.1115-0.26632-2.2838-0.0556-1.1722-0.19279-2.2011-0.30485-2.2864-0.11205-0.0853-0.246-1.0423-0.29766-2.1267-0.0517-1.0844-0.22195-2.1259-0.37842-2.3144-0.15647-0.18854-0.21011-0.41717-0.11921-0.50808 0.24555-0.24555-0.70374-5.409-1.4298-7.777-0.91798-2.994-3.4519-7.7569-5.4936-10.326-2.0016-2.5188-4.762-4.9112-7.6208-6.6049-2.1448-1.2707-6.1817-2.9171-7.5088-3.0624-0.47111-0.05157-0.98877-0.17548-1.1504-0.27535-0.16158-0.09987-1.4404-0.34922-2.8417-0.55413-2.699-0.39464-11.209-0.2785-11.923 0.16272-0.21998 0.13595-0.91648 0.29372-1.5478 0.35058-2.8641 0.25798-9.2712 2.9234-12.937 5.3818-9.2329 6.1922-14.59 14.395-16.168 24.755-0.68504 4.498-1.2141 6.3333-2.1447 7.4392-1.0317 1.2261-1.2942 1.048-4.6746-3.1713-5.071-6.3294-6.9727-7.5267-12.262-7.7201-5.1395-0.18794-8.9297 1.253-11.99 4.5579-2.3798 2.5705-3.045 4.44-3.0542 8.5845-0.0041 1.853 0.12573 3.3833 0.29751 3.5058 0.16767 0.11958 0.3385 0.53156 0.37962 0.9155 0.04112 0.38394 0.62415 1.9888 1.2956 3.5664 0.67146 1.5776 1.2208 3.1878 1.2208 3.5782 0 1.8444-1.3322 2.4783-7.5686 3.6015-4.7272 0.85136-7.3691 1.5224-7.3691 1.8718 0 0.15718-0.12786 0.20677-0.28412 0.11019-0.42822-0.26466-4.1136 1.2093-5.6269 2.2504-2.1 1.4449-4.9025 4.7206-6.2278 7.2796-1.8041 3.4835-2.2073 5.1561-2.219 9.2055-0.0084 2.9292 0.11726 3.9069 0.76416 5.9446 2.1501 6.7725 8.0494 12.624 15.771 15.643l3.1619 1.2362 27.396 7e-3c15.068 4e-3 27.479 0.0897 27.58 0.19073 0.32094 0.32094 75.15 0.0217 75.649-0.30247z" fill="#808080" stroke-width=".30485"/><path d="m52.142 175.57c-3.9418-1.9856-7.2768-5.9142-9.1016-10.721-0.64947-1.7109-0.7834-2.5913-0.79957-5.2561-0.0178-2.9345 0.0545-3.3532 0.8685-5.03 0.9779-2.0145 5.4615-6.7758 7.6962-8.1729 1.2169-0.76077 5.0032-2.4246 5.1603-2.2676 0.04172 0.0417-0.87023 0.8672-2.0266 1.8344-7.2364 6.0528-9.025 12.554-5.43 19.737 1.5067 3.0102 4.7977 6.2211 8.4329 8.2274 3.4003 1.8767 3.3399 2.2345-0.43772 2.5952-1.9933 0.19035-2.1929 0.14708-4.3623-0.94574z" fill="#808080" stroke-width=".30485"/><path d="m151.95 140.31c0.38529-1.2997 2.8616-15.32 3.2338-18.309 0.53166-4.2692 0.2447-10.447-0.61183-13.171-1.1716-3.7268-3.0983-6.8369-6.4212-10.365-1.2508-1.328-2.1241-2.9285-2.1241-3.8928 0-0.17288 0.75239-0.24158 1.8088-0.16516 1.5209 0.11001 2.1395 0.35084 3.8868 1.5131 4.5546 3.0296 7.6575 6.7537 9.1876 11.027 0.68325 1.9082 0.79919 2.7978 0.90758 6.9644 0.23613 9.0765-1.7938 16.503-6.4851 23.727-1.3432 2.0682-2.0588 2.8176-3.0167 3.1591-0.47964 0.171-0.53771 0.0936-0.36555-0.48715z" fill="#4d4d4d" stroke-width=".30485"/><path d="m54.193 187c-5.4936-1.2956-13.103-6.0708-17.06-10.705-1.8965-2.2213-4.1173-5.7186-5.0605-7.9694-0.701-1.6728-0.80091-2.3851-0.91449-6.5204-0.1454-5.2939 0.17096-7.663 1.4748-11.044 2.7267-7.0706 8.2206-12.672 15.359-15.661 2.4138-1.0105 3.7518-1.4487 8.482-2.778 1.6722-0.46994 1.7526-0.53781 1.7456-1.4749-4e-3 -0.54024-0.13953-1.531-0.30118-2.2016-0.16165-0.67067-0.43606-2.454-0.60981-3.9631-0.35708-3.1013 0.0857-6.5551 1.153-8.9931 1.9972-4.5624 7.4489-9.1332 13.331-11.177 2.1923-0.76174 2.8549-0.84827 6.5543-0.85595 4.8698-0.0101 5.9393 0.28344 10.04 2.7558 1.5108 0.9108 2.8694 1.656 3.0192 1.656 0.14973 0 1.0555-1.8863 2.0128-4.1917 2.8166-6.7831 4.9695-10.046 9.5146-14.42 6.0669-5.839 13.27-9.8629 21.252-11.873 8.2453-2.0761 14.758-2.0234 22.09 0.17901 8.9742 2.6958 16.012 7.7856 20.691 14.964 4.1663 6.3916 7.0196 17.142 7.5511 28.45 0.28011 5.9592 0.22415 5.792 1.9388 5.7928 0.7831 3e-4 3.5366-0.21818 6.1188-0.48557 3.1208-0.32317 6.5449-0.44798 10.212-0.37226 5.4006 0.11152 5.5831 0.13689 8.6142 1.1973 4.4585 1.5597 7.4348 3.3463 10.353 6.2143 4.5838 4.5053 7.7985 10.784 8.6546 16.904 0.47854 3.4209 0.4038 11.993-0.12656 14.514-2.0977 9.9723-7.5899 16.031-17.709 19.535-3.6143 1.2517-8.5895 2.2586-12.616 2.5533-4.9334 0.36108-134.23 0.33224-135.76-0.0303zm130.24-5.4655c4.4786-0.24613 5.971-0.45975 9.2979-1.3309 7.5116-1.9669 11.438-3.8813 14.806-7.2199 1.3412-1.3292 2.3655-2.7063 3.056-4.1083l1.0386-2.1089v-7.476c0-7.8631-0.25356-10.334-1.4272-13.909-1.3585-4.1383-5.4576-8.5549-10.25-11.044-3.7382-1.9414-5.4882-2.2713-11.187-2.1084-4.5208 0.12924-5.2344 0.23347-9.7552 1.4249-5.4805 1.4444-7.7442 1.6384-8.7285 0.74822-1.3938-1.2606-1.948-3.0138-3.0238-9.5668-0.7965-4.8518-0.7418-4.489-1.816-12.045-1.0509-7.3917-1.705-10.017-3.3414-13.41-3.3889-7.0269-8.2591-11.903-14.658-14.676-4.6588-2.0189-6.7122-2.3766-13.703-2.3867-7.2185-0.01042-9.1857 0.30765-14.108 2.2811-10.978 4.4013-19.303 13.179-22.26 23.47-0.26492 0.92218-0.84543 3.5937-1.29 5.9368-0.4446 2.343-1.0183 4.6752-1.2749 5.1825-0.67976 1.344-1.3067 1.9706-1.7873 1.7861-0.23236-0.0892-1.8688-1.9061-3.6365-4.0376-5.117-6.17-7.0717-7.3159-12.51-7.3336-5.0442-0.0164-8.0972 1.0981-11.099 4.0517-2.8022 2.7576-3.6746 5.0204-3.6746 9.5311 0 1.9718 0.19153 2.7911 1.404 6.0058 1.8428 4.8858 1.9092 5.1319 1.6063 5.9508-0.384 1.038-2.2785 1.7208-7.7355 2.7876-5.3231 1.0406-8.8343 2.0823-11.432 3.3915-3.8207 1.9257-7.949 7.2366-9.3049 11.97-0.70604 2.465-0.70891 8.2996-0.0053 10.72 1.7755 6.1076 6.6538 11.72 12.98 14.932 1.0962 0.55665 2.8644 1.3662 3.9295 1.7989l1.9364 0.78685 20.89 4e-3c11.49 2e-3 20.959 0.0725 21.043 0.15647 0.28488 0.28488 80.65 0.14004 86.019-0.15503z" fill="#4d4d4d" stroke-width=".30485"/><path d="m52.275 175.35c-3.8587-2.0804-6.313-4.7907-8.4771-9.3615-1.1439-2.4161-1.2362-2.8131-1.3649-5.8734-0.13494-3.2089-0.1161-3.3267 0.84351-5.276 1.3035-2.6478 6.0773-7.5105 8.7427-8.9056 1.0295-0.53883 2.0381-0.9797 2.2414-0.9797s-0.66186 1.0083-1.9226 2.2407c-3.9209 3.8328-5.6964 7.3873-5.6964 11.404 0 5.9708 3.3079 11.163 9.584 15.043 1.4987 0.92651 2.773 1.829 2.8318 2.0054 0.1342 0.4026-1.3468 0.7088-3.3845 0.69977-1.1732-5e-3 -2.0196-0.25343-3.3979-0.99654z" fill="#4d4d4d" stroke-width=".30485"/></svg>
