<?xml version="1.0" encoding="UTF-8"?>
<svg enable-background="new 0 0 239 229.3" version="1.1" viewBox="0 0 239 229.3" xml:space="preserve" xmlns="http://www.w3.org/2000/svg">
<path d="m182.5 69.4c4.5-1.1 8.2-2.3 11.9-2.8 23-3.4 41.4 11.1 44 35 0.6 5.7 0.8 11.8-0.3 17.4-4.1 20.6-13.3 25-29.2 29.2-6 1.6-12.5 2.1-18.8 2.1-51.2 0.2-102.3 0.3-153.5 0.2-15.9 0-34-15.8-36.2-30.9-2.8-19.1 7.8-36.9 25.4-42.4 2.8-0.9 5.7-1.6 9.1-2.5-4.2-13.8-2.1-25.7 10.6-33.8 10.2-6.4 18.9-5.6 31 2 0.6-2 1.2-3.8 1.8-5.7 8.7-25.5 38.6-42.3 64.6-35.8 20.7 5.2 31.7 19.8 35.6 40.1 1.5 7.7 2.1 15.5 3.1 23.3 0.2 1.4 0.5 2.8 0.9 4.6zm-1.6 72c11.8 1.4 21-1 30-4.1 9.9-3.4 16.9-10.1 17.3-20.9 0.3-7.8-0.6-15.9-2.5-23.6-0.9-4-4.5-7.8-7.8-10.6-9.5-8.2-20.4-7.7-31.5-3.5-9.7 3.6-12.5 1.9-13.9-8.5-1.1-8.3-2-16.5-3.1-24.8-2.7-20.2-15.5-33.8-33.7-36.1-24.3-3-48.4 16.1-51.4 40.6-0.3 2.8-0.5 5.7-1.2 8.4-0.4 1.4-1.7 2.6-2.6 3.8-1.1-1-2.5-1.9-3.4-3.1-2.6-3.2-4.4-7.3-7.6-9.8-2.7-2.2-6.8-3.9-10.2-3.7-14.7 0.8-21.9 13.5-15.6 26.8 3.9 8.2 2.9 9.7-6.3 11.2-4.5 0.7-9.4 1.5-13.4 3.6s-7.9 5.2-10.4 8.9c-6.4 9.5-6.7 19.8-0.7 29.7 5.9 9.6 14.3 15.7 26.1 15.7h141.9z"/>
<path d="m103.1 176.4c-0.4 8.1-4.4 13.9-11.4 16-8.5 2.6-19.3-0.3-23.1-6.4-3.5-5.7-2.3-11.3 1.1-16.4 3.9-5.8 9.6-9.2 16.1-11.1 7.6-2.2 12.2 0.5 15.3 9.1 1.2 2.8 1.4 5.9 2 8.8zm-19.5 8.1c5.1-0.8 8.9-2.3 9.4-7.2 0.4-3.7-0.3-7.6-1.1-11.3-0.2-0.8-3.1-2-4-1.5-3.2 1.7-6.5 3.7-8.8 6.4-1.9 2.3-3.8 6.2-3.1 8.6 0.7 2.3 4.9 3.4 7.6 5z" fill="#b3b3b3"/>
<path d="m130.1 211.9c-0.2 8.4-4.2 14.3-11.4 16.5-8.3 2.5-18.9-0.3-22.8-6-3.2-4.7-3-11.3 0.9-16.8 4-5.7 9.6-9.2 16.2-11 7.6-2.1 12.1 0.6 15.3 9.2 1 2.5 1.2 5.4 1.8 8.1zm-19.5 8.5c5.8-0.9 9-2.4 9.2-6.5 0.2-4.6-1.3-9.2-2-13.8-3.2 1.5-6.4 3-9.5 4.6-1 0.5-2.1 1.4-2.5 2.4-1.2 2.9-3.3 6.3-2.5 8.8 0.5 2.1 4.7 3.1 7.3 4.5z" fill="#b3b3b3"/>
<path d="m168.1 182.4c-0.4 8.1-4.4 13.9-11.4 16-8.6 2.6-19.3-0.4-23-6.5-3.5-5.7-2.3-11.3 1.2-16.4 3.9-5.7 9.6-9.2 16.1-11 7.6-2.1 12.1 0.6 15.3 9.2 1 2.8 1.2 5.8 1.8 8.7zm-19.3 8.1c4.6-0.9 8.6-2 8.8-6.4 0.3-4.6-1.1-9.3-1.8-13.9-3.2 1.5-6.4 2.8-9.5 4.4-0.9 0.4-1.8 1.2-2.2 2-1.3 3-3.7 6.5-3.1 9.2 0.7 2 5.1 3.1 7.8 4.7z" fill="#b3b3b3"/>
<path d="m205.7 175.6c0 7-4.3 11.3-11.5 11.3-7.4 0-12.4-3.9-12.3-9.5 0.1-6.4 8.2-13.6 15.4-13.8 4.6-0.1 8.3 5.2 8.4 12zm-7.4-9.3c-3.4 2.4-6.1 3.6-8 5.7-1.4 1.5-1.6 4-2.4 6 2.4 0.8 4.8 2.3 7.1 2.1 1.6-0.2 3.8-2.6 4.2-4.4 0.5-2.5-0.4-5.4-0.9-9.4z" fill="#b3b3b3"/>
<path d="m56.7 170.8c0 7-4.5 11.2-11.7 11.1s-12-3.8-12.1-9.2c-0.1-6.5 8.2-14 15.6-14.1 4.6 0 8.2 5.4 8.2 12.2zm-7.3-8c-0.6-0.3-1.2-0.6-1.7-0.9-2.7 2.4-5.7 4.6-8 7.4-0.8 0.9-0.2 4.6 0.5 4.9 2.3 0.8 5.2 1.3 7.5 0.5 1.4-0.4 2.5-3.3 2.7-5.2 0.2-2.2-0.6-4.5-1-6.7z" fill="#b3b3b3"/>
<path d="m151.7 87.1c0.4-1.5 0.8-3 1.1-4.5 1.3-8 3.2-16 3.7-24 0.8-11-2.1-21.1-10.4-29.1-1.2-1.1-1.3-3.3-1.9-5 1.9 0.2 4.1-0.2 5.5 0.7 8.5 5.2 14.5 12.8 15 22.8 0.7 13-1.8 25.5-9.2 36.5-0.8 1.1-1.8 2.1-2.7 3.1-0.4-0.1-0.7-0.3-1.1-0.5z"/>
<path d="m34.7 90.2c-7.5 5.9-14.6 12.3-13.7 22.5 0.8 9.5 7.3 16.1 16 20.3l-0.3 1.5c-2.3 0.2-4.9 1.1-7 0.4-10-3.4-17.4-18.6-14.3-28.7 1.6-5.3 4.7-9.1 9.6-11.5 3.1-1.5 6.4-3 9.7-4.5z"/>
<path d="m42.308 181.52c-3.6045-0.64738-6.4011-2.2533-7.82-4.4906-1.1284-1.7793-1.5003-3.2766-1.318-5.3063 0.51114-5.6905 7.8027-12.217 14.422-12.909 4.9495-0.51732 8.8591 4.7362 8.873 11.923 0.0099 5.1406-2.6366 9.0627-7.0106 10.39-1.7868 0.54214-5.2547 0.73296-7.1462 0.39322zm5.2897-6.6384c0.71616-0.25184 1.1902-0.73549 1.8221-1.8591 1.1335-2.0154 1.3368-4.5749 0.63073-7.9395-0.4765-2.2706-0.5702-2.4555-1.4597-2.8796-0.84539-0.40313-1.0064-0.40604-1.4558-0.0263-6.8388 5.7777-7.9246 6.9665-7.9068 8.6565 0.02326 2.2088 0.38512 3.2826 1.2137 3.6016 2.0797 0.80066 5.5353 1.0162 7.1557 0.44637z" fill="#b3b3b3" stroke-width=".2852"/><path d="m80.627 192.77c-8.9752-1.6222-14.213-7.1643-13.83-14.634 0.20658-4.0336 1.9649-7.6028 5.702-11.574 2.4256-2.5777 5.1413-4.5386 8.2864-5.9833 5.7466-2.6396 10.285-3.2623 13.331-1.8288 2.2776 1.0721 4.0949 3.0645 5.5606 6.0965 1.6111 3.3328 1.9988 4.5549 2.7523 8.6742 0.6077 3.3224 0.61149 3.4789 0.14379 5.9251-0.66521 3.4794-2.3204 6.7861-4.4754 8.9412-3.9313 3.9313-10.648 5.6167-17.47 4.3837zm6.8462-9.0005c2.2886-0.703 4.0034-2.0296 4.9161-3.8032 0.66738-1.2969 0.72849-1.7158 0.72762-4.9884-5.99e-4 -2.2664-0.19272-4.5893-0.52547-6.3533-0.58173-3.0841-0.99913-3.6575-3.0678-4.2145-0.96112-0.2588-1.2803-0.20148-2.6009 0.46707-2.4343 1.2324-5.3804 3.34-7.1097 5.0862-2.6835 2.7096-4.5392 7.1605-3.9203 9.4023 0.36196 1.3109 1.4401 2.1959 4.6764 3.8385 3.1663 1.6071 3.4395 1.6295 6.9041 0.56524z" fill="#b3b3b3" stroke-width=".2852"/><path d="m33.356 150.15c-10.147-1.4382-21.439-8.9654-27.813-18.54-4.3769-6.5747-6.0424-13.367-5.2617-21.461 1.441-14.941 10.195-26.836 23.655-32.141 0.76695-0.3023 3.5553-1.1437 6.1963-1.8698 2.641-0.72609 4.8251-1.3434 4.8535-1.3719 0.02843-0.02843-0.26021-1.2697-0.64142-2.7584-3.2347-12.632 0.04872-22.93 9.4729-29.71 7.6282-5.4878 14.646-6.8094 22.405-4.2195 2.4553 0.81948 6.7337 2.8336 8.8295 4.1567 0.59687 0.37679 1.198 0.68507 1.3359 0.68507s0.85275-1.8454 1.5886-4.1008c4.1438-12.7 12.414-22.976 24.33-30.231 11.965-7.2845 26.104-10.03 38.459-7.4673 17.611 3.6527 29.608 14.47 35.322 31.848 2.0268 6.1632 3.0368 11.716 4.586 25.21 0.82796 7.2119 1.5101 11.265 1.8959 11.265 0.14762 0 2.3327-0.51899 4.8557-1.1533 5.9239-1.4893 9.2694-1.9804 13.497-1.981 18.472-0.0029 32.85 12.147 36.615 30.941 1.1097 5.5392 1.492 13.634 0.88273 18.688-0.69143 5.7355-3.0795 13.25-5.5262 17.39-3.5603 6.0236-8.38 9.6142-16.804 12.519-6.5847 2.2705-11.958 3.443-18.447 4.025-4.2955 0.38534-161.65 0.65112-164.29 0.27749zm160.59-8.5581c8.0275-0.97165 18.643-4.201 23.562-7.1682 5.1834-3.1262 8.6469-7.5718 10.154-13.033 0.52681-1.909 0.60084-2.9418 0.5958-8.3117-4e-3 -4.072-0.16766-7.3772-0.48771-9.8394-0.56984-4.3836-1.758-10.34-2.3868-11.965-0.82187-2.1238-2.8675-4.8653-5.6096-7.518-5.9268-5.7336-11.427-8.039-19.178-8.039-4.5072 0-7.7954 0.644-14.009 2.7437-5.7189 1.9325-7.8399 2.1933-9.7564 1.1997-1.6368-0.84859-2.6703-2.5167-3.4152-5.512-0.31203-1.2549-1.347-8.5702-2.3-16.256-2.2757-18.355-3.0493-21.756-6.4763-28.475-5.5668-10.914-15.266-17.998-27.404-20.017-3.9719-0.66051-11.804-0.45722-15.694 0.40734-14.051 3.1232-26.526 12.808-32.914 25.554-2.5443 5.0765-3.9097 9.8318-4.6267 16.114-0.73742 6.4609-0.98668 7.298-2.8392 9.5343l-0.69229 0.83569-1.553-1.3268c-0.95497-0.81585-2.5492-2.7851-4.1399-5.1137-3.8692-5.6642-6.6472-8.0611-10.847-9.3586-3.6115-1.1159-8.88-0.58159-12.848 1.303-9.3872 4.458-12.273 14.449-7.3425 25.42 2.5606 5.6978 2.5503 7.585-0.04865 8.9108-1.4149 0.72185-2.5791 1.0089-7.6086 1.8758-5.6252 0.96966-8.3441 1.7004-11.157 2.9985-7.1428 3.2967-12.089 8.6221-14.835 15.971-1.242 3.3244-1.6419 6.1361-1.4501 10.196 0.25238 5.3419 1.6722 9.3439 5.189 14.627 4.8814 7.3324 10.877 11.684 18.704 13.575 2.0071 0.48496 6.1729 0.52144 76.275 0.66788 40.783 0.0852 76.08 0.18568 78.437 0.22329 2.357 0.0376 5.373-0.0632 6.7022-0.22412z" fill="#4d4d4d" stroke-width=".2852"/><path d="m29.375 134.57c-7.1881-2.5086-13.905-12.764-14.445-22.056-0.37467-6.4428 2.6246-12.735 7.7521-16.262 1.34-0.92194 9.7967-4.9711 9.9862-4.7815 0.05849 0.05849-0.59978 0.6698-1.4628 1.3585-2.1946 1.7512-5.5097 5.2807-6.9448 7.3941-3.1327 4.6131-4.1183 9.584-2.9906 15.084 1.4041 6.8485 6.0346 12.582 13.453 16.657 2.889 1.5871 2.7931 2.2277-0.41144 2.7478-2.6295 0.42679-3.3666 0.40556-4.936-0.14217z" fill="#4d4d4d" stroke-width=".2852"/><path d="m152.13 87.021c-0.0828-0.21586 0.0422-1.1463 0.27776-2.0677 0.59743-2.3363 3.2039-17.187 3.7729-21.497 0.56807-4.3023 0.64015-11.609 0.1435-14.545-1.2032-7.1135-4.0552-12.972-8.9911-18.468-1.3534-1.5071-1.9772-2.47-2.2965-3.5455-0.70253-2.3657-0.73658-2.3227 1.7145-2.1654 2.0576 0.13205 2.2597 0.21069 4.5619 1.7745 5.8423 3.9685 10.106 9.2577 11.967 14.846 1.8321 5.5011 1.7455 16.772-0.1929 25.098-1.6533 7.1014-5.2616 14.981-8.8158 19.252-1.4557 1.7492-1.8764 2.0081-2.1413 1.3177z" fill="#4d4d4d" stroke-width=".2852"/></svg>
