<?xml version="1.0" encoding="UTF-8"?>
<svg enable-background="new 0 0 224.1 221.8" version="1.1" viewBox="0 0 224.1 221.8" xml:space="preserve" xmlns="http://www.w3.org/2000/svg">
<path d="m55.7 110.4c-0.2-31.9 27.3-56 56.1-56.1 30.9-0.1 56.5 25.6 56.3 56.4-0.2 31.1-25.7 56.5-56.5 56.4-30.9-0.1-56-25.5-55.9-56.7zm8.5-0.3c0 26.7 21.3 47.9 47.9 47.9 26.5 0 47.8-21.2 47.8-47.5 0-26.8-21.1-48.1-47.7-48.1-26.9-0.1-48 20.9-48 47.7z"/>
<path d="m116.5 20.7c0 4.6 0.1 9.3 0 13.9-0.1 3-1.2 5.8-4.7 5.9-3.6 0.2-5.1-2.5-5.3-5.5-0.6-9.8-0.9-19.5-1.2-29.3-0.1-3.1 1.5-5.6 5-5.7 3.5-0.2 5.3 2.2 5.5 5.2 0.3 5.1 0.1 10.3 0.1 15.4 0.1 0.1 0.4 0.1 0.6 0.1z"/>
<path d="m192 186.9c-0.8 1.2-1.4 3.2-2.6 3.6-1.6 0.6-4.5 0.9-5.5-0.1-7.6-7.2-14.9-14.6-22.1-22.3-0.9-1-0.8-4.5 0.1-5.2 1.3-1 4.6-1.4 5.7-0.5 7.9 6.8 15.5 14 23.1 21.2 0.7 0.7 0.8 1.9 1.3 3.3z"/>
<path d="m193.7 33.9c-0.9 1.7-1.4 3.1-2.2 4-6.7 7.1-13.5 14.1-20.4 21.1-0.5 0.5-1.1 1.1-1.6 1.1-2 0.1-4.7 0.6-5.8-0.4s-1.2-4.1-0.4-5.7c1.3-2.6 3.6-4.7 5.6-6.9 5.1-5.5 10.1-11 15.5-16.1 1.4-1.3 4.5-1.5 6.6-1.2 1.2 0.2 1.9 2.7 2.7 4.1z"/>
<path d="m204.8 116.3c-6.7 0-11.3 0.5-15.7-0.2-2.1-0.3-3.9-2.7-5.8-4.2 1.8-1.6 3.5-4.4 5.4-4.6 9.9-0.8 19.9-1.2 29.9-1.1 1.9 0 4.9 2.5 5.4 4.4 0.8 3.1-2 4.6-4.9 4.9-5.5 0.3-11 0.6-14.3 0.8z"/>
<path d="m104.7 202.4c0.3-5.5 0.2-11 1.1-16.4 0.3-1.9 2.8-3.4 4.2-5.1 1.4 1.8 3.8 3.6 4 5.5 0.7 9.8 0.8 19.6 1 29.4 0 3.3-1.4 6.2-5.2 6-3.8-0.1-4.7-3.2-4.8-6.4-0.1-4.3 0-8.7 0-13h-0.3z"/>
<path d="m35.7 30.1c2 1.2 3.7 1.9 5 3.1 6.2 6 12.3 12.1 18.4 18.3 2.4 2.5 4.7 5.5 1.6 8.7-3 3.1-6.2 1.2-8.7-1.3-6.3-6.2-12.6-12.3-18.6-18.7-1.4-1.5-1.8-4.4-1.7-6.6 0.2-1.2 2.5-2.2 4-3.5z"/>
<path d="m55.4 160.8c1.1 0.8 3.3 1.6 3.5 2.6 0.3 2 0.1 4.8-1.1 6.3-4.3 4.9-9 9.3-13.6 13.8-2.4 2.3-4.5 5-7.3 6.7-1.6 0.9-4.9 0.9-6.1-0.2-1.1-1.1-1.3-4.9-0.3-6 7-7.5 14.4-14.7 21.8-21.9 0.6-0.6 1.7-0.8 3.1-1.3z"/>
<path d="m19.7 116c-4.8 0-9.6 0.1-14.4-0.1-2.8-0.1-5.9-1.1-5.2-4.5 0.4-1.7 3.2-4 5.1-4.1 9.4-0.5 18.9-0.4 28.4-0.4 3.1 0 6.2 1.2 5.5 4.7-0.4 1.8-3.4 4.1-5.4 4.3-4.6 0.7-9.3 0.2-13.9 0.2-0.1 0-0.1 0-0.1-0.1z"/>
<path d="m96.3 141.5c-12.5-6.5-21-16.8-21.7-30.9-0.8-15.7 6.3-28.5 20.1-36.6 2.9-1.7 6.5-2.2 9.9-2.9 1-0.2 2.2 1 3.3 1.5-0.6 1.1-1.1 2.4-1.9 3.1-1.2 1.1-2.8 1.7-4.3 2.5-15 8.6-26.3 34.4-13.6 53.2 2.4 3.6 5.5 6.8 8.2 10.1z"/>
<path d="m185.15 190.75c-0.71828-0.15558-2.2096-1.4723-6.5872-5.8158-9.077-9.0064-16.66-16.874-16.927-17.564-0.28314-0.73011-0.32109-2.6455-0.0709-3.5794 0.23372-0.87249 1.555-1.4848 3.5495-1.6449l1.6822-0.13503 1.6407 1.3663c2.4303 2.0238 9.7988 8.7139 15.128 13.735 2.5766 2.4277 5.2785 4.9496 6.0042 5.6044 0.97967 0.88386 1.4381 1.5666 1.7799 2.6511l0.46043 1.4606-0.79684 1.487c-0.55751 1.0404-1.0868 1.6231-1.7624 1.9402-1.1896 0.55837-2.8699 0.76086-4.101 0.4942z" fill="#fc0" stroke-width=".27587"/><path d="m189.66 116.02c-1.4818-0.25415-2.4481-0.82226-4.3997-2.5868l-1.641-1.4837 1.3652-1.5616c2.5394-2.9048 2.4451-2.8715 9.5136-3.3544 3.4083-0.23286 10.308-0.50174 15.333-0.5975 9.07-0.17288 9.1448-0.16969 10.411 0.44328 1.5975 0.77332 3.4167 2.8041 3.6563 4.0816 0.37851 2.0176-1.1462 3.6632-3.885 4.1928-3.9474 0.76338-27.1 1.4242-30.353 0.86633z" fill="#fc0" stroke-width=".27587"/><path d="m164.93 60.086c-1.359-0.21378-1.7529-0.99857-1.7529-3.4921 0-2.131 0.0524-2.3253 1.0166-3.7643 1.0967-1.6369 10.961-12.349 16.764-18.204 4.1806-4.2186 4.9705-4.678 8.0582-4.6869 1.9761-0.0057 2.1554 0.04381 2.7587 0.76098 0.35487 0.42187 0.88326 1.2951 1.1742 1.9406l0.52895 1.1736-0.80482 1.7104c-0.90652 1.9265-1.6752 2.7736-14.265 15.721-4.5379 4.6666-8.5175 8.5388-8.8436 8.6049-1.0386 0.21042-3.8771 0.35503-4.6334 0.23605z" fill="#fc0" stroke-width=".27587"/><path d="m109.97 40.13c-1.8121-0.54257-3.0351-2.525-3.3129-5.37-0.19952-2.0432-0.62734-11.475-0.99912-22.026-0.29709-8.4318-0.21773-9.407 0.87898-10.801 1.7092-2.1729 5.7564-2.3743 7.594-0.37798 1.4352 1.5592 1.5438 2.2746 1.6794 11.067 0.0741 4.8014 0.23339 8.2072 0.3839 8.2072 0.15504 0 0.2236 3.0968 0.17254 7.7933-0.0835 7.6796-0.0948 7.8135-0.7744 9.1727-1.0627 2.1254-3.2665 3.0408-5.6224 2.3354z" fill="#fc0" stroke-width=".27587"/><path d="m55.204 61.095c-0.78144-0.35455-2.8371-2.1333-5.7933-5.0128-7.8975-7.6927-15.739-15.76-16.435-16.909-0.70564-1.1648-1.3876-4.522-1.1283-5.5549 0.08384-0.33404 0.99056-1.2143 2.0149-1.956l1.8625-1.3487 2.1662 1.2192c1.8763 1.056 3.4383 2.4774 11.672 10.621 5.2283 5.1711 10.047 10.122 10.709 11.002 2.1522 2.863 2.278 4.6276 0.47263 6.6283-1.7195 1.9056-3.3693 2.2959-5.5406 1.3108z" fill="#fc0" stroke-width=".27587"/><path d="m6.0692 115.74c-4.3804-0.29177-5.7933-1.1411-5.7933-3.4825 0-1.5991 1.2009-3.1041 3.4179-4.2833 1.0039-0.53395 1.7774-0.58856 12-0.84726 6.01-0.15208 12.935-0.22039 15.39-0.1518 4.007 0.11198 4.5983 0.19205 5.7933 0.78455 1.5758 0.78129 2.4007 2.1381 2.1283 3.5006-0.24144 1.2072-1.7183 2.8259-3.4571 3.789l-1.4783 0.81882-12.552 0.0325c-6.9037 0.0179-13.856-0.0544-15.449-0.16047z" fill="#fc0" stroke-width=".27587"/><path d="m32.001 190.42c-1.2563-0.44968-1.9304-1.7752-1.9296-3.794 4.1e-4 -1.0339 0.17744-1.8073 0.55566-2.4277 0.30528-0.50072 5.3979-5.7368 11.317-11.636 9.641-9.6083 10.905-10.773 12.132-11.181l1.3705-0.45522 3.1756 2.1124 0.08233 2.0632c0.14394 3.6073 0.32279 3.3656-10.544 14.25-5.8617 5.8712-10.188 9.9843-10.974 10.433-1.5215 0.8682-3.7661 1.143-5.1856 0.63492z" fill="#fc0" stroke-width=".27587"/><path d="m107.87 221.18c-1.233-0.61946-2.1041-1.9368-2.4736-3.7408-0.39671-1.9366-0.42394-22.309-0.0355-26.536 0.52195-5.6782 0.64918-6.0118 3.1744-8.3247l1.5121-1.385 1.4871 1.6833c0.81789 0.92583 1.6815 2.0594 1.9192 2.519 0.60257 1.1652 1.0872 11.195 1.1333 23.456l0.0364 9.6724-0.73403 1.1124c-1.2681 1.9219-3.9149 2.6004-6.0193 1.5431z" fill="#fc0" stroke-width=".27587"/><path d="m108 166.85c-4.6478-0.30681-11.486-1.8287-15.932-3.546-23.141-8.9371-37.718-31.858-36.058-56.7 1.1979-17.936 11.335-34.282 27.205-43.868 18.228-11.01 40.062-10.967 57.932 0.11505 17.695 10.974 28.282 31.411 26.641 51.43-1.4741 17.983-10.772 33.724-25.717 43.539-10.07 6.613-22.157 9.8168-34.07 9.0303zm8.2761-8.924c6.369-0.60056 11.989-2.1727 17.347-4.8526 14.746-7.3758 24.326-21.186 26.139-37.677 0.38201-3.4758 0.15992-9.8763-0.46706-13.461-1.2778-7.3062-4.3605-14.546-8.717-20.471-2.2754-3.095-7.5157-8.2266-10.715-10.492-13.894-9.8413-33.028-11.445-48.691-4.0812-5.2009 2.4452-9.2151 5.2691-13.307 9.3612-16.759 16.759-18.458 44.123-3.9253 63.214 9.7638 12.826 26.179 19.984 42.337 18.46z" fill="#fc0" stroke-width=".27587"/><path d="m91.859 138.66c-9.5126-6.2553-15.019-14.272-16.698-24.309-0.67746-4.0515-0.43583-11.125 0.5182-15.171 1.772-7.5139 5.1641-13.347 10.973-18.871 2.9389-2.7944 7.0785-5.7483 9.6364-6.8763 1.5749-0.69452 5.2319-1.6611 7.5537-1.9965 1.1381-0.16441 1.5484-0.09089 2.5518 0.45723 0.65759 0.35923 1.1956 0.7332 1.1956 0.83106 0 0.09785-0.32013 0.7507-0.71141 1.4508-0.80161 1.4342-1.2706 1.8037-4.3922 3.4603-6.0113 3.19-11.526 9.1003-15.245 16.339-5.7384 11.169-6.2759 23.939-1.4194 33.72 1.745 3.5146 3.7954 6.3286 9.0223 12.383 0.77557 0.89827-0.08453 0.48981-2.9855-1.4178z" fill="#fc0" stroke-width=".27587"/></svg>
