<?xml version="1.0" encoding="UTF-8"?>
<svg enable-background="new 0 0 238.6 211.2" version="1.1" viewBox="0 0 238.6 211.2" xml:space="preserve" xmlns="http://www.w3.org/2000/svg">
<path d="m34.8 74.5c-4.4-13.9-2.2-25.9 10.5-33.5 10.1-6 20.8-7.3 30.9 2.3l2-6c8.4-25.5 38.3-42.4 64.3-36 20.8 5.2 31.8 19.7 35.7 40 1.5 7.7 2.1 15.5 3.1 23.3 0.2 1.4 0.5 2.9 0.8 4.8 2.1-0.6 3.8-1 5.5-1.5 25.5-7.4 47.4 7 50.5 33.4 0.7 5.7 0.6 11.7-0.2 17.4-2.3 15.8-11.7 25.3-27.1 28.9-3.9 0.9-7.9 2-11.8 2-2.1 0-4.2-2.2-6.4-3.5 1.7-1.8 3-4.3 5-5.2 5.7-2.3 11.7-3.6 17.4-5.8 8.6-3.4 12.4-10.8 12.8-19.3 0.4-7.4-0.2-15.1-2.1-22.1-3.1-11.6-16.7-19.6-28.6-17.6-4.7 0.8-9.3 2.4-13.9 3.8-5.8 1.8-9.2 0.2-10.2-5.8-1.6-9.5-2.6-19.1-3.9-28.7-2.9-21.5-17.5-35.9-37.3-36.3-18.2-0.4-44.5 12-47.8 41-0.4 3.3-1 6.6-1.8 9.8-0.2 0.8-1.4 2-2.2 2.1s-2-0.9-2.6-1.8c-1.9-2.5-3.4-5.3-5.3-7.8-5.8-7.7-11.5-9-20.6-5.2-7.3 3-11.3 10.1-10.1 18.2 0.5 3.1 1.8 6 3 8.9 2.3 5.2 1 7.9-4.6 8.8-3.1 0.5-6.2 1-9.3 1.6-12.7 2.5-20 10.6-21.7 23-1.6 11.7 3.4 21 12.9 28 6.5 4.8 13.8 6.3 21.7 5.7 3.7-0.2 8.8-0.8 8.7 4.7-0.1 5-5 4.2-8.6 4.4-13.3 0.8-24-4.1-33.8-13.1-18.7-17.3-8.4-53.7 13.8-59.7 3.6-0.9 7.1-2 11.3-3.2z"/>
<path d="m135.7 154.5c6-0.7 10.8-1.8 15.5-1.6 3 0.1 7.2 1.3 8.5 3.5 1.2 2.1 0.5 6.9-1.2 9-14.2 17.3-29.4 33.5-48.4 45.9 12.4-15.5 24.8-31 37.2-46.6-0.3-0.5-0.7-0.9-1-1.4-2.6 0.2-5.2 0.5-7.7 0.6-2.6 0.1-5.4 0.2-7.9-0.3-5.8-1.1-8.1-5.7-5.3-10.8 2-3.6 4.6-7 7.5-9.9 6.6-6.6 13.4-12.9 20.3-19.2 1.4-1.3 3.2-2.9 5-3.2 2.1-0.4 4.5 0.4 6.7 0.7-0.8 1.9-1.2 4.2-2.6 5.6-7.9 8.1-16 16-24 24-0.8 0.7-1.3 1.8-2.6 3.7z"/>
<path d="m89.3 163.4c-4 0.2-8 1.1-11.8 0.6-3.3-0.5-7.3-1.9-9.3-4.3-2.7-3.2-0.5-7.3 2.1-9.9 9.3-9.5 18.9-18.7 28.5-27.9 0.8-0.8 2-1.7 3-1.7 2.1 0.1 4.2 0.8 6.2 1.2-0.8 1.8-1.1 4-2.4 5.3-7.8 8-15.8 15.7-23.7 23.6-1 1-1.7 2.3-3.2 4.4 5.1-0.6 9.2-1.2 13.2-1.5 2.3-0.2 4.7-0.3 6.9 0.2 4.3 1 6.2 4.6 4.6 8.8-0.7 1.8-1.7 3.7-3 5.1-13.3 14.9-26.5 29.9-42.9 41.7-1.3 0.9-2.7 1.8-4.4 2.3 12.4-15.4 24.9-30.8 37.3-46.2-0.4-0.7-0.7-1.2-1.1-1.7z"/>
<path d="m151.8 87.1c1.4-6.8 3.3-13.5 3.9-20.3 0.6-6.6 0.2-13.3-0.5-19.8-0.8-7.2-5-12.9-10-18-0.9-1-1-2.8-1.4-4.3 1.6 0 3.4-0.6 4.6 0 8.8 4.8 14.9 12.3 15.9 22.2 1.3 13.7-1.6 26.7-9.5 38.4-0.6 0.9-1 2.1-1.4 3.2-0.5-0.4-1-0.9-1.6-1.4z"/>
<path d="m34.8 90.6c-7.8 5.4-14.9 11.8-14.1 22 0.7 9.7 7.5 16.2 16.2 20.7-0.2 0.5-0.4 1.1-0.6 1.6-2.4 0-5.1 0.7-7.2-0.1-11.1-4.4-17.6-19.5-13.4-30.3 3.3-8.8 11.5-10.9 19.1-13.9z"/>
<path d="m34.577 149.99c-7.7929-1.2582-14.699-4.4542-21.574-9.9837-6.6452-5.3447-10.174-10.716-11.906-18.118-2.7249-11.652 0.64855-25.482 8.4615-34.688 3.3321-3.9262 7.8715-7.2424 11.793-8.6155 1.0428-0.36509 4.4966-1.3929 7.6751-2.2841 3.1785-0.89115 5.8061-1.6447 5.8392-1.6746 0.03305-0.02986-0.28038-1.4064-0.69651-3.0589-1.3428-5.3326-1.6337-9.49-0.94173-13.458 1.3877-7.9578 5.938-13.714 14.351-18.155 3.9439-2.0817 9.1885-3.5707 12.576-3.5707 2.0802 0 5.7423 0.75755 7.7969 1.6128 2.2611 0.94129 5.3555 2.8997 7.0507 4.4623 0.65289 0.60181 1.2276 1.0474 1.2771 0.99012 0.04954-0.05724 0.65488-1.8181 1.3452-3.913 2.2932-6.9595 4.4938-11.344 8.1646-16.266 9.3844-12.583 24.268-21.095 40.033-22.893 3.3629-0.38365 10.282-0.18398 13.362 0.38559 19.549 3.6151 32.563 15.936 37.735 35.726 1.4046 5.3742 2.1185 9.7828 3.4073 21.041 0.80776 7.056 1.4505 11.488 1.7069 11.769 0.10573 0.11601 2.1896-0.32488 4.6308-0.97977 6.5807-1.7653 8.721-2.088 13.895-2.095 5.1359-0.0069 7.9548 0.41357 12.123 1.8083 5.2344 1.7513 9.4743 4.2983 13.315 7.9982 6.6817 6.4373 10.646 14.929 12.028 25.762 0.41214 3.2318 0.40709 11.482-9e-3 14.842-1.1948 9.6446-4.0433 16.048-9.5857 21.548-5.0898 5.0514-10.609 7.717-20.635 9.9657-5.0797 1.1394-8.5482 1.4949-9.9344 1.0184-0.51861-0.17829-1.8501-0.94607-2.959-1.7062l-2.016-1.382 1.2996-1.6537c2.6179-3.3312 2.5945-3.3202 15.986-7.5412 8.9961-2.8355 12.45-5.3839 15.341-11.318 2.0986-4.3077 2.6518-8.0116 2.4128-16.155-0.21918-7.4682-1.2002-13.631-2.8562-17.944-2.5899-6.7448-9.052-12.305-17.212-14.809-2.1078-0.64695-2.6938-0.70955-6.7731-0.72364-5.0678-0.01749-6.0381 0.16984-14.899 2.8768-2.5983 0.79381-5.333 1.5147-6.077 1.602-2.5764 0.30222-4.8354-0.86553-5.9676-3.0849-0.89853-1.7613-1.647-6.4-3.9148-24.263-1.2818-10.096-1.8129-12.947-3.1742-17.036-4.609-13.845-14.191-23.001-27.305-26.089-3.4612-0.81504-10.16-1.113-14.094-0.62697-11.878 1.4675-23.561 7.4901-30.971 15.966-6.0802 6.9546-9.5914 15.074-10.88 25.159-0.44283 3.4666-1.5672 9.0569-1.9836 9.8621-0.39297 0.75992-1.4558 1.5648-2.0662 1.5648-0.80479 0-2.1054-1.513-4.8222-5.6097-6.6592-10.041-11.342-12.59-19.388-10.549-1.4169 0.35942-3.7076 1.2032-5.0904 1.8751-2.034 0.98826-2.8964 1.6036-4.5147 3.2211-3.355 3.3535-4.7879 6.8987-4.7897 11.85-0.0011 3.2308 0.44696 5.0782 2.4491 10.097 0.7257 1.819 1.4402 3.8459 1.5877 4.5042 0.49742 2.2196-0.48098 4.0331-2.669 4.9471-0.5262 0.2198-3.6587 0.87704-6.9612 1.4605-3.3025 0.58348-7.0684 1.3624-8.3687 1.7308-6.5699 1.8617-12.06 6.1068-15.229 11.775-1.2502 2.2364-2.6976 6.7201-3.1604 9.7902-1.4222 9.4356 1.0823 17.414 7.6013 24.216 7.6238 7.954 15.196 10.86 27.068 10.387 2.8604-0.11389 4.564-0.0706 5.3144 0.13508 2.7744 0.76036 3.961 3.5121 2.7065 6.2763-0.40638 0.8954-0.77052 1.245-1.7674 1.6967-1.1482 0.52031-1.7495 0.57449-7.0346 0.63381-4.0411 0.0454-6.48-0.0483-8.1098-0.31144z" fill="#4d4d4d" stroke-width=".26269"/><path d="m30.078 134.92c-4.8991-1.3114-10.156-6.3652-13.054-12.55-2.9814-6.3622-3.2181-13.289-0.65055-19.04 1.4441-3.2346 4.4591-6.2481 8.3396-8.3356 1.8659-1.0038 7.6847-3.4442 8.2121-3.4442 0.1388 0-0.54368 0.60262-1.5166 1.3391-7.6908 5.822-11.301 12.246-10.832 19.275 0.55604 8.3274 5.0207 14.738 13.872 19.917 2.2259 1.3024 2.264 1.3417 2.0101 2.07-0.2387 0.68474-0.36396 0.7426-1.6122 0.7447-0.74437 1e-3 -1.9445 0.0548-2.6668 0.11887-0.72239 0.0641-1.6681 0.0216-2.1015-0.0944z" fill="#4d4d4d" stroke-width=".26269"/><path d="m152.63 87.61-0.64973-0.49009 0.44017-2.0553c0.24209-1.1304 0.9129-4.2421 1.4907-6.915 1.8341-8.4845 1.9976-10.001 1.9976-18.519 0-11.545-0.59974-15.629-3.0146-20.529-1.4617-2.9655-3.4878-5.8225-6.1779-8.7117-1.5341-1.6476-1.8572-2.1683-2.2706-3.6592-0.26511-0.95606-0.45011-1.7702-0.41112-1.8092 0.039-0.03899 0.85009-0.15073 1.8024-0.2483 1.6101-0.16496 1.8403-0.11942 3.2825 0.64924 3.7329 1.9896 8.2645 6.0473 10.609 9.499 3.3368 4.9137 4.711 10.229 4.716 18.243 7e-3 10.589-2.8698 20.995-8.1685 29.551-0.76054 1.2281-1.7457 2.9645-2.1892 3.8588l-0.80645 1.626z" fill="#4d4d4d" stroke-width=".26269"/><path d="m54.002 210.51c0.10032-0.16232 8.3816-10.449 18.403-22.859l18.22-22.564-0.59023-0.91122c-0.32462-0.50118-0.78181-0.91269-1.016-0.91448-0.23416-2e-3 -2.1846 0.1852-4.3343 0.41554-5.8719 0.62914-8.992 0.24025-12.846-1.6012-4.3434-2.0753-5.6917-5.065-3.9326-8.7204 0.59818-1.243 2.0708-2.8726 7.9838-8.8348 8.1724-8.2404 23.317-22.892 24.4-23.607 0.42557-0.28065 1.189-0.46712 1.8948-0.4628 1.0939 7e-3 5.1282 0.82692 5.3989 1.0976 0.1455 0.14551-0.71086 2.6777-1.3208 3.9056-0.24495 0.49308-6.0361 6.4523-12.869 13.243-8.2514 8.1998-12.836 12.952-13.65 14.15-0.67438 0.99224-1.1852 1.8451-1.1351 1.8952 0.05009 0.0501 2.4496-0.20484 5.3322-0.56652 6.4953-0.81495 12.555-1.0881 14.608-0.65845 2.0562 0.43034 3.6473 1.5505 4.5449 3.1997 0.65005 1.1943 0.71977 1.5481 0.60934 3.0914-0.17982 2.5132-1.5754 5.2319-4.247 8.2734-12.801 14.573-23.183 25.238-31.87 32.738-6.1171 5.2815-14.599 11.331-13.584 9.6891z" fill="#fc0" stroke-width=".26269"/><path d="m129.18 187.68c9.9284-12.431 18.08-22.745 18.115-22.919 0.035-0.1747-0.15764-0.60328-0.42815-0.95241l-0.49182-0.63477-3.6572 0.30641c-7.4876 0.62735-12.225 0.31143-14.737-0.98271-3.1553-1.6258-4.3457-4.9116-3.0188-8.3326 0.63889-1.6472 2.8496-5.0665 4.9952-7.7262 2.6757-3.3167 21.852-21.659 25.567-24.456 1.8978-1.4285 3.282-1.6724 6.4488-1.1363 1.4274 0.24163 2.6264 0.468 2.6645 0.50305 0.038 0.035-0.0906 0.46605-0.28579 0.95778-0.1952 0.49174-0.56816 1.4851-0.82881 2.2075-0.41902 1.1613-1.9982 2.8496-13.637 14.579-12.188 12.284-15.097 15.498-14.022 15.498 0.18636 0 2.4063-0.29762 4.9332-0.66138 5.9839-0.86141 10.224-1.09 12.373-0.66716 6.3179 1.243 8.1281 3.9764 6.3596 9.6032-0.48595 1.5462-1.2596 2.6118-5.7217 7.8806-10.783 12.732-21.928 23.825-32.057 31.905-3.1336 2.4998-10.181 7.6295-10.482 7.6295-0.0783 0 7.9808-10.171 17.909-22.602z" fill="#fc0" stroke-width=".26269"/></svg>
